<?xml version="1.0" encoding="UTF-8"?>
<svg width="21px" height="21px" viewBox="0 0 21 21" version="1.1" xmlns="http://www.w3.org/2000/svg" xmlns:xlink="http://www.w3.org/1999/xlink">
    <g id="Page-1" stroke="none" stroke-width="1" fill="none" fill-rule="evenodd">
      <path fill="#191919" d="M11.65,9.35 L19.85,9.35 C20.4022847,9.35 20.85,9.7977153 20.85,10.35 L20.85,10.65 C20.85,11.2022847 20.4022847,11.65 19.85,11.65 L11.65,11.65 L11.65,19.85 C11.65,20.4022847 11.2022847,20.85 10.65,20.85 L10.35,20.85 C9.7977153,20.85 9.35,20.4022847 9.35,19.85 L9.35,11.65 L1.15,11.65 C0.59771525,11.65 0.15,11.2022847 0.15,10.65 L0.15,10.35 C0.15,9.7977153 0.59771525,9.35 1.15,9.35 L9.35,9.35 L9.35,1.15 C9.35,0.59771525 9.7977153,0.15 10.35,0.15 L10.65,0.15 C11.2022847,0.15 11.65,0.59771525 11.65,1.15 L11.65,9.35 Z" id="path-1"></path>
    </g>
</svg>
