
<svg width="16px" height="16px" viewBox="0 0 16 16" version="1.1" xmlns="http://www.w3.org/2000/svg" xmlns:xlink="http://www.w3.org/1999/xlink">
    <g id="Page-1" stroke="none" stroke-width="1" fill="none" fill-rule="evenodd">
        <g id="automatic.jsx" fill-rule="nonzero">
            <path fill="#00A8D6" d="M2.603,12.41 L2.771,12.251 L2.603,12.251 L2.603,12.409 L2.603,12.41 Z M3.605,12.251 C5.76991443,14.1603017 8.97395558,14.2992528 11.2960342,12.5845404 C13.6181129,10.8698281 14.4281162,7.76675192 13.2403798,5.13586425 C12.0526434,2.50497658 9.18946812,1.06018781 6.36756579,1.667769 C3.54566346,2.27535018 1.53077764,4.77042978 1.531,7.657 L0,7.657 C0.000420667704,4.05049424 2.51745896,0.933188564 6.0429259,0.172947299 C9.56839285,-0.587293966 13.146447,1.21564942 14.6331473,4.50146838 C16.1198476,7.78728733 15.1121127,11.6651149 12.2137693,13.8113883 C9.31542581,15.9576616 5.3122865,15.7904728 2.603,13.41 L2.603,14.549 L1.072,14.549 L1.072,10.72 L4.901,10.72 L4.901,12.251 L3.605,12.251 Z M9.898,9.628 L10.596,10.743 C9.97262025,11.2298727 9.20295807,11.4917129 8.412,11.486 C6.824,11.486 5.416,10.619 4.876,9.098 L3.829,9.098 L3.829,8.04 L4.651,8.04 C4.639,7.837 4.639,7.781 4.639,7.68 C4.639,7.59 4.639,7.5 4.651,7.32 L3.829,7.32 L3.829,6.26 L4.876,6.26 C5.416,4.73 6.858,3.829 8.412,3.829 C9.234,3.829 9.842,4.02 10.348,4.347 L9.774,5.529 C9.425,5.292 8.952,5.179 8.412,5.179 C7.646,5.179 6.914,5.518 6.509,6.261 L9.436,6.261 L8.941,7.319 L6.216,7.319 C6.193,7.477 6.193,7.567 6.193,7.691 C6.193,7.758 6.193,7.837 6.216,8.04 L8.648,8.04 L8.164,9.098 L6.542,9.098 C6.936,9.785 7.635,10.112 8.412,10.112 C9.02,10.112 9.538,9.932 9.898,9.628 L9.898,9.628 Z" id="a"></path>
        </g>
    </g>
</svg>
