<?xml version="1.0" encoding="UTF-8"?>
<svg width="30px" height="30px" viewBox="0 0 30 30" version="1.1" xmlns="http://www.w3.org/2000/svg" xmlns:xlink="http://www.w3.org/1999/xlink">
    <defs>
        <path d="M15,30 C6.71572875,30 0,23.2842712 0,15 C0,6.71572875 6.71572875,0 15,0 C23.2842712,0 30,6.71572875 30,15 C30,23.2842712 23.2842712,30 15,30 Z" id="path-1"></path>
    </defs>
    <g id="Page-1" stroke="none" stroke-width="1" fill="none" fill-rule="evenodd">
        <g id="ball.jsx">
            <mask id="mask-2" fill="white">
                <use xlink:href="#path-1"></use>
            </mask>
            <g id="path-1"></g>
            <path d="M27.8333333,17.1666667 C19.5490621,17.1666667 12.8333333,10.4509379 12.8333333,2.1666667 C12.8333333,-6.11760458 19.5490621,-12.8333333 27.8333333,-12.8333333 C36.1176046,-12.8333333 42.8333333,-6.11760458 42.8333333,2.1666667 C42.8333333,10.4509379 36.1176046,17.1666667 27.8333333,17.1666667 Z M27.8333333,15.1666667 C35.0130351,15.1666667 40.8333333,9.34636841 40.8333333,2.1666667 C40.8333333,-5.01303508 35.0130351,-10.8333333 27.8333333,-10.8333333 C20.6536316,-10.8333333 14.8333333,-5.01303508 14.8333333,2.1666667 C14.8333333,9.34636841 20.6536316,15.1666667 27.8333333,15.1666667 Z" id="Combined-Shape" fill="#191919" fill-rule="nonzero" mask="url(#mask-2)"></path>
            <path d="M15,30 C6.71572875,30 0,23.2842712 0,15 C0,6.71572875 6.71572875,0 15,0 C23.2842712,0 30,6.71572875 30,15 C30,23.2842712 23.2842712,30 15,30 Z M15,28 C22.1797017,28 28,22.1797017 28,15 C28,7.82029825 22.1797017,2 15,2 C7.82029825,2 2,7.82029825 2,15 C2,22.1797017 7.82029825,28 15,28 Z" id="Combined-Shape" fill="#191919" fill-rule="nonzero" mask="url(#mask-2)"></path>
            <path d="M2.1666667,42.8333333 C-6.11760458,42.8333333 -12.8333333,36.1176046 -12.8333333,27.8333333 C-12.8333333,19.5490621 -6.11760458,12.8333333 2.1666667,12.8333333 C10.4509379,12.8333333 17.1666667,19.5490621 17.1666667,27.8333333 C17.1666667,36.1176046 10.4509379,42.8333333 2.1666667,42.8333333 Z M2.1666667,40.8333333 C9.34636841,40.8333333 15.1666667,35.0130351 15.1666667,27.8333333 C15.1666667,20.6536316 9.34636841,14.8333333 2.1666667,14.8333333 C-5.01303508,14.8333333 -10.8333333,20.6536316 -10.8333333,27.8333333 C-10.8333333,35.0130351 -5.01303508,40.8333333 2.1666667,40.8333333 Z" id="Combined-Shape" fill="#191919" fill-rule="nonzero" mask="url(#mask-2)"></path>
        </g>
    </g>
</svg>
