<?xml version="1.0" encoding="UTF-8"?>
<svg width="22px" height="25px" viewBox="0 0 22 25" version="1.1" xmlns="http://www.w3.org/2000/svg" xmlns:xlink="http://www.w3.org/1999/xlink">
        <g id="CD_Mehr" transform="translate(-303.000000, -99.000000)" >
            <path fill="#191919" d="M308.498083,119.899631 L318.700764,119.899631 C317.958205,122.000523 315.954592,123.505717 313.599423,123.505717 C311.244254,123.505717 309.240642,122.000523 308.498083,119.899631 Z M313.997986,99 C317.729787,99 320.755009,102.025222 320.755009,105.757023 L320.755009,109.999806 C320.755009,111.522254 322.010224,113.47481 324.624231,115.773692 C325.385904,116.443544 324.912131,117.699669 323.897811,117.699669 L304.098161,117.699669 C303.021047,117.699669 302.585793,116.311809 303.470002,115.696708 C306.026927,113.917982 307.240962,112.029483 307.240962,109.999806 L307.240962,105.757023 C307.240962,102.025222 310.266185,99 313.997986,99 Z" id="Combined-Shape"></path>
        </g>
</svg>
