<?xml version="1.0" encoding="UTF-8"?>
<svg width="24px" height="24px" viewBox="0 0 24 24" version="1.1" xmlns="http://www.w3.org/2000/svg" xmlns:xlink="http://www.w3.org/1999/xlink">
    <g id="Page-1" stroke="none" stroke-width="1" fill="none" fill-rule="evenodd">
      <path d="M12.4,22.6 C9.36170213,22.6 4,16.2177235 4,10.5865734 L4,4.02605093 L12.4,1 L20.8,4.02605093 L20.8,10.5865734 C20.8,16.2177235 15.4382979,22.6 12.4,22.6 Z M12.4,10.0666667 C13.5782075,10.0666667 14.5333333,9.1115408 14.5333333,7.93333333 C14.5333333,6.75512587 13.5782075,5.8 12.4,5.8 C11.2217925,5.8 10.2666667,6.75512587 10.2666667,7.93333333 C10.2666667,9.1115408 11.2217925,10.0666667 12.4,10.0666667 Z M11.8666667,11.1333333 C9.51025173,11.1333333 7.6,13.0435851 7.6,15.4 L17.2,15.4 C17.2,13.0435851 15.2897483,11.1333333 12.9333333,11.1333333 L11.8666667,11.1333333 Z" id="path-3" fill="#191919" fill-rule="nonzero"></path>
    </g>
</svg>
