<svg width="26px" height="16px" viewBox="0 0 26 16" version="1.1" xmlns="http://www.w3.org/2000/svg" xmlns:xlink="http://www.w3.org/1999/xlink">
    <g id="Page-1" stroke="none" stroke-width="1" fill="none" fill-rule="evenodd">
        <g id="bike.jsx" fill="#00A8D6" fill-rule="nonzero">
            <path d="M6.92920417,0.25432709 C6.44447594,0.25432709 6.06179576,0.61038502 6.06179576,1.09148711 C6.06179576,1.57470858 6.44447594,1.9053338 6.92920417,1.9053338 L9.88647155,1.9053338 C10.3711998,1.9053338 10.75388,1.57470858 10.75388,1.09148711 C10.75388,0.61038502 10.3711998,0.25432709 9.88647155,0.25432709 L6.92920417,0.25432709 Z M16.4196726,1.09148711 L17.0064489,3.30625221 L9.45276734,3.30625221 C8.78945504,3.30625221 8.25370279,3.83821971 8.25370279,4.49947015 C8.25370279,4.65206641 8.30472681,4.80466266 8.35575083,4.93182621 L10.932464,11.5697633 C11.1110481,12.0275521 11.5447523,12.3327446 12.0294805,12.3327446 C12.3866487,12.3327446 12.6672808,12.2564465 12.947913,11.9258213 L18.7901637,5.4150477 C18.9687478,5.211586 19.0963078,4.9063935 19.0963078,4.60120099 C19.0963078,4.49947015 19.0707958,4.3468739 19.0452838,4.27057577 L18.0503154,0.63581773 C17.9482673,0.25432709 17.6187372,0 17.236057,0 C16.7258167,0 16.3941606,0.45778877 16.3941606,0.86259272 C16.3941606,0.93889085 16.3941606,1.01518898 16.4196726,1.09148711 Z M12.1933498,10.5 L9.4196726,4.5 L18.4196726,4.5 L12.1933498,10.5 Z M4.49912774,16 C2.00794728,16 0,13.9711184 0,11.4991277 C0,9.0079473 2.00794728,7 4.49912774,7 C6.97111843,7 9,9.0079473 9,11.4991277 C9,13.9711184 6.97111843,16 4.49912774,16 Z M4.49900822,8 C2.57098328,8 1,9.56536038 1,11.4990408 C1,13.4346396 2.57098328,15 4.49900822,15 C6.42901672,15 8,13.4346396 8,11.4990408 C8,9.56536038 6.42901672,8 4.49900822,8 Z M21.4991277,16 C19.0079473,16 17,13.9711184 17,11.4991277 C17,9.0079473 19.0079473,7 21.4991277,7 C23.9711184,7 26,9.0079473 26,11.4991277 C26,13.9711184 23.9711184,16 21.4991277,16 Z M21.4990081,8 C19.5709832,8 18,9.56536038 18,11.4990408 C18,13.4346396 19.5709832,15 21.4990081,15 C23.4290168,15 25,13.4346396 25,11.4990408 C25,9.56536038 23.4290168,8 21.4990081,8 Z" id="Fill-1-Copy"></path>
        </g>
    </g>
</svg>
