<?xml version="1.0" encoding="UTF-8"?>
<svg width="26px" height="26px" viewBox="0 0 26 26" version="1.1" xmlns="http://www.w3.org/2000/svg" xmlns:xlink="http://www.w3.org/1999/xlink">
    <defs>
        <path d="M7.67089607,16.8 C5.23149861,15.3301234 3.6,12.6555902 3.6,9.6 C3.6,4.9608081 7.3608081,1.2 12,1.2 C16.6391919,1.2 20.4,4.9608081 20.4,9.6 C20.4,12.6555902 18.7685014,15.3301234 16.3291039,16.8 L7.67089607,16.8 Z M15.6,20.4 L8.4,20.4 L8.4,18 L15.6,18 L15.6,20.4 Z M15.6,21.6 L15.6,22 C15.6,23.1045695 14.7045695,24 13.6,24 L10.4,24 C9.2954305,24 8.4,23.1045695 8.4,22 L8.4,21.6 L15.6,21.6 Z M11.4494172,3.02267168 C8.28693429,3.28417351 5.75227639,5.77571752 5.43369324,8.92941239 C5.40038799,9.25910528 5.64065764,9.55337342 5.97035053,9.58667867 C6.30004342,9.61998392 6.59431155,9.37971427 6.62761681,9.05002138 C6.88808838,6.47158038 8.96255186,4.43240299 11.5483062,4.21859013 C11.87855,4.19128268 12.1241284,3.90143015 12.0968209,3.57118639 C12.0695135,3.24094263 11.7796609,2.99536422 11.4494172,3.02267168 Z" id="path-1"></path>
    </defs>
    <g id="category" stroke="none" stroke-width="1" fill="none" fill-rule="evenodd">
        <g id="ico/interest" transform="translate(1.000000, 1.000000)">
            <mask id="mask-2" fill="white">
                <use xlink:href="#path-1"></use>
            </mask>
            <use id="Combined-Shape" fill="#FFFFFF" fill-rule="evenodd" xlink:href="#path-1"></use>
            <g id="color/blue" mask="url(#mask-2)" fill="#191919" fill-rule="evenodd">
                <rect id="Rectangle-3" x="0" y="0" width="24" height="24"></rect>
            </g>
        </g>
    </g>
</svg>
