<?xml version="1.0" encoding="UTF-8"?>
<svg width="20px" height="20px" viewBox="0 0 20 20" version="1.1" xmlns="http://www.w3.org/2000/svg" xmlns:xlink="http://www.w3.org/1999/xlink">
    <g id="calendar" stroke="none" stroke-width="1" fill="none" fill-rule="evenodd">
      <path fill="#00a8d6" d="M19,5 L0,5 L0,4 C-1.3527075e-16,2.8954305 0.8954305,2 2,2 L17,2 C18.1045695,2 19,2.8954305 19,4 L19,5 Z M19,6 L19,16 C19,17.1045695 18.1045695,18 17,18 L2,18 C0.8954305,18 1.3527075e-16,17.1045695 0,16 L0,6 L19,6 Z M6,8 L6,10 L9,10 L9,8 L6,8 Z M10,8 L10,10 L13,10 L13,8 L10,8 Z M14,8 L14,10 L17,10 L17,8 L14,8 Z M2,11 L2,13 L5,13 L5,11 L2,11 Z M6,11 L6,13 L9,13 L9,11 L6,11 Z M10,11 L10,13 L13,13 L13,11 L10,11 Z M14,11 L14,13 L17,13 L17,11 L14,11 Z M2,14 L2,16 L5,16 L5,14 L2,14 Z M6,14 L6,16 L9,16 L9,14 L6,14 Z M10,14 L10,16 L13,16 L13,14 L10,14 Z" id="path-1"></path>
    </g>
</svg>
