<?xml version="1.0" encoding="UTF-8"?>
<svg width="24px" height="24px" viewBox="0 0 24 24" version="1.1" xmlns="http://www.w3.org/2000/svg" xmlns:xlink="http://www.w3.org/1999/xlink">
    <g id="callin" stroke="none" stroke-width="1" fill="none" fill-rule="evenodd">
      <path fill="#00a8d6" d="M17.3184112,5.22900678 L20.1961867,2.3512313 L23.0295985,5.18464312 L20.1714189,8.04282273 L21.797028,9.6461008 L15.7027366,9.6461008 L15.7027366,3.63552665 L17.3184112,5.22900678 Z M17.7159665,21.7981319 C16.7520199,21.7813062 14.994853,21.1520504 13.1858314,20.2344253 C9.64298177,18.440845 3.51105697,11.3669637 2.6493963,8.10511165 C2.12167397,6.62954317 1.91823128,5.51874432 2.03215446,4.89330828 C2.05284293,4.7794442 2.10278859,4.68167409 2.35937854,4.3803406 C2.77809002,3.88861521 3.56266376,3.14450094 4.82132102,2.07873633 C5.28695927,1.73567872 5.95328778,1.67180459 6.43987279,2.1115668 C6.69327287,2.33942435 7.14728344,2.94310282 7.70549806,3.77523379 C8.08272899,4.33757222 8.43338193,4.88956965 8.75603782,5.41234962 C9.12043871,6.04189014 9.32910985,6.85467667 8.99428871,7.4072651 C8.76073795,7.79165068 8.36164227,8.54207068 7.91453958,9.41307525 L7.79045186,9.6548116 L7.93978783,9.88125585 C9.20693012,11.8026755 10.9727449,13.8874923 13.1413538,15.5740259 L13.3703367,15.7521066 L15.4079169,14.6797965 C15.7848208,14.5232787 16.3560384,14.4560395 17.033921,14.7181192 L17.1332945,14.7749065 L20.6231621,17.2723367 C20.8226158,17.4470761 21.0755532,17.8278906 21.0974614,18.2492381 C21.1128157,18.5497567 21.0167982,18.8520808 20.7460654,19.1488006 C20.6272648,19.2775829 20.512322,19.4107869 20.2399319,19.7319362 C19.054223,21.1185624 18.5206886,21.6346972 18.101297,21.7572253 C18.0021147,21.786091 17.87156,21.8008478 17.7159665,21.7981319 Z" id="path-1"></path>
    </g>
</svg>
