<?xml version="1.0" encoding="UTF-8"?>
<svg width="20px" height="20px" viewBox="0 0 20 20" version="1.1" xmlns="http://www.w3.org/2000/svg" xmlns:xlink="http://www.w3.org/1999/xlink">
    <!-- Generator: Sketch 55.1 (78136) - https://sketchapp.com -->
    <title>ico/foto</title>
    <desc>Created with Sketch.</desc>
    <defs>
        <path d="M4.76388889,5 L5.46663336,2.40525119 C5.58469023,1.96934889 5.98025344,1.66666667 6.43185973,1.66666667 L13.5681403,1.66666667 C14.0197466,1.66666667 14.4153098,1.96934889 14.5333666,2.40525119 L15.2361111,5 L19,5 C19.5522847,5 20,5.44771525 20,6 L20,16 C20,16.5522847 19.5522847,17 19,17 L1,17 C0.44771525,17 6.76353751e-17,16.5522847 0,16 L0,6 C-6.76353751e-17,5.44771525 0.44771525,5 1,5 L4.76388889,5 Z M10,15.8333333 C12.7614237,15.8333333 15,13.5947571 15,10.8333333 C15,8.07190958 12.7614237,5.83333333 10,5.83333333 C7.23857625,5.83333333 5,8.07190958 5,10.8333333 C5,13.5947571 7.23857625,15.8333333 10,15.8333333 Z M10,14.1666667 C8.15905083,14.1666667 6.66666667,12.6742825 6.66666667,10.8333333 C6.66666667,8.99238417 8.15905083,7.5 10,7.5 C11.8409492,7.5 13.3333333,8.99238417 13.3333333,10.8333333 C13.3333333,12.6742825 11.8409492,14.1666667 10,14.1666667 Z" id="path-1"></path>
    </defs>
    <g id="ico/foto" stroke="none" stroke-width="1" fill="none" fill-rule="evenodd">
        <mask id="mask-2" fill="white">
            <use xlink:href="#path-1"></use>
        </mask>
        <use id="Combined-Shape" fill="#191919" xlink:href="#path-1"></use>
        <g id="color/blue" mask="url(#mask-2)" fill="#191919">
            <rect id="Rectangle-3" x="0" y="0" width="20" height="20"></rect>
        </g>
    </g>
</svg>