<?xml version="1.0" encoding="UTF-8"?>
<svg width="48px" height="48px" viewBox="0 0 48 48" version="1.1" xmlns="http://www.w3.org/2000/svg" xmlns:xlink="http://www.w3.org/1999/xlink">
    <!-- Generator: Sketch 55.2 (78181) - https://sketchapp.com -->
    <title>illu/kategorie/auto-zweirad</title>
    <desc>Created with Sketch.</desc>
    <g id="illu/kategorie/auto-zweirad" stroke="none" stroke-width="1" fill="none" fill-rule="evenodd">
        <path d="M12.6708994,29.9216403 L5.11331593,29.9216403 L5.11331593,31.9117677 C5.11331593,32.4626717 4.66671996,32.9092677 4.11581593,32.9092677 L2.02016319,32.9092677 C1.46925915,32.9092677 1.02266319,32.4626717 1.02266319,31.9117677 L1.02266319,28.9264731 C0.385743994,28.2821958 0,27.3857568 0,26.4217884 L0,21.4347435 C0,20.348838 0.505724485,19.3480893 1.30982594,18.7044983 L2.53411196,13.33952 C2.84604984,11.9725683 4.09108111,11 5.52904367,11 L19.0549772,11 C20.4929398,11 21.7379711,11.9725683 22.0499089,13.33952 L23.2713149,18.6918776 C24.0813914,19.3340702 24.5840209,20.339546 24.5840209,21.4347435 L24.5840209,24.4440673 C23.9290828,24.183647 23.2428152,23.9925649 22.5386945,23.8806651 L22.5386945,21.4347435 C22.5386945,20.6319101 21.9508032,19.9628822 21.1865444,19.9628822 L3.39747649,19.9628822 C2.66133427,19.9628822 2.04532637,20.6319101 2.04532637,21.4347435 L2.04532637,26.4217884 C2.04532637,27.2580732 2.66133427,27.9298887 3.39747649,27.9298887 L13.5645703,27.9298887 C13.1855724,28.5473141 12.8834131,29.2154543 12.6708994,29.9216403 Z M20.0532878,13.7715916 C19.9493085,13.315941 19.5342981,12.9917516 19.0549772,12.9917516 L5.52904367,12.9917516 C5.04972281,12.9917516 4.63471239,13.315941 4.5307331,13.7715916 L3.57239987,17.9711306 L21.011621,17.9711306 L20.0532878,13.7715916 Z M14.357389,32.3710284 C14.357389,28.7088638 17.3603705,25.7570771 21.0860504,25.7570771 C24.7830311,25.7570771 27.8173208,28.7088638 27.8173208,32.3710284 C27.8173208,36.004983 24.7830311,38.9875442 21.0860504,38.9875442 C17.3603705,38.9875442 14.357389,36.004983 14.357389,32.3710284 Z M34.611848,19.2768852 C34.5813101,19.1844112 34.5813105,19.0919371 34.5813105,18.9994631 C34.5813105,18.5088369 34.9783023,17.9539926 35.5890598,17.9539926 C36.047128,17.9539926 36.4415755,18.2622394 36.5637271,18.7246096 L37.7547051,23.1299706 C37.785243,23.2224446 37.8157801,23.4073927 37.8157801,23.5306914 C37.8157801,23.9005876 37.6630907,24.2704838 37.4493255,24.5170813 L31.3539023,32.4082001 C31.0179856,32.808921 30.6820689,32.901395 30.2545386,32.901395 C29.6743189,32.901395 29.1551748,32.5314988 28.9414096,31.9766545 L25.8570837,23.9314123 C25.796008,23.7772889 25.7349319,23.5923408 25.7349319,23.4073927 C25.7349319,22.6059509 26.3762279,21.9612013 27.1702127,21.9612013 L35.3142197,21.9612013 L34.611848,19.2768852 Z M30.4988413,30.373771 L35.3752946,23.9005876 L27.9947352,23.9005876 L30.4988413,30.373771 Z M41.3093562,39.0046822 C37.7058865,39.0046822 34.7767951,36.0172567 34.7767951,32.3773754 C34.7767951,28.7092381 37.7058865,25.7526373 41.3093562,25.7526373 C44.9459085,25.7526373 47.875,28.7092381 47.875,32.3773754 C47.875,36.0172567 44.9459085,39.0046822 41.3093562,39.0046822 Z M41.3093562,27.6920236 C38.835788,27.6920236 36.8202881,29.788102 36.8202881,32.3773754 C36.8202881,34.9692175 38.835788,37.0652959 41.3093562,37.0652959 C43.7854691,37.0652959 45.8009691,34.9692175 45.8009691,32.3773754 C45.8009691,29.788102 43.7854691,27.6920236 41.3093562,27.6920236 Z M21.0860504,27.6933056 C18.5500834,27.6933056 16.48374,29.785971 16.48374,32.3710284 C16.48374,34.9586502 18.5500834,37.0513157 21.0860504,37.0513157 C23.6246264,37.0513157 25.6909699,34.9586502 25.6909699,32.3710284 C25.6909699,29.785971 23.6246264,27.6933056 21.0860504,27.6933056 Z M4.05917674,22.0511563 L7.28048533,22.3648493 C7.79152587,22.4146148 8.18130548,22.8441951 8.18130548,23.3576531 L8.18130548,23.4484476 C8.18130548,23.9474962 7.77674658,24.3520551 7.27769789,24.3520551 C7.24845305,24.3520551 7.21922545,24.3506354 7.1901183,24.3478009 L3.96880971,24.0341079 C3.45776917,23.9843424 3.06798956,23.5547621 3.06798956,23.0413041 L3.06798956,22.9505096 C3.06798956,22.451461 3.47254846,22.0469021 3.97159715,22.0469021 C4.00084199,22.0469021 4.03006959,22.0483218 4.05917674,22.0511563 Z M17.3035356,22.3648493 L20.5248441,22.0511563 C21.0215433,22.0027874 21.4634082,22.3662309 21.5117771,22.8629301 C21.5146116,22.8920372 21.5160313,22.9212648 21.5160313,22.9505096 L21.5160313,23.0413041 C21.5160313,23.5547621 21.1262517,23.9843424 20.6152112,24.0341079 L17.3939026,24.3478009 C16.8972034,24.3961698 16.4553385,24.0327263 16.4069696,23.5360271 C16.4041351,23.50692 16.4027154,23.4776924 16.4027154,23.4484476 L16.4027154,23.3576531 C16.4027154,22.8441951 16.792495,22.4146148 17.3035356,22.3648493 Z" id="illu" fill="#191919"></path>
    </g>
</svg>