<?xml version="1.0" encoding="UTF-8"?>
<svg width="20px" height="20px" viewBox="0 0 20 20" version="1.1" xmlns="http://www.w3.org/2000/svg" xmlns:xlink="http://www.w3.org/1999/xlink">
    <g id="card" stroke="none" stroke-width="1" fill="none" fill-rule="evenodd">
      <path fill="#00a8d6" d="M2,3 L18,3 C19.1045695,3 20,3.8954305 20,5 L20,15 C20,16.1045695 19.1045695,17 18,17 L2,17 C0.8954305,17 1.3527075e-16,16.1045695 0,15 L0,5 C-1.3527075e-16,3.8954305 0.8954305,3 2,3 Z M2.5,10 C2.22385763,10 2,10.2238576 2,10.5 L2,12.5 C2,12.7761424 2.22385763,13 2.5,13 L6.5,13 C6.77614237,13 7,12.7761424 7,12.5 L7,10.5 C7,10.2238576 6.77614237,10 6.5,10 L2.5,10 Z" id="path-1"></path>
    </g>
</svg>
