
<svg width="31px" height="29px" viewBox="0 0 31 29" version="1.1" xmlns="http://www.w3.org/2000/svg" xmlns:xlink="http://www.w3.org/1999/xlink">
    <g id="Page-1" stroke="none" stroke-width="1" fill="none" fill-rule="evenodd">
        <g id="cart.jsx" fill-rule="nonzero">
            <path fill="#191919" d="M6.8825895,0.8479428 L7.7167277,6.2698413 L30.3846154,6.2698413 L28.3447385,19.5290413 C28.2696874,20.016873 27.8499378,20.3769841 27.3563668,20.3769841 L7.1277602,20.3769841 C6.6341891,20.3769841 6.2144396,20.016873 6.1393885,19.5290413 L3.6172161,3.1349206 L0,3.1349206 L0,0 L5.8942178,0 C6.3877889,0 6.8075385,0.3601111 6.8825895,0.8479428 Z M7.8373016,28.2142857 C6.1059327,28.2142857 4.702381,26.8107339 4.702381,25.0793651 C4.702381,23.3479962 6.1059327,21.9444444 7.8373016,21.9444444 C9.5686704,21.9444444 10.9722222,23.3479962 10.9722222,25.0793651 C10.9722222,26.8107339 9.5686704,28.2142857 7.8373016,28.2142857 Z M26.6468254,28.2142857 C24.9154565,28.2142857 23.5119048,26.8107339 23.5119048,25.0793651 C23.5119048,23.3479962 24.9154565,21.9444444 26.6468254,21.9444444 C28.3781943,21.9444444 29.781746,23.3479962 29.781746,25.0793651 C29.781746,26.8107339 28.3781943,28.2142857 26.6468254,28.2142857 Z" id="Combined-Shape"></path>
        </g>
    </g>
</svg>
