<?xml version="1.0" encoding="UTF-8"?>
<svg width="26px" height="26px" viewBox="0 0 26 26" version="1.1" xmlns="http://www.w3.org/2000/svg" xmlns:xlink="http://www.w3.org/1999/xlink">
    <g id="category" stroke="none" stroke-width="1" fill="none" fill-rule="evenodd">
        <path d="M17.1556207,20 C17.9931206,19.0044875 18.5,17.7050468 18.5,16.2834891 C18.5,13.1502433 16.0375661,10.6102457 13,10.6102457 C9.96243388,10.6102457 7.5,13.1502433 7.5,16.2834891 C7.5,17.7050468 8.00687944,19.0044875 8.84437926,20 C3.93588237,18.9285027 2,15.9347483 2,13.1889927 C2,9.77090642 3.6862915,7 7,7 C9.08697075,7 11,8.73519229 13,8.73519229 C15,8.73519229 16.9130292,7 19,7 C22.3137085,7 24,9.77090642 24,13.1889927 C24,15.9347483 22.0641176,18.9285027 17.1556207,20 Z M13,19.8937348 C11.0670034,19.8937348 9.5,18.2773727 9.5,16.2834891 C9.5,14.2896054 11.0670034,12.6732433 13,12.6732433 C14.9329966,12.6732433 16.5,14.2896054 16.5,16.2834891 C16.5,18.2773727 14.9329966,19.8937348 13,19.8937348 Z" id="Combined-Shape" fill="#191919"></path>
    </g>
</svg>
