<?xml version="1.0" encoding="UTF-8"?>
<svg width="20px" height="20px" viewBox="0 0 20 20" version="1.1" xmlns="http://www.w3.org/2000/svg" xmlns:xlink="http://www.w3.org/1999/xlink">
    <g id="future" stroke="none" stroke-width="1" fill="none" fill-rule="evenodd">
      <path fill="#191919" d="M16.1950099,8.6343497 C15.7701056,5.31525863 12.9346269,2.75 9.5,2.75 C5.77207794,2.75 2.75,5.77207794 2.75,9.5 C2.75,13.2279221 5.77207794,16.25 9.5,16.25 L10.25,16.25 L10.25,17.75 L9.5,17.75 C4.94365081,17.75 1.25,14.0563492 1.25,9.5 C1.25,4.94365081 4.94365081,1.25 9.5,1.25 C13.7950816,1.25 17.3235649,4.5321972 17.7140991,8.7252407 L18.9696699,7.46966991 L20.0303301,8.53033009 L17,11.5606602 L13.9696699,8.53033009 L15.0303301,7.46966991 L16.1950099,8.6343497 Z M13.5303301,12.4696699 L12.4696699,13.5303301 L9.25,10.3106602 L9.25,4 L10.75,4 L10.75,9.68933983 L13.5303301,12.4696699 Z" id="path-1"></path>
    </g>
</svg>
