
<svg width="13px" height="12px" viewBox="0 0 13 12" version="1.1" xmlns="http://www.w3.org/2000/svg" xmlns:xlink="http://www.w3.org/1999/xlink">
    <g id="Page-1" stroke="none" stroke-width="1" fill="none" fill-rule="evenodd">
        <path fill="#00a8d6" d="M2.94150556,9.6 C3.80843283,10.3658252 4.9272598,10.8 6.116667,10.8 C8.7676338,10.8 10.916667,8.6509668 10.916667,6 C10.916667,3.3490332 8.7676338,1.2 6.116667,1.2 C3.4657002,1.2 1.316667,3.3490332 1.316667,6 L0.116667,6 C0.116667,2.6862915 2.8029585,0 6.116667,0 C9.4303755,0 12.116667,2.6862915 12.116667,6 C12.116667,9.3137085 9.4303755,12 6.116667,12 C4.68924067,12 3.34098366,11.4984124 2.27665235,10.6106134 L2.27665235,11.4 L1.07665235,11.4 L1.07665235,8.4 L4.07665235,8.4 L4.07665235,9.6 L2.94150556,9.6 Z M8.34093107,7.37573593 L7.49240293,8.22426407 L5.516667,6.24852814 L5.516667,2.4 L6.716667,2.4 L6.716667,5.75147186 L8.34093107,7.37573593 Z" id="path-1"></path>
    </g>
</svg>
