
<svg width="16px" height="16px" viewBox="0 0 16 16" version="1.1" xmlns="http://www.w3.org/2000/svg" xmlns:xlink="http://www.w3.org/1999/xlink">
        <g id="close.jsx" transform="translate(-7.000000, -7.000000)" fill-rule="nonzero">
            <path fill="#00A8D6" d="M16,13.8578644 L24,13.8578644 C24.5522847,13.8578644 25,14.3055796 25,14.8578644 C25,15.4101491 24.5522847,15.8578644 24,15.8578644 L16,15.8578644 L16,23.8578644 C16,24.4101491 15.5522847,24.8578644 15,24.8578644 C14.4477152,24.8578644 14,24.4101491 14,23.8578644 L14,15.8578644 L6,15.8578644 C5.44771525,15.8578644 5,15.4101491 5,14.8578644 C5,14.3055796 5.44771525,13.8578644 6,13.8578644 L14,13.8578644 L14,5.85786438 C14,5.30557963 14.4477152,4.85786438 15,4.85786438 C15.5522847,4.85786438 16,5.30557963 16,5.85786438 L16,13.8578644 Z" id="path-1" transform="translate(15.000000, 14.857864) rotate(45.000000) translate(-15.000000, -14.857864) "></path>
        </g>
</svg>
