<?xml version="1.0" encoding="UTF-8"?>
<svg width="48px" height="48px" viewBox="0 0 48 48" version="1.1" xmlns="http://www.w3.org/2000/svg" xmlns:xlink="http://www.w3.org/1999/xlink">
    <!-- Generator: Sketch 55.2 (78181) - https://sketchapp.com -->
    <title>illu/kategorie/mode-accessoires</title>
    <desc>Created with Sketch.</desc>
    <g id="illu/kategorie/mode-accessoires" stroke="none" stroke-width="1" fill="none" fill-rule="evenodd">
        <path d="M20,30 L18,30 L18,26 C18,24.8954305 18.8954305,24 20,24 L40,24 C41.1045695,24 42,24.8954305 42,26 L42,30 L40,30 L40,37 C40,38.1045695 39.1045695,39 38,39 L22,39 C20.8954305,39 20,38.1045695 20,37 L20,30 Z M38,30 L22,30 L22,37 L38,37 L38,30 Z M27,22 L25,22 L25,16.7192236 L31,18.2192236 L31,15.618034 L25.763932,13 L23.1445516,13 C22.6853265,15.1431684 20.780311,16.75 18.5,16.75 C16.219689,16.75 14.3146735,15.1431684 13.8554484,13 L11.236068,13 L6,15.618034 L6,18.2192236 L12,16.7192236 L12,32 L18,32 L18,34 L12,34 C10.8954305,34 10,33.1045695 10,32 L10,19.2807764 L5.24253563,20.4701425 C4.70674072,20.6040912 4.16380623,20.2783305 4.0298575,19.7425356 C4.01002735,19.663215 4,19.5817618 4,19.5 L4,15 C4,14.6212279 4.21400238,14.2749648 4.5527864,14.1055728 L10.763932,11 L15.75,11 L15.75,12 C15.75,13.5187831 16.9812169,14.75 18.5,14.75 C20.0187831,14.75 21.25,13.5187831 21.25,12 L21.25,11 L26.236068,11 L32.4472136,14.1055728 C32.7859976,14.2749648 33,14.6212279 33,15 L33,19.5 C33,20.0522847 32.5522847,20.5 32,20.5 C31.9182382,20.5 31.836785,20.4899727 31.7574644,20.4701425 L27,19.2807764 L27,22 Z M20,26 L20,28 L40,28 L40,26 L20,26 Z" id="illu" fill="#191919"></path>
    </g>
</svg>