<?xml version="1.0" encoding="UTF-8"?>
<svg width="42px" height="36px" viewBox="0 0 42 36" version="1.1" xmlns="http://www.w3.org/2000/svg" xmlns:xlink="http://www.w3.org/1999/xlink">
    <!-- Generator: Sketch 54.1 (76490) - https://sketchapp.com -->
    <title>weather/cloudy</title>
    <desc>Created with Sketch.</desc>
    <defs>
        <linearGradient x1="13.887881%" y1="24.7159735%" x2="89.7360305%" y2="74.8773649%" id="linearGradient-1">
            <stop stop-color="#C1272D" offset="0%"></stop>
            <stop stop-color="#F06300" offset="100%"></stop>
        </linearGradient>
        <linearGradient x1="18.7228261%" y1="30.2858112%" x2="87.9347826%" y2="69.9374209%" id="linearGradient-2">
            <stop stop-color="#005AAB" offset="0%"></stop>
            <stop stop-color="#00BAE0" offset="100%"></stop>
        </linearGradient>
    </defs>
    <g id="Page-1" stroke="none" stroke-width="1" fill="none" fill-rule="evenodd" opacity="0.800000012">
        <g id="Tablet-Teaser-Finanzwetter" transform="translate(-595.000000, -202.000000)">
            <g id="Group-10" transform="translate(587.000000, 189.000000)">
                <g id="weather/cloudy" transform="translate(10.000000, 10.000000)">
                    <g id="Group" transform="translate(-2.000000, 3.000000)">
                        <path d="M36.0102257,18.2399033 C35.2376148,17.8362633 34.405015,17.5321698 33.5296277,17.3447606 C33.610947,14.3901524 32.1229923,11.47937 29.4085627,9.89817241 C25.6125623,7.686943 20.7839563,8.87164184 18.4098243,12.5132351 C17.937924,12.4547553 17.4583959,12.4248332 16.9733022,12.4248332 C16.4804527,12.4248332 15.99298,12.4556722 15.5130447,12.5161732 C15.6476805,12.2231697 15.7964153,11.9337636 15.9594763,11.6488068 C18.9257864,6.46504116 25.526429,4.68755762 30.6742848,7.68626388 C34.4735131,9.89937366 36.4354246,14.1046359 36.0102257,18.2399033 Z M40.9859985,13.4087969 L38.4648732,14.0862789 C38.2046757,14.1562991 37.9404908,14.1147196 37.7222457,13.9875884 C37.5051315,13.861116 37.3362186,13.6504093 37.2662215,13.3880456 C37.1257477,12.8615212 37.4351488,12.3208282 37.9573259,12.1803082 L40.4773204,11.5021675 C40.9994975,11.3616476 41.5366291,11.6745351 41.6771029,12.2010596 C41.8164459,12.7269253 41.5070448,13.2676182 40.9859985,13.4087969 Z M33.927645,3.30615705 L32.6619229,5.51806559 C32.3999185,5.97593065 31.8182507,6.13256764 31.3635575,5.86770173 C30.9088642,5.60283581 30.7524791,5.01627153 31.0144836,4.55840647 L32.2802056,2.34649793 C32.5422101,1.88863286 33.1238778,1.73199587 33.5785711,1.99686179 C34.0332644,2.26172771 34.1896495,2.84829198 33.927645,3.30615705 Z M22.6334475,3.27453096 C22.773836,3.80100571 22.4644349,4.34169868 21.942343,4.48226831 C21.6810576,4.5516547 21.4169282,4.51010761 21.1998698,4.38366771 C20.9828114,4.2572278 20.8139545,4.04655362 20.7428693,3.78355613 L20.0653629,1.24282132 C19.9249744,0.716346564 20.2343755,0.175653595 20.7564674,0.035083968 C21.2785592,-0.105485659 21.8155526,0.207321397 21.9559411,0.733796149 L22.6334475,3.27453096 Z M14.121488,9.11804845 C14.5761812,9.38291437 14.7325663,9.96947864 14.4705619,10.4273437 C14.2085574,10.8852088 13.6268897,11.0418458 13.1721964,10.7769799 L10.9756106,9.49743436 C10.5209173,9.23256844 10.3645322,8.64600417 10.6265367,8.1881391 C10.8885412,7.73027403 11.4702089,7.57363704 11.9249022,7.83850296 L14.121488,9.11804845 Z" id="Combined-Shape" fill="url(#linearGradient-1)"></path>
                        <path d="M31.6019968,20.1333187 C30.3366264,20.1333187 29.1063084,20.4947186 28.0336961,21.1788673 L25.8053997,22.6001504 L24.6661471,20.1991918 C23.2735286,17.2642681 20.369787,15.4122222 17.1022008,15.4122222 C14.2807684,15.4122222 11.7196557,16.7887631 10.1371213,19.1500525 L9.51507328,20.0782063 L8.41042007,20.1812825 C4.94440413,20.5046995 2.34591781,23.3499831 2.34591781,26.8376725 C2.34591781,30.5271294 5.35592519,33.5420262 9.06057855,33.5420262 L31.6019968,33.5420262 C35.3066502,33.5420262 38.3166575,30.5271294 38.3166575,26.8376725 C38.3166575,23.1482156 35.3066502,20.1333187 31.6019968,20.1333187 Z M26.7814883,19.1743499 L28.6794188,18.2548392 C29.6125701,17.9313564 30.5980192,17.7628548 31.6019968,17.7628548 C36.5979124,17.7628548 40.6625753,21.8345992 40.6625753,26.8376725 C40.6625753,31.8407458 36.5979124,35.9124901 31.6019968,35.9124901 L9.06057855,35.9124901 C4.06466292,35.9124901 2.48689958e-14,31.8407458 2.48689958e-14,26.8376725 C2.48689958e-14,22.0972404 3.54960364,18.2543 8.19470489,17.8208614 C10.2086983,14.8157949 13.4935966,13.0417582 17.1022008,13.0417582 C20.4895945,13.0417582 23.5549212,14.6040646 25.5429148,17.1611497 L26.7814883,19.1743499 Z" id="Fill-1-Copy-9" fill="url(#linearGradient-2)" fill-rule="nonzero"></path>
                    </g>
                </g>
            </g>
        </g>
    </g>
</svg>