<?xml version="1.0" encoding="UTF-8"?>
<svg width="20px" height="19px" viewBox="0 0 20 19" version="1.1" xmlns="http://www.w3.org/2000/svg" xmlns:xlink="http://www.w3.org/1999/xlink">
    <g id="rund/bargeld" transform="translate(-6.000000, -6.000000)">
      <path fill="#00A8D6" d="M23.9993831,13.1003878 C25.2369334,14.3629796 26,16.0923779 26,18 C26,21.8659932 22.8659932,25 19,25 C18.3955219,25 17.8089392,24.9233806 17.2494339,24.7793237 C19.1444436,23.5889836 20.505036,21.6261009 20.889557,19.3323298 C22.7570412,17.8882197 23.9681978,15.6363577 23.9993831,13.1003878 Z M8.00061694,13.1003878 C8.05438037,17.4724042 11.6152331,21 16,21 C17.3258951,21 18.5764533,20.6774448 19.6774862,20.1065228 C18.7834901,22.9431286 16.1319491,25 13,25 C9.13400675,25 6,21.8659932 6,18 C6,16.0923779 6.76306657,14.3629796 8.00061694,13.1003878 Z M16,20 C12.1340068,20 9,16.8659932 9,13 C9,9.13400675 12.1340068,6 16,6 C19.8659932,6 23,9.13400675 23,13 C23,16.8659932 19.8659932,20 16,20 Z M11.6999998,13.4365782 L11.6999998,14.4749263 L12.8209438,14.4749263 C13.3873154,16.1032448 14.8858405,17 16.4787609,17 C17.4227137,17 18.2250736,16.6696165 18.7796458,16.1976401 L18.1188789,15.1828909 C17.7176989,15.560472 17.1395278,15.7492625 16.4787609,15.7492625 C15.5584069,15.7492625 14.7324482,15.3362832 14.29587,14.4749263 L16.195575,14.4749263 L16.6793508,13.4365782 L14.0126842,13.4365782 C14.0008848,13.3539823 13.9890854,13.2123894 13.9890854,13 C13.9890854,12.8112094 14.0008848,12.6814159 14.0126842,12.5870206 L17.0333331,12.5870206 L17.5289084,11.560472 L14.2840706,11.560472 C14.7206488,10.6519174 15.5820057,10.2271386 16.4905603,10.2271386 C17.0687314,10.2271386 17.576106,10.3569322 17.9654865,10.640118 L18.5082594,9.54277286 C17.9772859,9.17699115 17.316519,9 16.4905603,9 C14.9094393,9 13.375516,9.90855457 12.8091444,11.560472 L11.6999998,11.560472 L11.6999998,12.5870206 L12.6085544,12.5870206 C12.596755,12.7050147 12.5849556,12.8230088 12.5849556,13.0117994 C12.5849556,13.1651917 12.596755,13.3303835 12.6085544,13.4365782 L11.6999998,13.4365782 Z" id="path-1"></path>
    </g>
</svg>
