<?xml version="1.0" encoding="UTF-8"?>
<svg width="20px" height="20px" viewBox="0 0 20 20" version="1.1" xmlns="http://www.w3.org/2000/svg" xmlns:xlink="http://www.w3.org/1999/xlink">
    <g id="communication" stroke="none" stroke-width="1" fill="none" fill-rule="evenodd">
      <path fill="#191919" d="M6,6 L6,10 C6,11.6568542 7.34314575,13 9,13 L13,13 L13,14 C13,15.1045695 12.1045695,16 11,16 L6,16 L3,19 L3,16 L2,16 C0.8954305,16 0,15.1045695 0,14 L0,8 C0,6.8954305 0.8954305,6 2,6 L6,6 Z M17,12 L17,15 L14,12 L9,12 C7.8954305,12 7,11.1045695 7,10 L7,4 C7,2.8954305 7.8954305,2 9,2 L18,2 C19.1045695,2 20,2.8954305 20,4 L20,10 C20,11.1045695 19.1045695,12 18,12 L17,12 Z" id="path-1"></path>
    </g>
</svg>
