<?xml version="1.0" encoding="UTF-8"?>
<svg width="31px" height="20px" viewBox="0 0 31 20" version="1.1" xmlns="http://www.w3.org/2000/svg" xmlns:xlink="http://www.w3.org/1999/xlink">
    <!-- Generator: Sketch 54.1 (76490) - https://sketchapp.com -->
    <title>Combined Shape</title>
    <desc>Created with Sketch.</desc>
    <g id="Symbols" stroke="none" stroke-width="1" fill="none" fill-rule="evenodd">
        <g id="tp/header/1024-test/default" transform="translate(-958.000000, -15.000000)" fill="#282828" fill-rule="nonzero">
            <path d="M978.248863,31.7289547 L979.73913,35 L975.408178,35 L975.339404,34.8384697 L975.268688,35 L971.913043,35 L973.74404,31.0914349 L973.523933,30.5744681 L964.299567,30.5744681 L962.415321,35 L958,35 L967.111874,15 L970.627257,15 L975.880561,26.530678 L978.838067,20.2173913 L981.509759,20.2173913 L988.434783,35 L985.143259,35 L983.711232,31.7289547 L978.248863,31.7289547 Z M977.790764,29.2547024 L982.621182,29.2547024 L980.205973,23.7190873 L977.790764,29.2547024 Z M965.733843,27.2269504 L972.089656,27.2269504 L968.91175,19.7375887 L965.733843,27.2269504 Z" id="Combined-Shape" transform="translate(973.217391, 25.000000) scale(-1, 1) translate(-973.217391, -25.000000) "></path>
        </g>
    </g>
</svg>