<?xml version="1.0" encoding="UTF-8"?>
<svg width="26px" height="26px" viewBox="0 0 26 26" version="1.1" xmlns="http://www.w3.org/2000/svg" xmlns:xlink="http://www.w3.org/1999/xlink">
    <g id="ico/plus-copy-24" transform="translate(3.000000, 3.000000)">
        <path fill="#191919" d="M3.73035285,9.29181013 C5.17446693,9.75403752 7.00977996,10 9,10 C13.1148734,10 16.5675579,8.94857178 17.2696472,7.10818987 C19.1755016,7.71820964 20.4,8.70490071 20.4,10 C20.4,12.2764287 16.6167922,13.6 12,13.6 C7.38320784,13.6 3.6,12.2764287 3.6,10 C3.6,9.75251596 3.6447143,9.51629389 3.73035285,9.29181013 Z M3.73035285,13.1081899 C4.43244208,14.9485718 7.88512663,16 12,16 C13.99022,16 15.8255331,15.7540375 17.2696472,15.2918101 C17.3552857,15.5162939 17.4,15.752516 17.4,16 C17.4,18.2764287 13.6167922,19.6 9,19.6 C4.38320784,19.6 0.6,18.2764287 0.6,16 C0.6,14.7049007 1.82449837,13.7182096 3.73035285,13.1081899 Z M9,7.6 C4.38320784,7.6 0.6,6.27642874 0.6,4 C0.6,1.72357126 4.38320784,0.4 9,0.4 C13.6167922,0.4 17.4,1.72357126 17.4,4 C17.4,6.27642874 13.6167922,7.6 9,7.6 Z" id="path-1"></path>
    </g>
</svg>
