<?xml version="1.0" encoding="UTF-8"?>
<svg width="26px" height="26px" viewBox="0 0 26 26" version="1.1" xmlns="http://www.w3.org/2000/svg" xmlns:xlink="http://www.w3.org/1999/xlink">
    <g id="category" stroke="none" stroke-width="1" fill="none" fill-rule="evenodd">
        <g id="Group" transform="translate(2.000000, 2.000000)" fill="#00a8d6" fill-rule="nonzero">
            <polygon id="Path" transform="translate(20.332388, 10.762898) rotate(45.000000) translate(-20.332388, -10.762898) " points="23.3323881 7.76289766 23.3323881 13.7628977 17.3323881 13.7628977"></polygon>
            <path d="M1.0658141e-14,10.8 L2.4,10.8 C2.4,15.4391919 6.1608081,19.2 10.8,19.2 C15.4391919,19.2 19.2,15.4391919 19.2,10.8 C19.2,6.1608081 15.4391919,2.4 10.8,2.4 C8.4916536,2.4 6.33497231,3.33401825 4.76155725,4.96070634 L3.03648862,3.29213264 C5.05753453,1.20265771 7.83451387,1.0658141e-14 10.8,1.0658141e-14 C16.7646753,1.0658141e-14 21.6,4.8353247 21.6,10.8 C21.6,16.7646753 16.7646753,21.6 10.8,21.6 C4.8353247,21.6 1.0658141e-14,16.7646753 1.0658141e-14,10.8 Z" id="Path" transform="translate(10.800000, 10.800000) rotate(180.000000) translate(-10.800000, -10.800000) "></path>
            <path d="M11.1919984,14.844996 C11.6000004,14.844996 12.0079963,14.7571635 12.4159984,14.581496 C12.8240004,14.4058284 13.3056623,14.1083314 13.8609984,13.688996 L14.7109984,15.575996 C14.2689962,15.9953314 13.7165017,16.3296614 13.0534984,16.578996 C12.3904951,16.8283305 11.7246684,16.952996 11.0559984,16.952996 C9.91132598,16.952996 8.9565022,16.5988328 8.19149837,15.890496 C7.42649455,15.1821591 6.91366634,14.1820024 6.65299837,12.889996 L5.15699837,12.889996 L5.15699837,11.325996 L6.46599837,11.325996 C6.45466498,11.2126621 6.44899837,11.0369972 6.44899837,10.798996 C6.44899837,10.5609948 6.45466498,10.3853299 6.46599837,10.271996 L5.15699837,10.271996 L5.15699837,8.70799597 L6.65299837,8.70799597 C6.91366634,7.41598951 7.42649455,6.41866615 8.19149837,5.71599597 C8.9565022,5.01332579 9.91132598,4.66199597 11.0559984,4.66199597 C11.7360018,4.66199597 12.4046618,4.78666139 13.0619984,5.03599597 C13.719335,5.28533055 14.2689962,5.61966054 14.7109984,6.03899597 L13.8609984,7.92599597 C13.3056623,7.50666054 12.8240004,7.20916351 12.4159984,7.03349597 C12.0079963,6.85782842 11.6000004,6.76999597 11.1919984,6.76999597 C10.6706624,6.76999597 10.2513333,6.92582774 9.93399837,7.23749597 C9.61666345,7.54916419 9.38433244,8.03932596 9.23699837,8.70799597 L11.7529984,8.70799597 L11.7529984,10.271996 L9.06699837,10.271996 L9.06699837,11.325996 L11.7529984,11.325996 L11.7529984,12.889996 L9.23699837,12.889996 C9.38433244,13.5699994 9.61666345,14.0658277 9.93399837,14.377496 C10.2513333,14.6891642 10.6706624,14.844996 11.1919984,14.844996 Z" id="€"></path>
        </g>
    </g>
</svg>
