<?xml version="1.0" encoding="UTF-8"?>
<svg width="22px" height="16px" viewBox="0 0 22 16" version="1.1" xmlns="http://www.w3.org/2000/svg" xmlns:xlink="http://www.w3.org/1999/xlink">
    <g id="dashboard" stroke="none" stroke-width="1" fill="none" fill-rule="evenodd">
            <rect id="Rectangle-3" fill="#00a8d6" x="0" y="0" width="22" height="16" rx="2"></rect>
            <path d="M3.5,14 C2.67157288,14 2,13.3284271 2,12.5 C2,11.6715729 2.67157288,11 3.5,11 C4.32842712,11 5,11.6715729 5,12.5 C5,13.3284271 4.32842712,14 3.5,14 Z M3.5,9.5 C2.67157288,9.5 2,8.82842712 2,8 C2,7.17157288 2.67157288,6.5 3.5,6.5 C4.32842712,6.5 5,7.17157288 5,8 C5,8.82842712 4.32842712,9.5 3.5,9.5 Z M3.5,5 C2.67157288,5 2,4.32842712 2,3.5 C2,2.67157288 2.67157288,2 3.5,2 C4.32842712,2 5,2.67157288 5,3.5 C5,4.32842712 4.32842712,5 3.5,5 Z" id="Combined-Shape-Copy" fill="#FFFFFF"></path>
    </g>
</svg>
