<?xml version="1.0" encoding="UTF-8"?>
<svg width="48px" height="48px" viewBox="0 0 48 48" version="1.1" xmlns="http://www.w3.org/2000/svg" xmlns:xlink="http://www.w3.org/1999/xlink">
    <!-- Generator: Sketch 55.2 (78181) - https://sketchapp.com -->
    <title>illu/kategorie/kueche-kochen</title>
    <desc>Created with Sketch.</desc>
    <g id="illu/kategorie/kueche-kochen" stroke="none" stroke-width="1" fill="none" fill-rule="evenodd">
        <path d="M38.999789,27.6784815 L38.999789,36 C38.999789,37.6568542 37.6566519,39 35.9998082,39 L18.9999169,39 C17.3430732,39 15.9999361,37.6568542 15.9999361,36 L15.9999361,27.7807764 L12.7574212,26.9701425 C12.2216297,26.8361938 11.8958711,26.2932593 12.0298189,25.7574644 C12.1637668,25.2216695 12.7066978,24.8959088 13.2424893,25.0298575 L15.9999361,25.7192236 L15.9999361,24 C15.9999361,23.4477153 16.4476485,23 16.9999361,23 L37.9997954,23 C38.5520766,23 38.999789,23.4477153 38.999789,24 L38.999789,25.6169287 L41.7572358,24.9275626 C42.2930272,24.7936139 42.8359583,25.1193745 42.9699061,25.6551695 C43.103854,26.1909644 42.7780954,26.7338989 42.2423039,26.8678476 L38.999789,27.6784815 Z M36.9998018,26.9186231 C36.9994856,26.9041348 36.9994873,26.8896843 36.9998018,26.8752799 L36.9998018,25 L17.9999233,25 L17.9999233,26.9775731 C18.0002378,26.9919792 18.0002395,27.0064298 17.9999233,27.020918 L17.9999233,36 C17.9999233,36.5522847 18.4476357,37 18.9999233,37 L35.9998082,37 C36.5520894,37 36.9998018,36.5522847 36.9998018,36 L36.9998018,26.9186234 Z M15.9999361,14 L15.9999361,11.9999936 C15.9999361,11.4477124 16.4476485,11 16.9999297,11 C17.5522109,11 17.9999233,11.4477124 17.9999233,11.9999936 L17.9999233,14 L26.9998593,14 C27.5521441,14 27.9998593,14.4477153 27.9998593,15 C27.9998593,15.5522847 27.5521441,16 26.9998593,16 L25.9998721,16 L25.9998721,22 L23.9998849,22 L23.9998849,16 L9.99997443,16 L9.99997443,33 C9.99997443,33.5522847 10.4476868,34 10.9999744,34 L14.9999425,34 L14.9999425,35 C14.9999425,35.3506354 15.0600963,35.6872211 15.1706471,36 L10.999968,36 C9.34312438,36 7.99998721,34.6568542 7.99998721,33 L7.99998721,16 L7,16 C6.44771525,16 6,15.5522847 6,15 C6,14.4477153 6.44771525,14 7,14 L15.9999361,14 Z" id="illu" fill="#191919"></path>
    </g>
</svg>