<?xml version="1.0" encoding="UTF-8"?>
<svg width="16px" height="17px" viewBox="0 0 16 17" version="1.1" xmlns="http://www.w3.org/2000/svg" xmlns:xlink="http://www.w3.org/1999/xlink">
    <g id="Page-1" stroke="none" stroke-width="1" fill="none" fill-rule="evenodd">
                <path fill="#00a8d6" d="M0.650134,7 C1.879731,8.2834079 4.718816,9 8,9 C11.281184,9 14.120269,8.2834079 15.349866,7 C15.767988,7.4364206 16,7.9383837 16,8.5 C16,10.7131946 12.396945,12 8,12 C3.603055,12 0,10.7131946 0,8.5 C0,7.9383837 0.232012,7.4364206 0.650134,7 Z M0.650134,12 C1.879731,13.2834079 4.718816,14 8,14 C11.281184,14 14.120269,13.2834079 15.349866,12 C15.767988,12.4364206 16,12.9383837 16,13.5 C16,15.7131946 12.396945,17 8,17 C3.603055,17 0,15.7131946 0,13.5 C0,12.9383837 0.232012,12.4364206 0.650134,12 Z M8,7 C3.603055,7 0,5.7131946 0,3.5 C0,1.2868054 3.603055,0 8,0 C12.396945,0 16,1.2868054 16,3.5 C16,5.7131946 12.396945,7 8,7 Z" id="Combined-Shape"></path>
    </g>
</svg>
