<?xml version="1.0" encoding="UTF-8"?>
<svg width="48px" height="48px" viewBox="0 0 48 48" version="1.1" xmlns="http://www.w3.org/2000/svg" xmlns:xlink="http://www.w3.org/1999/xlink">
    <!-- Generator: Sketch 54.1 (76490) - https://sketchapp.com -->
    <title>doubleStackOfCoins</title>
    <desc>Created with Sketch.</desc>
    <g id="doubleStackOfCoins" stroke="none" stroke-width="1" fill="none" fill-rule="evenodd">
        <rect fill="#FFFFFF" opacity="0" x="0" y="0" width="48" height="48"></rect>
        <g transform="translate(0.000000, 14.000000)" fill="#FFFFFF" fill-rule="nonzero">
            <path d="M0.850001692,22.0202291 C1.39711025,22.712281 2.12743746,23.3261765 3.00085427,23.8506843 C3.96957734,25.5131998 7.46298555,26.9333333 11.7333333,26.9333333 C16.0036811,26.9333333 19.4970893,25.5131998 20.4658124,23.8506843 C21.3392292,23.3261765 22.0695564,22.712281 22.616665,22.0202291 C22.6934975,22.3158801 22.7333333,22.6206027 22.7333333,22.9333333 C22.7333333,26.4354691 17.7376048,28.9333333 11.7333333,28.9333333 C5.72906187,28.9333333 0.733333333,26.4354691 0.733333333,22.9333333 C0.733333333,22.6206027 0.773169149,22.3158801 0.850001692,22.0202291 Z M0.850001692,18.0202291 C1.39711025,18.712281 2.12743746,19.3261765 3.00085427,19.8506843 C3.96957734,21.5131998 7.46298555,22.9333333 11.7333333,22.9333333 C16.0036811,22.9333333 19.4970893,21.5131998 20.4658124,19.8506843 C21.3392292,19.3261765 22.0695564,18.712281 22.616665,18.0202291 C22.6934975,18.3158801 22.7333333,18.6206027 22.7333333,18.9333333 C22.7333333,22.4354691 17.7376048,24.9333333 11.7333333,24.9333333 C5.72906187,24.9333333 0.733333333,22.4354691 0.733333333,18.9333333 C0.733333333,18.6206027 0.773169149,18.3158801 0.850001692,18.0202291 Z M0.850001692,14.0202291 C1.39711025,14.712281 2.12743746,15.3261765 3.00085427,15.8506843 C3.96957734,17.5131998 7.46298555,18.9333333 11.7333333,18.9333333 C16.0036811,18.9333333 19.4970893,17.5131998 20.4658124,15.8506843 C21.3392292,15.3261765 22.0695564,14.712281 22.616665,14.0202291 C22.6934975,14.3158801 22.7333333,14.6206027 22.7333333,14.9333333 C22.7333333,18.4354691 17.7376048,20.9333333 11.7333333,20.9333333 C5.72906187,20.9333333 0.733333333,18.4354691 0.733333333,14.9333333 C0.733333333,14.6206027 0.773169149,14.3158801 0.850001692,14.0202291 Z M0.850001692,10.0202291 C1.39711025,10.712281 2.12743746,11.3261765 3.00085427,11.8506843 C3.96957734,13.5131998 7.46298555,14.9333333 11.7333333,14.9333333 C16.0036811,14.9333333 19.4970893,13.5131998 20.4658124,11.8506843 C21.3392292,11.3261765 22.0695564,10.712281 22.616665,10.0202291 C22.6934975,10.3158801 22.7333333,10.6206027 22.7333333,10.9333333 C22.7333333,14.4354691 17.7376048,16.9333333 11.7333333,16.9333333 C5.72906187,16.9333333 0.733333333,14.4354691 0.733333333,10.9333333 C0.733333333,10.6206027 0.773169149,10.3158801 0.850001692,10.0202291 Z M11.7333333,12.9333333 C5.72906187,12.9333333 0.733333333,10.4354691 0.733333333,6.93333333 C0.733333333,3.4311976 5.72906187,0.933333333 11.7333333,0.933333333 C17.7376048,0.933333333 22.7333333,3.4311976 22.7333333,6.93333333 C22.7333333,10.4354691 17.7376048,12.9333333 11.7333333,12.9333333 Z M11.7333333,10.9333333 C16.7747569,10.9333333 20.7333333,8.9540451 20.7333333,6.93333333 C20.7333333,4.91262157 16.7747569,2.93333333 11.7333333,2.93333333 C6.69190981,2.93333333 2.73333333,4.91262157 2.73333333,6.93333333 C2.73333333,8.9540451 6.69190981,10.9333333 11.7333333,10.9333333 Z" id="doubleStackCoins"></path>
            <path d="M25.383335,26.5535624 C25.9304436,27.2456144 26.6607708,27.8595098 27.5341876,28.3840176 C28.5029107,30.0465332 31.9963189,31.4666667 36.2666667,31.4666667 C40.5370144,31.4666667 44.0304227,30.0465332 44.9991457,28.3840176 C45.8725625,27.8595098 46.6028898,27.2456144 47.1499983,26.5535624 C47.2268309,26.8492134 47.2666667,27.153936 47.2666667,27.4666667 C47.2666667,30.9688024 42.2709381,33.4666667 36.2666667,33.4666667 C30.2623952,33.4666667 25.2666667,30.9688024 25.2666667,27.4666667 C25.2666667,27.153936 25.3065025,26.8492134 25.383335,26.5535624 Z M25.383335,22.5535624 C25.9304436,23.2456144 26.6607708,23.8595098 27.5341876,24.3840176 C28.5029107,26.0465332 31.9963189,27.4666667 36.2666667,27.4666667 C40.5370144,27.4666667 44.0304227,26.0465332 44.9991457,24.3840176 C45.8725625,23.8595098 46.6028898,23.2456144 47.1499983,22.5535624 C47.2268309,22.8492134 47.2666667,23.153936 47.2666667,23.4666667 C47.2666667,26.9688024 42.2709381,29.4666667 36.2666667,29.4666667 C30.2623952,29.4666667 25.2666667,26.9688024 25.2666667,23.4666667 C25.2666667,23.153936 25.3065025,22.8492134 25.383335,22.5535624 Z M36.2666667,25.4666667 C30.2623952,25.4666667 25.2666667,22.9688024 25.2666667,19.4666667 C25.2666667,15.9645309 30.2623952,13.4666667 36.2666667,13.4666667 C42.2709381,13.4666667 47.2666667,15.9645309 47.2666667,19.4666667 C47.2666667,22.9688024 42.2709381,25.4666667 36.2666667,25.4666667 Z M36.2666667,23.4666667 C41.3080902,23.4666667 45.2666667,21.4873784 45.2666667,19.4666667 C45.2666667,17.4459549 41.3080902,15.4666667 36.2666667,15.4666667 C31.2252431,15.4666667 27.2666667,17.4459549 27.2666667,19.4666667 C27.2666667,21.4873784 31.2252431,23.4666667 36.2666667,23.4666667 Z" id="Combined-Shape-Copy-5"></path>
        </g>
    </g>
</svg>