<?xml version="1.0" encoding="UTF-8"?>
<svg width="48px" height="48px" viewBox="0 0 48 48" version="1.1" xmlns="http://www.w3.org/2000/svg" xmlns:xlink="http://www.w3.org/1999/xlink">
    <!-- Generator: Sketch 55.2 (78181) - https://sketchapp.com -->
    <title>illu/kategorie/buecher-ﬁlme-games-musik</title>
    <desc>Created with Sketch.</desc>
    <g id="illu/kategorie/buecher-ﬁlme-games-musik" stroke="none" stroke-width="1" fill="none" fill-rule="evenodd">
        <path d="M28.9817759,21.5022898 C28.97857,21.5023056 28.97536,21.5023212 28.972146,21.5023367 C28.079415,21.4979768 27.4969421,21.4790732 26.9832946,21.4376955 L26.9832946,9.99346867 L6.99848133,9.99346867 L6.99848133,25.941218 L15.9502678,25.941218 C15.6575241,26.5589813 15.3943713,27.2251945 15.1612034,27.9346867 L6.99848133,27.9346867 C5.89475057,27.9346867 5,27.0421803 5,25.941218 L5,9.99346867 C5,8.89250632 5.89475057,8 6.99848133,8 L26.9832946,8 C28.0870253,8 28.9817759,8.89250632 28.9817759,9.99346867 L28.9817759,21.5022898 Z M26.543843,34.7227605 C24.5174874,39.28534 22.263935,41.3214766 18.7935087,40.9589647 C14.9553172,40.5580369 14.194186,35.5480701 15.6551641,29.8502447 C16.9026576,24.7173107 19.4925097,21.5985126 23.1948299,21.9852476 C24.3494148,22.1058526 26.522753,22.396644 26.3518003,22.3766859 C27.0577674,22.4591051 27.7330411,22.4930341 28.976961,22.4990594 C30.2305107,22.4930341 30.9057845,22.4591051 31.6117515,22.3766859 C31.4407988,22.396644 33.614137,22.1058526 34.7687219,21.9852476 C38.4710421,21.5985126 41.0608942,24.7173107 42.3053577,29.8381102 C43.7693659,35.5480701 43.0082347,40.5580369 39.1700431,40.9589647 C35.6996169,41.3214766 33.4460644,39.28534 31.4197088,34.7227605 L26.543843,34.7227605 Z M32.7421751,32.7292919 L32.9990088,33.3409749 C34.793042,37.6136984 36.4620582,39.2374646 38.9619,38.9763374 C40.9805812,38.7654711 41.5576275,34.9671997 40.366165,30.319912 C39.3253112,26.0372175 37.3970012,23.7150735 34.976865,23.9678748 C33.8575244,24.0847983 31.7008686,24.3733577 31.8440683,24.3566396 C31.0562638,24.4486131 30.3092316,24.4861476 28.976961,24.4925049 C27.6543203,24.4861476 26.907288,24.4486131 26.1194835,24.3566396 C26.2626832,24.3733577 24.1060275,24.0847983 22.9866868,23.9678748 C20.5665506,23.7150735 18.6382406,26.0372175 17.5943568,30.3320465 C16.4059243,34.9671997 16.9829706,38.7654711 19.0016518,38.9763374 C21.5014937,39.2374646 23.1705099,37.6136984 24.964543,33.3409749 L25.2213768,32.7292919 L32.7421751,32.7292919 Z M23.9855726,27.9346867 L25.9840539,27.9346867 L25.9840539,29.9281553 L23.9855726,29.9281553 L23.9855726,31.921624 L21.9870913,31.921624 L21.9870913,29.9281553 L19.9886099,29.9281553 L19.9886099,27.9346867 L21.9870913,27.9346867 L21.9870913,25.941218 L23.9855726,25.941218 L23.9855726,27.9346867 Z M34.9772199,31.921624 C33.3216238,31.921624 31.9794979,30.5828645 31.9794979,28.931421 C31.9794979,27.2799775 33.3216238,25.941218 34.9772199,25.941218 C36.632816,25.941218 37.9749419,27.2799775 37.9749419,28.931421 C37.9749419,30.5828645 36.632816,31.921624 34.9772199,31.921624 Z M34.9772199,29.9281553 C35.5290853,29.9281553 35.9764606,29.4819022 35.9764606,28.931421 C35.9764606,28.3809398 35.5290853,27.9346867 34.9772199,27.9346867 C34.4253545,27.9346867 33.9779792,28.3809398 33.9779792,28.931421 C33.9779792,29.4819022 34.4253545,29.9281553 34.9772199,29.9281553 Z M14.3928622,15.286883 C14.3928622,15.20943 14.4108559,15.133036 14.4454244,15.0637252 C14.568671,14.8166121 14.8689069,14.7161985 15.11602,14.8394451 L20.490421,17.5199055 C20.5875406,17.5683435 20.6662631,17.647066 20.7147011,17.7441856 C20.8379477,17.9912986 20.7375341,18.2915345 20.490421,18.4147812 L15.11602,21.0952415 C15.0467092,21.12981 14.9703152,21.1478037 14.8928622,21.1478037 C14.6167199,21.1478037 14.3928622,20.9239461 14.3928622,20.6478037 L14.3928622,15.286883 Z" id="illu" fill="#191919"></path>
    </g>
</svg>