<?xml version="1.0" encoding="UTF-8"?>
<svg width="24px" height="24px" viewBox="0 0 24 24" version="1.1" xmlns="http://www.w3.org/2000/svg" xmlns:xlink="http://www.w3.org/1999/xlink">
    <g id="Artboard" stroke="none" stroke-width="1" fill="none" fill-rule="evenodd">
      <path fill="#00A8D6" d="M23.5,13.11 L23.5,10.89 L20.17,10.06 C19.9662485,9.18995687 19.6289132,8.35673879 19.17,7.59 L20.93,4.65 L19.35,3.09 L16.41,4.85 C15.6432612,4.39108677 14.8100431,4.05375152 13.94,3.85 L13.11,0.5 L10.89,0.5 L10.06,3.83 C9.18995687,4.03375152 8.35673879,4.37108677 7.59,4.83 L4.65,3.09 L3.09,4.65 L4.85,7.59 C4.39108677,8.35673879 4.05375152,9.18995687 3.85,10.06 L0.5,10.89 L0.5,13.11 L3.83,13.94 C4.03375152,14.8100431 4.37108677,15.6432612 4.83,16.41 L3.09,19.35 L4.65,20.91 L7.59,19.15 C8.35673879,19.6089132 9.18995687,19.9462485 10.06,20.15 L10.89,23.5 L13.11,23.5 L13.94,20.17 C14.8100431,19.9662485 15.6432612,19.6289132 16.41,19.17 L19.35,20.93 L20.91,19.37 L19.15,16.43 C19.6089132,15.6632612 19.9462485,14.8300431 20.15,13.96 L23.5,13.11 Z M12,16.42 C9.55890141,16.42 7.58,14.4410986 7.58,12 C7.58,9.55890141 9.55890141,7.58 12,7.58 C14.4410986,7.58 16.42,9.55890141 16.42,12 C16.42,13.1722569 15.9543228,14.2965012 15.125412,15.125412 C14.2965012,15.9543228 13.1722569,16.42 12,16.42 Z" id="path-1"></path>
    </g>
</svg>
