<svg width="24px" height="26px" viewBox="0 0 24 26" version="1.1" xmlns="http://www.w3.org/2000/svg" xmlns:xlink="http://www.w3.org/1999/xlink">
    <g id="Page-1" stroke="none" stroke-width="1" fill="none" fill-rule="evenodd">
        <path fill="#00A8D6" d="M13,10.94805 L13,7 L11,7 L11,10.94805 L0,10.94805 L0,7 L5.3541756,7 C4.5237549,6.2670555 4,5.1946925 4,4 C4,1.790861 5.790861,0 8,0 C10.209139,0 12,1.790861 12,4 C12,1.790861 13.790861,0 16,0 C18.209139,0 20,1.790861 20,4 C20,5.1946925 19.4762451,6.2670555 18.6458244,7 L24,7 L24,10.94805 L13,10.94805 Z M11,13 L11,26 L1,26 L1,13 L11,13 Z M13,13 L23,13 L23,26 L13,26 L13,13 Z M16,6 C17.1045695,6 18,5.1045695 18,4 C18,2.8954305 17.1045695,2 16,2 C14.8954305,2 14,2.8954305 14,4 C14,5.1045695 14.8954305,6 16,6 Z M8,6 C9.1045695,6 10,5.1045695 10,4 C10,2.8954305 9.1045695,2 8,2 C6.8954305,2 6,2.8954305 6,4 C6,5.1045695 6.8954305,6 8,6 Z" id="Combined-Shape"></path>
    </g>
</svg>
