<?xml version="1.0" encoding="UTF-8"?>
<svg width="22px" height="22px" viewBox="0 0 22 22" version="1.1" xmlns="http://www.w3.org/2000/svg" xmlns:xlink="http://www.w3.org/1999/xlink">
    <!-- Generator: Sketch 55.2 (78181) - https://sketchapp.com -->
    <title>GPS</title>
    <desc>Created with Sketch.</desc>
    <defs>
        <path d="M11,7 C8.79,7 7,8.79 7,11 C7,13.21 8.79,15 11,15 C13.21,15 15,13.21 15,11 C15,8.79 13.21,7 11,7 Z M19.94,10 C19.48,5.83 16.17,2.52 12,2.06 L12,0 L10,0 L10,2.06 C5.83,2.52 2.52,5.83 2.06,10 L0,10 L0,12 L2.06,12 C2.52,16.17 5.83,19.48 10,19.94 L10,22 L12,22 L12,19.94 C16.17,19.48 19.48,16.17 19.94,12 L22,12 L22,10 L19.94,10 Z M11,18 C7.13,18 4,14.87 4,11 C4,7.13 7.13,4 11,4 C14.87,4 18,7.13 18,11 C18,14.87 14.87,18 11,18 Z" id="path-1"></path>
    </defs>
    <g id="Page-1" stroke="none" stroke-width="1" fill="none" fill-rule="evenodd">
        <g id="GPS">
            <g id="Shape" fill="#000000" fill-rule="nonzero">
                <path d="M11,7 C8.79,7 7,8.79 7,11 C7,13.21 8.79,15 11,15 C13.21,15 15,13.21 15,11 C15,8.79 13.21,7 11,7 Z M19.94,10 C19.48,5.83 16.17,2.52 12,2.06 L12,0 L10,0 L10,2.06 C5.83,2.52 2.52,5.83 2.06,10 L0,10 L0,12 L2.06,12 C2.52,16.17 5.83,19.48 10,19.94 L10,22 L12,22 L12,19.94 C16.17,19.48 19.48,16.17 19.94,12 L22,12 L22,10 L19.94,10 Z M11,18 C7.13,18 4,14.87 4,11 C4,7.13 7.13,4 11,4 C14.87,4 18,7.13 18,11 C18,14.87 14.87,18 11,18 Z" id="path-1"></path>
            </g>
            <g id="Colors-/-Black-Clipped">
                <mask id="mask-2" fill="white">
                    <use xlink:href="#path-1"></use>
                </mask>
                <g id="path-1"></g>
            </g>
        </g>
    </g>
</svg>