<?xml version="1.0" encoding="UTF-8"?>
<svg width="20px" height="21px" viewBox="0 0 20 21" version="1.1" xmlns="http://www.w3.org/2000/svg" xmlns:xlink="http://www.w3.org/1999/xlink">
    <g id="release" stroke="none" stroke-width="1" fill="none" fill-rule="evenodd">
      <path fill="#191919" d="M1.16700015,16.2336488 L2.17863581,12.1752366 L5.21354279,15.2190457 L1.16700015,16.2336488 Z M6.22517846,14.2044427 L3.19027147,11.1606335 L11.2833568,3.04380914 L14.3182638,6.08761829 L6.22517846,14.2044427 Z M15.3298994,5.07301524 L12.2949924,2.0292061 L14.3182638,-1.40804458e-16 L17.3531707,3.04380914 L15.3298994,5.07301524 Z M0.428902318,19.5911233 C-0.0277709308,19.268298 -0.137041526,18.6353036 0.184839613,18.1772908 C0.506720751,17.719278 1.13786378,17.6096869 1.59453703,17.9325122 L1.78487693,18.0670647 C3.28883472,19.1302223 5.33262964,18.9775823 6.66299499,17.7027443 L6.88153704,17.4933239 C8.61271657,15.8344011 11.3570043,15.8970933 13.0110753,17.6333508 C13.1170437,17.7445846 13.2170512,17.8613805 13.3106758,17.9832459 C13.8427885,18.6758644 14.6617431,19.0162344 15.4709646,18.9658027 C15.956889,18.9355192 16.4393038,18.7643201 16.8539937,18.4438578 C16.8832169,18.4212748 16.9119435,18.3980525 16.9401527,18.3742077 C17.5573787,17.8524751 18.0202982,17.4611758 18.3289112,17.2003095 C19.3334621,16.3511766 20.6428816,17.898134 19.641089,18.7449353 C19.3306371,19.0073559 18.8649592,19.4009869 18.2440554,19.9258283 C18.1932553,19.9687688 16.6061939,20.8876731 15.799915,20.9741112 C14.2782648,21.1372414 12.7104522,20.526631 11.7079782,19.221772 C11.6580473,19.15678 11.6047123,19.0944916 11.5481983,19.0351695 C10.6660662,18.1092065 9.20251079,18.0757721 8.27925588,18.9604918 L8.06071382,19.1699122 C6.03126808,21.114652 2.91349977,21.3475014 0.619242212,19.7256758 L0.428902318,19.5911233 Z" id="path-1"></path>
    </g>
</svg>
