<?xml version="1.0" encoding="UTF-8"?>
<svg width="48px" height="48px" viewBox="0 0 48 48" version="1.1" xmlns="http://www.w3.org/2000/svg" xmlns:xlink="http://www.w3.org/1999/xlink">
    <!-- Generator: Sketch 55.2 (78181) - https://sketchapp.com -->
    <title>illu/kategorie/sport-gesundheit-hobbies</title>
    <desc>Created with Sketch.</desc>
    <g id="illu/kategorie/sport-gesundheit-hobbies" stroke="none" stroke-width="1" fill="none" fill-rule="evenodd">
        <path d="M35.9909253,18.7463413 C35.3310497,18.4893185 34.6402465,18.2941572 33.9256405,18.1679824 C33.4710902,15.2360409 30.9876525,13 28,13 C24.9107768,13 22,15.5578461 22,17.7098039 C22,19.0431373 20,19.0431373 20,17.7098039 C20,15.5578461 17.0892232,13 14,13 C10.6906845,13 8,15.743443 8,19.1372549 C8,23.1536963 12.3048145,28.5091787 21,35.0206256 C21.4235338,34.7034596 21.8366512,34.3890361 22.2393619,34.0773764 C22.5505098,34.6742994 22.9148092,35.2391066 23.3259837,35.7655213 C22.7669728,36.1963331 22.1895806,36.6315629 21.5938292,37.0712578 C21.2408113,37.331803 20.7591887,37.331803 20.4061708,37.0712578 C10.8325452,30.0054347 6,24.0926735 6,19.1372549 C6,14.6474727 9.57732904,11 14,11 C16.8609969,11 19.5879154,12.6194095 21,14.7149955 C22.4120846,12.6194095 25.1390031,11 28,11 C32.2935844,11 35.7904535,14.4376591 35.9909253,18.7463413 Z M24.1366399,27.5199383 C29.1523374,27.8350575 33.1649424,31.8476626 33.4800613,36.8633601 C36.7115839,36.258887 39.258887,33.7115838 39.8633602,30.4800612 C34.8476626,30.1649423 30.8350576,26.1523374 30.5199383,21.1366399 C27.2884161,21.7411132 24.7411132,24.2884161 24.1366399,27.5199383 Z M24.016399,29.516399 C24.2716759,33.5232871 27.4767126,36.7283239 31.4836006,36.983601 C31.2283237,32.9767129 28.023287,29.7716761 24.016399,29.516399 Z M32.516399,21.016399 C32.7716761,25.023287 35.9767129,28.2283236 39.983601,28.4836005 C39.7283239,24.4767125 36.5232871,21.2716759 32.516399,21.016399 Z M32,39 C26.4771525,39 22,34.5228475 22,29 C22,23.4771525 26.4771525,19 32,19 C37.5228475,19 42,23.4771525 42,29 C42,34.5228475 37.5228475,39 32,39 Z" id="illu" fill="#00A8D6"></path>
    </g>
</svg>