<?xml version="1.0" encoding="UTF-8"?>
<svg width="26px" height="26px" viewBox="0 0 26 26" version="1.1" xmlns="http://www.w3.org/2000/svg" xmlns:xlink="http://www.w3.org/1999/xlink">
    <g id="category" stroke="none" stroke-width="1" fill="none" fill-rule="evenodd">
        <path d="M13,9 C13,7.23857625 15.2385763,5 18,5 C20.7614237,5 23,7.23857625 23,10 C23,13.1742825 19.6666667,17.1742825 13,22 C6.33333333,17.1742825 3,13.1742825 3,10 C3,7.23857625 5.23857625,5 8,5 C10.7614237,5 13,7.23857625 13,9 Z M7.81173079,6.81315945 C6.25081104,7.10309168 5.03500128,8.35548229 4.79361943,9.92692281 C4.73073155,10.3363346 5.01164465,10.7192091 5.42105641,10.782097 C5.83046817,10.8449849 6.21334268,10.5640717 6.27623057,10.15466 C6.42071292,9.21405314 7.15129673,8.46148777 8.08566213,8.28793455 C8.49291004,8.2122905 8.76172807,7.82082923 8.68608402,7.41358133 C8.61043997,7.00633343 8.21897869,6.73751539 7.81173079,6.81315945 Z" id="Combined-Shape" fill="#00a8d6"></path>
    </g>
</svg>
