<?xml version="1.0" encoding="UTF-8"?>
<svg width="48px" height="48px" viewBox="0 0 48 48" version="1.1" xmlns="http://www.w3.org/2000/svg" xmlns:xlink="http://www.w3.org/1999/xlink">
    <!-- Generator: Sketch 55.2 (78181) - https://sketchapp.com -->
    <title>illu/kategorie/wohnen-bauen-garten</title>
    <desc>Created with Sketch.</desc>
    <g id="illu/kategorie/wohnen-bauen-garten" stroke="none" stroke-width="1" fill="none" fill-rule="evenodd">
        <path d="M30.4641312,39 L23.8181354,39 C22.8829349,38.0601772 22.321087,36.8550036 22.321087,35.5409195 C22.321087,32.5388664 25.253392,30.1052216 28.8705736,30.1052216 C29.9839462,30.1052216 31.0324327,30.3357889 31.9504943,30.7425303 C33.425852,29.1375218 35.5623486,28.1286041 37.9390934,28.1286041 C42.3910092,28.1286041 46,31.6684512 46,36.0350739 C46,37.083571 45.7919207,38.0843997 45.4140557,39 L30.4641312,39 Z M30.7767678,32.403797 C30.2021647,32.1982473 29.5581491,32.081839 28.8705736,32.081839 C26.2987173,32.081839 24.3363136,33.7105214 24.3363136,35.5409195 C24.3363136,36.0569453 24.4881032,36.5608217 24.7809471,37.0233826 L29.9405519,37.0233826 C29.8993904,36.6996183 29.8781869,36.3697748 29.8781869,36.0350739 C29.8781869,34.7259705 30.2025581,33.4911766 30.7767678,32.403797 Z M21.3354814,36.0350739 L17.2830204,36.0350739 L17.2830204,27.1402954 L13.2525671,27.1402954 L13.2525671,36.0350739 L5.19166055,36.0350739 L5.19166055,23.2875506 L3.3452545,24.9112338 L2,23.4395048 L17.2830204,10 L32.5660408,23.4395048 L31.2207863,24.9112338 L29.3743802,23.2875506 L29.3743802,29.130984 C29.2077744,29.1216507 29.0397775,29.1169129 28.8705736,29.1169129 C28.3537579,29.1169129 27.8482036,29.1611135 27.3591536,29.2454595 L27.3591536,21.7045975 L17.2830204,12.8098191 L7.20688719,21.7045975 L7.20688719,34.0584564 L11.2373405,34.0584564 L11.2373405,25.163678 L19.298247,25.163678 L19.298247,34.0584564 L21.5139813,34.0584564 C21.3829113,34.5333104 21.3134737,35.0294772 21.3134737,35.5409195 C21.3134737,35.7067588 21.3208694,35.8715678 21.3354814,36.0350739 Z M31.9766748,37.0233826 L43.9015121,37.0233826 C43.9566987,36.6998658 43.9847734,36.3696923 43.9847734,36.0350739 C43.9847734,32.7601069 41.2780303,30.1052216 37.9390934,30.1052216 C34.6001566,30.1052216 31.8934135,32.7601069 31.8934135,36.0350739 C31.8934135,36.3696923 31.9214882,36.6998658 31.9766748,37.0233826 Z" id="illu" fill="#00A8D6"></path>
    </g>
</svg>