<?xml version="1.0" encoding="UTF-8"?>
<svg width="26px" height="26px" viewBox="0 0 26 26" version="1.1" xmlns="http://www.w3.org/2000/svg" xmlns:xlink="http://www.w3.org/1999/xlink">
    <g id="category" stroke="none" stroke-width="1" fill="none" fill-rule="evenodd">
        <path d="M3,5 L23,5 C24.1045695,5 25,5.8954305 25,7 L25,19 C25,20.1045695 24.1045695,21 23,21 L3,21 C1.8954305,21 1,20.1045695 1,19 L1,7 C1,5.8954305 1.8954305,5 3,5 Z M15,8 L15,9 L22,9 L22,8 L15,8 Z M15,11 L15,12 L22,12 L22,11 L15,11 Z M9.5,12.95 C10.7150264,12.95 11.7,11.9650264 11.7,10.75 C11.7,9.53497355 10.7150264,8.55 9.5,8.55 C8.28497355,8.55 7.3,9.53497355 7.3,10.75 C7.3,11.9650264 8.28497355,12.95 9.5,12.95 Z M8.95,14.05 C6.5199471,14.05 4.55,16.0199471 4.55,18.45 L14.45,18.45 C14.45,16.0199471 12.4800529,14.05 10.05,14.05 L8.95,14.05 Z" id="Combined-Shape" fill="#00a8d6"></path>
    </g>
</svg>
