<?xml version="1.0" encoding="UTF-8"?>
<svg width="20px" height="20px" viewBox="0 0 20 20" version="1.1" xmlns="http://www.w3.org/2000/svg" xmlns:xlink="http://www.w3.org/1999/xlink">
        <g id="info" transform="translate(1.000000, 1.000000)" >
            <path fill="#191919" d="M9,18 C4.02943725,18 0,13.9705627 0,9 C0,4.02943725 4.02943725,0 9,0 C13.9705627,0 18,4.02943725 18,9 C18,13.9705627 13.9705627,18 9,18 Z M10.235,15.04 L10.235,7.66 L8.24,7.66 L8.24,15.04 L10.235,15.04 Z M8,5.245 C8,5.905 8.555,6.46 9.23,6.46 C9.92,6.46 10.46,5.905 10.46,5.245 C10.46,4.555 9.92,4 9.23,4 C8.555,4 8,4.555 8,5.245 Z" id="path-1-2"></path>
        </g>
</svg>
