<?xml version="1.0" encoding="UTF-8"?>
<svg width="20px" height="20px" viewBox="0 0 20 20" version="1.1" xmlns="http://www.w3.org/2000/svg" xmlns:xlink="http://www.w3.org/1999/xlink">
    <g id="legal.jsx" stroke="none" stroke-width="1" fill="none" fill-rule="evenodd">
      <path fill="#00A8D6" d="M14.4367681,10.1393355 C14.4367681,11.4683816 13.6569087,12.3472669 12.8138173,12.8188639 C13.8887588,13.6120043 14.4367681,14.7052519 14.4367681,15.8842444 C14.4367681,18.392283 12.265808,20 9.96838407,20 C7.22833724,20 5.60538642,18.392283 5.5,15.9914255 L8.13466042,15.5412647 C8.13466042,16.8917471 8.87236534,17.5777063 9.98946136,17.5777063 C10.9379391,17.5777063 11.6124122,16.977492 11.6124122,16.0771704 C11.6124122,15.4983923 11.2540984,15.0482315 10.6850117,14.7481243 L8.53512881,13.6120043 C6.97540984,12.7974277 5.56323185,11.8327974 5.56323185,9.86066452 C5.56323185,8.55305466 6.34309133,7.65273312 7.18618267,7.18113612 C6.11124122,6.38799571 5.56323185,5.2733119 5.56323185,4.11575563 C5.56323185,1.60771704 7.73419204,0 10.0526932,0 C12.7716628,0 14.4156909,1.67202572 14.5,4.00857449 L11.8442623,4.45873526 C11.8442623,3.08681672 11.1276347,2.42229368 10.0316159,2.42229368 C9.04098361,2.42229368 8.38758782,3.04394427 8.38758782,3.92282958 C8.38758782,4.45873526 8.70374707,4.97320472 9.31498829,5.25187567 L11.4437939,6.36655949 C13.0245902,7.20257235 14.4367681,8.16720257 14.4367681,10.1393355 Z M10.5282486,9.22033898 L8.22316384,8 C7.79378531,8.33898305 7.5,8.76836158 7.5,9.28813559 C7.5,9.89830508 7.7259887,10.3954802 8.47175141,10.779661 L10.7768362,12 C11.1836158,11.6836158 11.5,11.2542373 11.5,10.7118644 C11.5,10.1016949 11.2514124,9.60451977 10.5282486,9.22033898 Z" id="path-1"></path>
    </g>
</svg>
