<?xml version="1.0" encoding="UTF-8"?>
<svg width="13px" height="15px" viewBox="0 0 13 15" version="1.1" xmlns="http://www.w3.org/2000/svg" xmlns:xlink="http://www.w3.org/1999/xlink">
    <!-- Generator: Sketch 54.1 (76490) - https://sketchapp.com -->
    <title>G</title>
    <desc>Created with Sketch.</desc>
    <g id="Symbols" stroke="none" stroke-width="1" fill="none" fill-rule="evenodd">
        <g id="ico-list-orange/haus" transform="translate(-14.000000, -13.000000)" fill="#00A8D6" fill-rule="nonzero">
            <path d="M26.787,27 L25.365,27 L25.203,25.2 C24.645,26.208 23.259,27.27 21.117,27.27 C17.913,27.27 14.925,24.93 14.925,20.61 C14.925,16.29 18.093,13.968 21.243,13.968 C24.015,13.968 26.157,15.516 26.895,17.82 L25.293,18.504 C24.717,16.668 23.223,15.588 21.243,15.588 C18.957,15.588 16.725,17.226 16.725,20.61 C16.725,23.994 18.885,25.668 21.171,25.668 C24.015,25.668 25.041,23.652 25.113,22.338 L20.685,22.338 L20.685,20.754 L26.787,20.754 L26.787,27 Z" id="G"></path>
        </g>
    </g>
</svg>