<?xml version="1.0" encoding="UTF-8"?>
<svg width="22px" height="19px" viewBox="0 0 22 19" version="1.1" xmlns="http://www.w3.org/2000/svg" xmlns:xlink="http://www.w3.org/1999/xlink">
    <g id="Page-1" stroke="none" stroke-width="1" fill="none" fill-rule="evenodd">
      <path fill="#00A8D6" d="M7.625,15.25 L21.0416667,15.25 L21.0416667,17.1666667 L7.625,17.1666667 L7.625,15.25 Z M2.83333333,18.125 C1.77478756,18.125 0.91666667,17.2668791 0.91666667,16.2083333 C0.91666667,15.1497876 1.77478756,14.2916667 2.83333333,14.2916667 C3.8918791,14.2916667 4.75,15.1497876 4.75,16.2083333 C4.75,17.2668791 3.8918791,18.125 2.83333333,18.125 Z M7.625,8.5416667 L21.0416667,8.5416667 L21.0416667,10.4583333 L7.625,10.4583333 L7.625,8.5416667 Z M2.83333333,11.4166667 C1.77478756,11.4166667 0.91666667,10.5585458 0.91666667,9.5 C0.91666667,8.4414542 1.77478756,7.58333333 2.83333333,7.58333333 C3.8918791,7.58333333 4.75,8.4414542 4.75,9.5 C4.75,10.5585458 3.8918791,11.4166667 2.83333333,11.4166667 Z M7.625,1.83333333 L21.0416667,1.83333333 L21.0416667,3.75 L7.625,3.75 L7.625,1.83333333 Z M2.83333333,4.70833333 C1.77478756,4.70833333 0.91666667,3.85021244 0.91666667,2.79166667 C0.91666667,1.7331209 1.77478756,0.875 2.83333333,0.875 C3.8918791,0.875 4.75,1.7331209 4.75,2.79166667 C4.75,3.85021244 3.8918791,4.70833333 2.83333333,4.70833333 Z" id="path-1"></path>
    </g>
</svg>
