<?xml version="1.0" encoding="UTF-8"?>
<svg width="24px" height="24px" viewBox="0 0 24 24" version="1.1" xmlns="http://www.w3.org/2000/svg" xmlns:xlink="http://www.w3.org/1999/xlink">
    <g id="lock-open" stroke="none" stroke-width="1" fill="none" fill-rule="evenodd">
        <path fill="#191919" d="M13,8 L13,7 L13,6 C13,3.24 15.24,1 18,1 C20.76,1 23,3.24 23,6 L23,7 L23,8 L21.1,8 L21.1,6 C21.1,4.29 19.71,2.9 18,2.9 C16.29,2.9 14.9,4.29 14.9,6 L14.9,8 L15,8 L15,7 L15,8 L16,8 C17.1,8 18,8.9 18,10 L18,20 C18,21.1 17.1,22 16,22 L4,22 C2.9,22 2,21.1 2,20 L2,10 C2,8.9 2.9,8 4,8 L5,8 L5,7 L5,8 L6.9,8 L13,8 Z" id="path-1"></path>
    </g>
</svg>