<?xml version="1.0" encoding="UTF-8"?>
<svg width="24px" height="24px" viewBox="0 0 24 24" version="1.1" xmlns="http://www.w3.org/2000/svg" xmlns:xlink="http://www.w3.org/1999/xlink">
    <g id="lock-pending" stroke="none" stroke-width="1" fill="none" fill-rule="evenodd">
        <path fill="#191919" d="M18,8 L17,8 L17,6 C17,3.24 14.76,1 12,1 C9.24,1 7,3.24 7,6 L7,8 L6,8 C4.9,8 4,8.9 4,10 L4,20 C4,21.1 4.9,22 6,22 L18,22 C19.1,22 20,21.1 20,20 L20,10 C20,8.9 19.1,8 18,8 Z M15.1,8 L8.9,8 L8.9,6 C8.9,4.29 10.29,2.9 12,2.9 C13.71,2.9 15.1,4.29 15.1,6 L15.1,8 Z" id="path-1"></path>
        <path fill="#FFFFFF" d="M15.5,13 L13.5,15 L15,15 C15,16.655 13.655,18 12,18 C11.495,18 11.015,17.875 10.6,17.65 L9.87,18.38 C10.485,18.77 11.215,19 12,19 C14.21,19 16,17.21 16,15 L17.5,15 L15.5,13 Z M9,15 C9,13.345 10.345,12 12,12 C12.505,12 12.985,12.125 13.4,12.35 L14.13,11.62 C13.515,11.23 12.785,11 12,11 C9.79,11 8,12.79 8,15 L6.5,15 L8.5,17 L10.5,15 L9,15 Z" id="path-3"></path>
    </g>
</svg>