<?xml version="1.0" encoding="UTF-8"?>
<svg width="24px" height="26px" viewBox="0 0 24 26" version="1.1" xmlns="http://www.w3.org/2000/svg" xmlns:xlink="http://www.w3.org/1999/xlink">
        <g id="CD_Mehr" transform="translate(-176.000000, -492.000000)" fill-rule="nonzero">
            <path fill="#00a8d6" d="M179.445688,497.087105 C180.058733,496.47406 181.053878,496.480768 181.668457,497.095347 C182.283036,497.709926 182.289745,498.705071 181.6767,499.318116 C178.265519,502.729298 178.303094,508.302997 181.767369,511.767272 C185.231644,515.231547 190.805343,515.269122 194.216525,511.857941 C197.627706,508.44676 197.59013,502.873061 194.125855,499.408786 C193.511276,498.794207 193.504568,497.799062 194.117613,497.186017 C194.730658,496.572971 195.725803,496.57968 196.340382,497.194259 C201.033815,501.887692 201.084808,509.451681 196.447536,514.088953 C191.810265,518.726224 184.246275,518.675231 179.552843,513.981798 C174.85941,509.288366 174.808417,501.724376 179.445688,497.087105 Z M186.369049,493.565907 C186.369049,492.69893 187.077466,492 187.946612,492 C188.815758,492 189.524176,492.69893 189.524176,493.565907 L189.524176,502.153137 C189.524176,503.020113 188.815758,503.719043 187.946612,503.719043 C187.077466,503.719043 186.369049,503.020113 186.369049,502.153137 L186.369049,493.565907 Z" id="Combined-Shape"></path>
        </g>
</svg>
