<?xml version="1.0" encoding="UTF-8"?>
<svg width="48px" height="48px" viewBox="0 0 48 48" version="1.1" xmlns="http://www.w3.org/2000/svg" xmlns:xlink="http://www.w3.org/1999/xlink">
    <!-- Generator: Sketch 55.2 (78181) - https://sketchapp.com -->
    <title>illu/kategorie/beauty-und-wellness</title>
    <desc>Created with Sketch.</desc>
    <g id="illu/kategorie/beauty-und-wellness" stroke="none" stroke-width="1" fill="none" fill-rule="evenodd">
        <path d="M24.8795602,37.704608 L25.7839497,37.02026 C26.0470359,36.8211837 26.3036375,36.6151521 26.5535523,36.4024949 C28.7909246,37.7389005 31.4961513,38.282085 34.1848718,37.85132 C37.2990148,37.3523973 39.9280668,35.6209289 41.480624,33.167763 C40.3627487,32.2928445 39.0790469,31.6418517 37.7082591,31.2454909 C38.1855079,30.7067295 38.6116799,30.1410242 38.9863153,29.5533438 C40.6237396,30.1307382 42.1379876,31.0254257 43.4266654,32.1983055 L44,32.7201213 L43.6398176,33.4087942 C41.8719204,36.7890343 38.5119633,39.1869895 34.4972072,39.8302012 C31.0773092,40.3781095 27.6315395,39.5818294 24.8795602,37.704608 Z M24.1204398,37.704608 C21.3684605,39.5818294 17.9226908,40.3781095 14.5027928,39.8302012 C10.4880367,39.1869895 7.12807958,36.7890343 5.36018237,33.4087942 L5,32.7201213 L5.57333456,32.1983055 C6.86201242,31.0254257 8.37626043,30.1307382 10.0136847,29.5533438 C10.3883201,30.1410242 10.8144921,30.7067295 11.2917409,31.2454909 C9.92095309,31.6418517 8.63725128,32.2928445 7.51937599,33.167763 C9.07193318,35.6209289 11.7009852,37.3523973 14.8151282,37.85132 C17.5038487,38.282085 20.2090754,37.7389005 22.4464477,36.4024949 C22.6963625,36.6151521 22.9529641,36.8211837 23.2160503,37.02026 L24.1204398,37.704608 Z M21.0211164,35.0414327 C17.5844939,34.5693631 14.4673344,33.0370738 12.2501057,30.5955757 C9.19950568,27.2364122 8.3602413,22.7115358 9.8657122,18.4585938 L10.0870872,17.8332115 L10.7450099,17.7949327 C12.935644,17.6674787 15.0748723,17.9547581 17.0296953,18.6221707 C16.8499584,19.2672124 16.7070818,19.9255607 16.6027988,20.5943925 C15.0343148,20.0288575 13.3136969,19.7449134 11.5341567,19.7707951 C10.5666228,23.1390016 11.3233861,26.6067804 13.7174224,29.2429698 C15.1343378,30.8032041 17.0016497,31.9364825 19.1092148,32.5791504 C19.6691349,33.4539762 20.3086583,34.278358 21.0211164,35.0414327 Z M31.9703047,18.6221707 C33.9251277,17.9547581 36.064356,17.6674787 38.2549901,17.7949327 L38.9129128,17.8332115 L39.1342878,18.4585938 C40.6397587,22.7115358 39.8004943,27.2364122 36.7498943,30.5955757 C34.5326656,33.0370738 31.4155061,34.5693631 27.9788836,35.0414327 C28.6915334,34.2781526 29.3312093,33.4535325 29.8912372,32.5784441 C31.9987058,31.9362667 33.8657971,30.8030556 35.2825776,29.2429698 C37.6766139,26.6067804 38.4333772,23.1390016 37.4658433,19.7707951 C35.6863031,19.7449134 33.9656852,20.0288575 32.3972012,20.5943925 C32.2929182,19.9255607 32.1500416,19.2672124 31.9703047,18.6221707 Z M25.0971859,36.0990065 L24.5,36.5508948 L23.9028141,36.0990065 C19.9268028,33.0903742 17.5391252,28.3818657 17.5391252,23.2754474 C17.5391252,18.169029 19.9268028,13.4605206 23.9028141,10.4518882 L24.5,10 L25.0971859,10.4518882 C29.0731972,13.4605206 31.4608748,18.169029 31.4608748,23.2754474 C31.4608748,28.3818658 29.0731972,33.0903742 25.0971859,36.0990065 Z M29.4720534,23.2754474 C29.4720534,19.0678353 27.6213262,15.1717541 24.5,12.531952 C21.3786738,15.1717541 19.5279466,19.0678353 19.5279466,23.2754474 C19.5279466,27.4830594 21.3786738,31.3791407 24.5,34.0189428 C27.6213262,31.3791407 29.4720534,27.4830594 29.4720534,23.2754474 Z" id="illu" fill="#00A8D6"></path>
    </g>
</svg>