<?xml version="1.0" encoding="UTF-8"?>
<svg width="20px" height="20px" viewBox="0 0 20 20" version="1.1" xmlns="http://www.w3.org/2000/svg" xmlns:xlink="http://www.w3.org/1999/xlink">
    <!-- Generator: Sketch 55.2 (78181) - https://sketchapp.com -->
    <title>marketplace.jsx</title>
    <desc>Created with Sketch.</desc>
    <defs>
        <path d="M3.59947966,6.66587069 L8.04782798,1.10508069 C8.16315738,0.960909756 8.29410062,0.82995844 8.43826238,0.714621692 C9.51641722,-0.147957098 11.0896482,0.0268572047 11.952172,1.10508069 L16.4005203,6.66587069 L19.1666667,6.66587069 C19.626904,6.66587069 20,7.03896673 20,7.49920403 L20,8.33269636 C20,8.79293365 19.626904,9.16602969 19.1666667,9.16602969 L0.833333333,9.16602969 C0.373096042,9.16602969 8.1586074e-16,8.79293365 0,8.33269636 L0,7.49920403 C1.65681792e-16,7.03896673 0.373096042,6.66587069 0.833333333,6.66587069 L3.59947966,6.66587069 Z M5.73385401,6.66587069 L14.266146,6.66587069 L10.650724,2.14630569 C10.3632161,1.78689786 9.83880574,1.72862643 9.47942079,2.01615269 C9.43136687,2.05459827 9.38771913,2.09824871 9.34927599,2.14630569 L5.73385401,6.66587069 Z M1.66666667,9.99941636 L18.3333333,9.99941636 L16.2764368,17.9189723 C16.085609,18.6537059 15.4224013,19.1666667 14.6632908,19.1666667 L5.33670921,19.1666667 C4.57759871,19.1666667 3.91439097,18.6537059 3.72356322,17.9189723 L1.66666667,9.99941636 Z" id="path-1"></path>
    </defs>
    <g id="marketplace.jsx" stroke="none" stroke-width="1" fill="none" fill-rule="evenodd">
        <mask id="mask-2" fill="white">
            <use xlink:href="#path-1"></use>
        </mask>
        <use id="Combined-Shape" fill="#FFFFFF" xlink:href="#path-1"></use>
        <g id="color/blue" mask="url(#mask-2)" fill="#00A8D6">
            <rect id="Rectangle-3" x="0" y="0" width="20" height="20"></rect>
        </g>
    </g>
</svg>