<?xml version="1.0" encoding="UTF-8"?>
<svg width="24px" height="24px" viewBox="0 0 24 24" version="1.1" xmlns="http://www.w3.org/2000/svg" xmlns:xlink="http://www.w3.org/1999/xlink">
    <g id="message" stroke="none" stroke-width="1" fill="none" fill-rule="evenodd">
      <path fill="#191919" d="M16.4160437,4 C16.1484475,4.61246235 16,5.28889529 16,6 C16,6.87825178 16.2264352,7.7036168 16.6241096,8.42089919 L10.9790729,12.1837095 L1.11022302e-16,5.47735495 L0,5.23739427 C0,4.55190597 0.541663542,4 1.21270532,4 L16.4160437,4 Z M21,11 L21,18.7626057 C21,19.448094 20.4566114,20 19.7855696,20 L1.21270532,20 C0.541663542,20 0,19.448094 0,18.7626057 L0,7.30705236 L11.0087245,14 L17.5775967,9.64517629 C18.4721079,10.4853488 19.6759524,11 21,11 Z M21,9 C19.3431458,9 18,7.65685425 18,6 C18,4.34314575 19.3431458,3 21,3 C22.6568542,3 24,4.34314575 24,6 C24,7.65685425 22.6568542,9 21,9 Z" id="path-1"></path>
    </g>
</svg>
