<?xml version="1.0" encoding="UTF-8"?>
<svg width="39px" height="31px" viewBox="0 0 39 31" version="1.1" xmlns="http://www.w3.org/2000/svg" xmlns:xlink="http://www.w3.org/1999/xlink">
    <g id="Page-1" stroke="none" stroke-width="1" fill="none" fill-rule="evenodd">
            <path fill="#000000" d="M2.3214287,8.4980451 L3.9546257,8.4980451 C4.3900458,7.5989147 4.9204211,6.7504163 5.5447519,5.9548139 C5.3624331,5.7186324 5.1399358,5.4523442 4.8778806,5.1577905 C4.2666203,4.4670567 3.8983522,3.9681629 3.740448,3.570242 C3.3816421,2.6370397 3.9540313,1.9642101 4.8555895,1.6512982 C6.4111118,1.2297163 7.9811313,1.5300404 9.5766576,2.4826355 C12.297987,0.8288434 15.3431937,0 18.6889827,0 C23.7530115,0 27.9113549,1.7315869 31.0913189,5.1778881 C32.6146027,6.8448542 33.6414154,8.6855074 34.1635808,10.6934654 C34.2784569,10.5972908 34.3971688,10.4863162 34.5193784,10.3599695 C34.8562172,10.0135001 35.5001255,9.0562892 36.3945265,7.5474949 C36.867723,6.7492441 38.0785391,6.9700056 38.239571,7.8838919 L38.3867444,8.7191283 L38.4017684,8.9098486 C38.3500771,11.916808 37.2304027,14.4298633 35.0630412,16.3878187 C34.7498088,16.6596731 34.5145272,16.8556557 34.3175888,17.0072425 C34.2350506,17.0843318 34.1438186,17.1515993 34.0443213,17.2118349 C33.3722828,19.3337286 32.2043975,21.1867423 30.5516277,22.7591105 L30.5516277,26.3452171 C30.5516277,28.0060721 29.5833181,29.2185782 27.8398726,29.860552 C27.207565,30.0588582 26.645201,30.152 26.1008826,30.152 C24.1493734,30.152 22.7267631,29.2973346 22.0243169,27.6464381 C21.9381326,27.4694402 21.8687232,27.2799002 21.8185516,27.0830238 C20.7637984,27.2576734 19.7200427,27.3452171 18.6889827,27.3452171 C17.641069,27.3452171 16.6049347,27.2605711 15.582314,27.0913908 C15.3308882,28.3708931 14.4128674,29.3184655 12.9447479,29.8602954 C12.307085,30.059143 11.7454953,30.152 11.2019306,30.152 C8.9815759,30.152 7.4981571,29.0009367 6.9998821,26.8744275 C6.8879512,26.4703041 6.8263378,26.0284549 6.8263378,25.5844397 L6.8263378,22.7495112 C5.6027431,21.5548635 4.647344,20.278873 3.9636302,18.9216311 L2.3214287,18.9216311 C1.17339693,18.9216311 0.36398753,18.2487138 0.10816162,17.1189675 C0.03839523,16.8947015 0,16.6861384 0,16.4810101 L0,10.864207 L0.01835401,10.6734948 C0.24163461,9.5242106 0.98675905,8.7538621 2.1181119,8.5189321 L2.3214287,8.4980451 Z M32.8885301,15.5369962 L33.0574679,15.4530302 C33.2219381,15.3288756 33.4410798,15.147337 33.7375728,14.8902473 C34.7096979,14.011891 35.414986,13.002968 35.8550595,11.8537991 C35.1398219,12.5651361 34.3930559,13.0072792 33.6096857,13.1415389 C33.0560225,13.2364297 32.532841,12.8567862 32.4513421,12.3009939 C32.1401693,10.1789107 31.2016614,8.2634599 29.618176,6.5305989 C26.8294262,3.5082952 23.2073096,2 18.6889827,2 C15.5075055,2 12.6644916,2.8305769 10.1391647,4.4931097 C9.9759118,4.6005861 9.7847416,4.6578648 9.5892865,4.6578648 C9.2894939,4.6578648 9.0277597,4.5467525 8.81992,4.3676888 C7.8079599,3.7067917 6.8941848,3.415389 6.0581676,3.4626439 C6.1505757,3.5740182 6.256068,3.6972646 6.3738776,3.8303924 C6.9480431,4.4757569 7.3743549,5.0258047 7.6553982,5.4914412 C7.8803507,5.8641459 7.8383423,6.3395599 7.5515197,6.6670431 C6.6940434,7.6460776 6.0166262,8.7208932 5.5177238,9.8904201 C5.3605233,10.2589294 4.9985569,10.4980451 4.5979184,10.4980451 L2.43825686,10.4980451 C2.18995993,10.5676574 2.06845282,10.696987 2,10.9715439 C2.00359034,14.6488474 2.01191857,16.5073396 2.02498467,16.5470205 L2.05427887,16.6565285 C2.1067422,16.9092606 2.1212814,16.9216311 2.3214287,16.9216311 L4.5979184,16.9216311 C4.9951665,16.9216311 5.3547463,17.1567667 5.5140208,17.5206866 C6.1437871,18.9596147 7.1378615,20.3149564 8.5074472,21.5890088 C8.7108152,21.7781912 8.8263378,22.0434342 8.8263378,22.3211904 L8.8263378,25.5844397 C8.8263378,25.8462184 8.8631111,26.1099318 8.9376941,26.3810524 C9.2315281,27.631848 9.9018677,28.152 11.2019306,28.152 C11.5349454,28.152 11.8992846,28.0917577 12.3028511,27.966855 C13.2505243,27.6155831 13.6526757,27.1114383 13.6526757,26.3452171 L13.6526757,25.8887507 C13.6526757,25.2458529 14.2505913,24.7699809 14.8770911,24.9142571 C16.1243493,25.2014874 17.3955267,25.3452171 18.6889827,25.3452171 C19.9366931,25.3452171 21.2104778,25.2011926 22.5082083,24.9125972 C23.1327624,24.773706 23.7252898,25.2489393 23.7252898,25.8887507 L23.7252898,26.3452171 C23.7252898,26.4938989 23.7627305,26.6499799 23.8447291,26.8195288 C24.2389262,27.7430115 24.919697,28.152 26.1008826,28.152 C26.4339348,28.152 26.7976813,28.0917543 27.1969437,27.9673916 C28.1493225,27.6153275 28.5516277,27.1115656 28.5516277,26.3452171 L28.5516277,22.3211904 C28.5516277,22.0366104 28.6728758,21.7655098 28.8849989,21.5758006 C30.5559081,20.0814466 31.6749286,18.3001735 32.254956,16.2132289 C32.3426616,15.8976633 32.5793402,15.6450492 32.8885301,15.5369962 Z M14.6132546,6.5729678 C14.0839088,6.7304844 13.5270968,6.4290573 13.3695802,5.8997115 C13.2120635,5.3703657 13.5134906,4.8135538 14.0428364,4.6560371 C15.514689,4.2180602 17.1012107,4 18.7997714,4 C20.6673222,4 22.432031,4.2892996 24.088566,4.8688671 C24.6098661,5.0512529 24.8846104,5.6217032 24.7022245,6.1430033 C24.5198386,6.6643034 23.9493884,6.9390477 23.4280883,6.7566619 C21.9876532,6.2527007 20.4461954,6 18.7997714,6 C17.2892742,6 15.8945259,6.1917018 14.6132546,6.5729678 Z" id="Combined-Shape"></path>
    </g>
</svg>
