<?xml version="1.0" encoding="UTF-8"?>
<svg width="26px" height="26px" viewBox="0 0 26 26" version="1.1" xmlns="http://www.w3.org/2000/svg" xmlns:xlink="http://www.w3.org/1999/xlink">
    <g id="category" stroke="none" stroke-width="1" fill="none" fill-rule="evenodd">
        <path d="M2.45082612,9.3549634 L3.47152721,9.3549634 C3.7436523,8.78838484 4.07512157,8.25371154 4.46531037,7.75237015 C4.35136634,7.60354258 4.21231195,7.43574356 4.04853496,7.25013331 C3.66651486,6.81487389 3.4363579,6.50050061 3.33767233,6.24975452 C3.113429,5.66170584 3.47115579,5.23772855 4.03460371,5.04055007 C5.00676038,4.7748942 5.98797735,4.9641406 6.98513536,5.56440949 C8.68588794,4.52228789 10.5890545,4 12.6800763,4 C15.8449485,4 18.4437935,5.09114325 20.4311795,7.26279763 C21.383188,8.3132207 22.0249164,9.47309105 22.3512547,10.7383869 C22.4230489,10.6777834 22.4972405,10.6078538 22.573618,10.5282376 C22.7841325,10.3099131 23.1865567,9.70673571 23.7455315,8.75598311 C24.0412658,8.25297286 24.797991,8.39208368 24.8986313,8.96796051 L24.9906104,9.49427691 L25,9.61445751 C24.9676944,11.5092648 24.2679301,13.092843 22.9133916,14.3266302 C22.7176303,14.4979367 22.5705861,14.6214333 22.4475053,14.7169543 C22.3959213,14.7655315 22.3389039,14.8079194 22.276721,14.8458763 C21.8567162,16.1829677 21.1268215,17.3506269 20.093888,18.34144 L20.093888,20.6011915 C20.093888,21.6477637 19.4887224,22.411813 18.3991191,22.8163468 C18.003945,22.9413075 17.6524837,23 17.3123004,23 C16.0926633,23 15.2035728,22.4614406 14.7645642,21.4211437 C14.7107015,21.3096101 14.6673226,21.1901732 14.6359668,21.0661134 C13.9767764,21.1761672 13.3244591,21.2313321 12.6800763,21.2313321 C12.0251604,21.2313321 11.3776062,21.1779932 10.7384977,21.0713858 C10.5813639,21.8776522 10.0076273,22.4747561 9.09009489,22.8161851 C8.69157391,22.941487 8.34059649,23 8.00088419,23 C6.61322642,23 5.68613239,22.2746683 5.37472483,20.9346685 C5.30477123,20.6800139 5.26626467,20.4015867 5.26626467,20.1217947 L5.26626467,18.3353911 C4.50155315,17.582595 3.90445622,16.7785417 3.47715482,15.9232884 L2.45082612,15.9232884 C1.73333931,15.9232884 1.22748173,15.4992558 1.0675979,14.7873568 C1.02399592,14.6460377 1,14.5146136 1,14.3853539 L1,10.8459781 L1.01147072,10.7258026 C1.15101468,10.001592 1.616696,9.51616409 2.32375898,9.36812514 L2.45082612,9.3549634 Z M9.85214616,8.22927585 C10.7340958,7.960463 11.6941561,7.82530302 12.7338909,7.82530302 C13.8671895,7.82530302 14.9282358,8.00347049 15.9197441,8.35878997 C16.2785756,8.48738174 16.671239,8.29367236 16.7967824,7.92612797 C16.9223258,7.55858358 16.7332084,7.15638576 16.374377,7.02779399 C15.2341186,6.61916804 14.0193998,6.4151964 12.7338909,6.4151964 C11.5647045,6.4151964 10.4726391,6.56894043 9.45950482,6.87773754 C9.09513522,6.98879516 8.88765106,7.38137731 8.99607598,7.75459431 C9.10450089,8.1278113 9.48777657,8.34033347 9.85214616,8.22927585 Z" id="Combined-Shape" fill="#191919" fill-rule="nonzero"></path>
    </g>
</svg>
