<?xml version="1.0" encoding="UTF-8"?>
<svg width="24px" height="24px" viewBox="0 0 24 24" version="1.1" xmlns="http://www.w3.org/2000/svg" xmlns:xlink="http://www.w3.org/1999/xlink">
    <g id="Neu-CD" stroke="none" stroke-width="1" fill="none" fill-rule="evenodd">
        <g id="CD_Mehr---Einstellungen-Benachrichtigungen" transform="translate(-77.000000, -1307.000000)" >
            <path fill="#00a8d6" d="M93.6459477,1310.03386 L84,1319.67981 C84.0492089,1319.41431 84.0736207,1319.14609 84.0736207,1318.87507 L84.0736207,1315.06612 C84.0736207,1311.71589 86.8233368,1309 90.2152834,1309 C91.4858805,1309 92.6663602,1309.38109 93.6459477,1310.03386 Z M96.3233239,1314.42756 C96.3455513,1314.63741 96.3569461,1314.85045 96.3569461,1315.06612 L96.3569461,1318.87507 C96.3569461,1320.24185 97.4978487,1321.99476 99.873799,1324.05858 C100.566106,1324.65994 100.13548,1325.78762 99.2135334,1325.78762 L84.9632581,1325.78762 L96.3233239,1314.42756 Z M85.2162556,1327.76264 L94.4897803,1327.76264 C93.814846,1329.64871 91.9937024,1331 89.8530179,1331 C87.7123335,1331 85.8911898,1329.64871 85.2162556,1327.76264 Z M97.9077347,1307.18629 L100.029055,1309.30761 L79.5229584,1329.81371 L77.401638,1327.69239 L97.9077347,1307.18629 Z" id="Combined-Shape"></path>
        </g>
    </g>
</svg>
