<?xml version="1.0" encoding="UTF-8"?>
<svg width="18px" height="18px" viewBox="0 0 18 18" version="1.1" xmlns="http://www.w3.org/2000/svg" xmlns:xlink="http://www.w3.org/1999/xlink">
        <g id="Überweisung-1" transform="translate(-177.000000, -509.000000)" fill-rule="nonzero">
            <g id="Group" transform="translate(160.000000, 442.000000)">
                <path fill="#191919" d="M21.8078289,81.6063847 C22.9764094,82.4815965 24.4276649,83 26,83 C29.8659932,83 33,79.8659932 33,76 C33,74.4276649 32.4815965,72.9764094 31.6063847,71.8078289 L21.8078289,81.6063847 Z M20.3936153,80.1921711 L30.1921711,70.3936153 C29.0235906,69.5184035 27.5723351,69 26,69 C22.1340068,69 19,72.1340068 19,76 C19,77.5723351 19.5184035,79.0235906 20.3936153,80.1921711 Z M26,85 C21.0294373,85 17,80.9705627 17,76 C17,71.0294373 21.0294373,67 26,67 C30.9705627,67 35,71.0294373 35,76 C35,80.9705627 30.9705627,85 26,85 Z" id="Combined-Shape"></path>
            </g>
        </g>
</svg>
