<?xml version="1.0" encoding="UTF-8"?>
<svg width="20px" height="20px" viewBox="0 0 20 20" version="1.1" xmlns="http://www.w3.org/2000/svg" xmlns:xlink="http://www.w3.org/1999/xlink">
      <g id="Settings---Profil" transform="translate(-179.000000, -333.000000)" fill-rule="nonzero">
          <g id="Group-Copy-2" transform="translate(160.000000, 153.000000)">
              <path fill="#191919" d="M26.1440955,198.965577 C22.8286924,198.105649 20.2173966,195.530644 19.3476446,192.26615 C18.100159,187.583649 20.335149,183.245058 24.0513343,181.212111 C24.3199231,181.065142 24.6504171,181.262064 24.6504171,181.564655 L24.6504171,189.467098 C24.6504171,189.564896 24.651131,189.659342 24.6586167,189.748186 C24.7233978,192.591469 27.8064577,194.714766 30.8624303,193.213637 C31.5576037,192.872155 32.1202776,192.308655 32.4558708,191.618945 C33.9325177,188.584402 31.7246966,185.60206 28.8091783,185.60206 C28.4848239,185.60206 28.1696278,185.639786 27.867343,185.710379 C27.5568382,185.78284 27.2574906,185.560037 27.2574906,185.246002 L27.2574906,180.634636 C27.2574906,180.339132 27.4819401,180.08792 27.7802475,180.055997 C28.1182271,180.019676 28.4613265,180 28.8091783,180 C34.2266844,180 38.6184415,184.32297 38.6184415,189.655647 C38.6184415,195.841386 32.7091006,200.668567 26.1440955,198.965577" id="optiopay"></path>
          </g>
    </g>
</svg>
