<?xml version="1.0" encoding="UTF-8"?>
<svg width="26px" height="26px" viewBox="0 0 26 26" version="1.1" xmlns="http://www.w3.org/2000/svg" xmlns:xlink="http://www.w3.org/1999/xlink">
    <g id="category" stroke="none" stroke-width="1" fill="none" fill-rule="evenodd">
      <path fill="#00a8d6" transform="translate(13.968494, 14.101471) rotate(10.000000) translate(-13.968494, -14.101471) " d="M22.3256365,14.1014712 C22.3256365,18.7090426 18.5769937,22.458614 13.9684937,22.458614 C9.35999367,22.458614 5.61135082,18.7090426 5.61135082,14.1014712 C5.61135082,9.49297117 9.35999367,5.74432831 13.9684937,5.74432831 C18.5769937,5.74432831 22.3256365,9.49297117 22.3256365,14.1014712 Z M7.30148688,20.768478 C7.55253821,21.0195293 7.55253821,21.4265639 7.30148688,21.6776153 L5.78625806,23.1928441 C5.53520673,23.4438954 5.1281721,23.4438954 4.87712077,23.1928441 C4.62606944,22.9417927 4.62606944,22.5347581 4.87712077,22.2837068 L6.39234959,20.768478 C6.64340092,20.5174266 7.05043555,20.5174266 7.30148688,20.768478 Z M23.0598666,5.01009827 C23.3109179,5.2611496 23.3109179,5.66818423 23.0598666,5.91923556 L21.5446378,7.43446437 C21.2935864,7.6855157 20.8865518,7.6855157 20.6355005,7.43446437 C20.3844491,7.18341304 20.3844491,6.77637841 20.6355005,6.52532708 L22.1507293,5.01009827 C22.4017806,4.75904694 22.8088152,4.75904694 23.0598666,5.01009827 Z M7.30148688,7.43446437 C7.05043555,7.6855157 6.64340092,7.6855157 6.39234959,7.43446437 L4.87712077,5.91923556 C4.62606944,5.66818423 4.62606944,5.2611496 4.87712077,5.01009827 C5.1281721,4.75904694 5.53520673,4.75904694 5.78625806,5.01009827 L7.30148688,6.52532708 C7.55253821,6.77637841 7.55253821,7.18341304 7.30148688,7.43446437 Z M23.0598666,23.1928441 C22.8088152,23.4438954 22.4017806,23.4438954 22.1507293,23.1928441 L20.6355005,21.6776153 C20.3844491,21.4265639 20.3844491,21.0195293 20.6355005,20.768478 C20.8865518,20.5174266 21.2935864,20.5174266 21.5446378,20.768478 L23.0598666,22.2837068 C23.3109179,22.5347581 23.3109179,22.9417927 23.0598666,23.1928441 Z M4.53992225,14.1014712 C4.53992225,14.4565114 4.2521053,14.7443283 3.8970651,14.7443283 L2.61135082,14.7443283 C2.25631062,14.7443283 1.96849367,14.4565114 1.96849367,14.1014712 C1.96849367,13.746431 2.25631062,13.458614 2.61135082,13.458614 L3.8970651,13.458614 C4.2521053,13.458614 4.53992225,13.746431 4.53992225,14.1014712 Z M25.9684937,14.1014712 C25.9684937,14.4565114 25.6806767,14.7443283 25.3256365,14.7443283 L24.0399222,14.7443283 C23.684882,14.7443283 23.3970651,14.4565114 23.3970651,14.1014712 C23.3970651,13.746431 23.684882,13.458614 24.0399222,13.458614 L25.3256365,13.458614 C25.6806767,13.458614 25.9684937,13.746431 25.9684937,14.1014712 Z M13.9684937,4.67289974 C13.6134535,4.67289974 13.3256365,4.38508279 13.3256365,4.0300426 L13.3256365,2.74432831 C13.3256365,2.38928811 13.6134535,2.10147117 13.9684937,2.10147117 C14.3235339,2.10147117 14.6113508,2.38928811 14.6113508,2.74432831 L14.6113508,4.0300426 C14.6113508,4.38508279 14.3235339,4.67289974 13.9684937,4.67289974 Z M13.9684937,26.1014712 C13.6134535,26.1014712 13.3256365,25.8136542 13.3256365,25.458614 L13.3256365,24.1728997 C13.3256365,23.8178595 13.6134535,23.5300426 13.9684937,23.5300426 C14.3235339,23.5300426 14.6113508,23.8178595 14.6113508,24.1728997 L14.6113508,25.458614 C14.6113508,25.8136542 14.3235339,26.1014712 13.9684937,26.1014712 Z" id="path-1"></path>
    </g>
</svg>
