<?xml version="1.0" encoding="UTF-8"?>
<svg width="48px" height="48px" viewBox="0 0 48 48" version="1.1" xmlns="http://www.w3.org/2000/svg" xmlns:xlink="http://www.w3.org/1999/xlink">
    <!-- Generator: Sketch 55.2 (78181) - https://sketchapp.com -->
    <title>illu/kategorie/familie-kinder</title>
    <desc>Created with Sketch.</desc>
    <g id="illu/kategorie/familie-kinder" stroke="none" stroke-width="1" fill="none" fill-rule="evenodd">
        <path d="M25.9972852,23.7892516 C25.4190715,24.1510774 24.8874999,24.5805203 24.4136458,25.0665048 C23.2093852,24.0870851 21.6732531,23.5 20,23.5 C16.1340068,23.5 13,26.6340068 13,30.5 L13,37 L22,37 L22,38 C22,38.3506354 22.0601542,38.6872211 22.1707057,39 L12,39 C11.4477153,39 11,38.5522847 11,38 L11,30.5 C11,25.5294373 15.0294373,21.5 20,21.5 C22.3037535,21.5 24.4053409,22.3655762 25.9972852,23.7892516 Z M20,20 C17.2385763,20 15,17.7614237 15,15 C15,12.2385763 17.2385763,10 20,10 C22.7614237,10 25,12.2385763 25,15 C25,17.7614237 22.7614237,20 20,20 Z M20,18 C21.6568542,18 23,16.6568542 23,15 C23,13.3431458 21.6568542,12 20,12 C18.3431458,12 17,13.3431458 17,15 C17,16.6568542 18.3431458,18 20,18 Z M30.5,24.5 C34.0898509,24.5 37,27.4101491 37,31 L37,38 C37,38.5522847 36.5522847,39 36,39 L25,39 C24.4477153,39 24,38.5522847 24,38 L24,31 C24,27.4101491 26.9101491,24.5 30.5,24.5 Z M35,37 L35,31 C35,28.5147186 32.9852814,26.5 30.5,26.5 C28.0147186,26.5 26,28.5147186 26,31 L26,37 L35,37 Z M30.5,23 C28.0147186,23 26,20.9852814 26,18.5 C26,16.0147186 28.0147186,14 30.5,14 C32.9852814,14 35,16.0147186 35,18.5 C35,20.9852814 32.9852814,23 30.5,23 Z M30.5,21 C31.8807119,21 33,19.8807119 33,18.5 C33,17.1192881 31.8807119,16 30.5,16 C29.1192881,16 28,17.1192881 28,18.5 C28,19.8807119 29.1192881,21 30.5,21 Z" id="illu" fill="#191919"></path>
    </g>
</svg>