<?xml version="1.0" encoding="UTF-8"?>
<svg width="25px" height="21px" viewBox="0 0 25 21" version="1.1" xmlns="http://www.w3.org/2000/svg" xmlns:xlink="http://www.w3.org/1999/xlink">
        <g id="Katharinas-Welt-mobile" transform="translate(-301.000000, -134.000000)">
            <path fill="#191919" d="M304.246753,139.132638 C304.246753,140.447094 305.188312,141.323398 306.38961,141.323398 C307.623377,141.323398 308.532468,140.415797 308.532468,139.132638 C308.532468,137.849478 307.623377,136.973174 306.38961,136.973174 C305.188312,136.973174 304.246753,137.849478 304.246753,139.132638 Z M301,139.132638 C301,136.253353 303.467532,134 306.38961,134 C309.311688,134 311.811688,136.253353 311.811688,139.132638 C311.811688,142.043219 309.311688,144.233979 306.38961,144.233979 C303.435065,144.233979 301,141.980626 301,139.132638 Z M318.435065,149.898659 C318.435065,151.213115 319.376623,152.089419 320.577922,152.089419 C321.811688,152.089419 322.720779,151.181818 322.720779,149.898659 C322.720779,148.615499 321.811688,147.739195 320.577922,147.739195 C319.376623,147.739195 318.435065,148.615499 318.435065,149.898659 Z M315.188312,149.898659 C315.188312,147.019374 317.655844,144.766021 320.577922,144.766021 C323.5,144.766021 326,147.019374 326,149.898659 C326,152.80924 323.5,155 320.577922,155 C317.623377,155 315.188312,152.746647 315.188312,149.898659 Z M307.948052,154.655738 L304.181818,154.655738 L319.051948,134.344262 L322.818182,134.344262 L307.948052,154.655738 Z" id="%"></path>
    </g>
</svg>
