<?xml version="1.0" encoding="UTF-8"?>
<svg width="24px" height="24px" viewBox="0 0 24 24" version="1.1" xmlns="http://www.w3.org/2000/svg" xmlns:xlink="http://www.w3.org/1999/xlink">
    <g id="phone" stroke="none" stroke-width="1" fill="none" fill-rule="evenodd">
      <path fill="#00A8D6" transform="translate(11.664351, 11.664351) rotate(1.000000) translate(-11.664351, -11.664351) " d="M17.8979759,21.164351 C18.0509942,21.164351 18.1790957,21.147992 18.2761113,21.1186106 C18.6863333,20.9939207 19.2020199,20.4893477 20.3439531,19.1379343 C20.606242,18.8249777 20.7169621,18.6951389 20.8315508,18.5694815 C21.0926296,18.2800118 21.1818409,17.9880888 21.1615882,17.6997664 C21.1328184,17.2955252 20.8776081,16.9340792 20.6785166,16.7696248 L17.2045972,14.4299071 L17.1059237,14.3770415 C16.4349663,14.1367359 15.8745279,14.2108784 15.506661,14.3674957 L13.5218171,15.4313587 L13.2936367,15.2641909 C11.1326277,13.6810084 9.36079058,11.708614 8.08202706,9.8847669 L7.93132148,9.66982182 L8.04916983,9.43560913 C8.47379131,8.59171321 8.85328408,7.86441601 9.07630295,7.49138642 C9.39599921,6.95513878 9.17689613,6.17813988 8.80783211,5.57971736 C8.48164178,5.08311436 8.12742477,4.55892391 7.74690015,4.02524877 C7.18381164,3.23553285 6.72709174,2.66344695 6.47405136,2.448889 C5.98811887,2.03475338 5.33411454,2.1072587 4.88220977,2.44449235 C3.66305118,3.48901395 2.90446768,4.21671717 2.50125021,4.69592583 C2.25415512,4.98958896 2.2067289,5.08431208 2.18834307,5.1939994 C2.08707263,5.79649798 2.30614953,6.85975756 2.85030155,8.26785995 C3.75341915,11.385684 9.9034117,18.0757569 13.4173417,19.7386988 C15.2116275,20.5895469 16.9499837,21.164351 17.8979759,21.164351 Z" id="path-1"></path>
    </g>
</svg>
