<?xml version="1.0" encoding="UTF-8"?>
<svg width="48px" height="48px" viewBox="0 0 48 48" version="1.1" xmlns="http://www.w3.org/2000/svg" xmlns:xlink="http://www.w3.org/1999/xlink">
    <!-- Generator: Sketch 55.2 (78181) - https://sketchapp.com -->
    <title>illu/kategorie/reisen</title>
    <desc>Created with Sketch.</desc>
    <g id="illu/kategorie/reisen" stroke="none" stroke-width="1" fill="none" fill-rule="evenodd">
        <path d="M27.9393743,13.9391342 C30.0455827,13.1726212 31.0986854,12.7893577 32.573029,12.252768 C34.7336692,11.4663995 36.4777295,10.8315975 37.6568544,10.4023456 C38.9283355,9.93971749 40.0519283,9.71187961 41.0175005,9.71187961 C42.6675377,9.71187961 43.8887426,10.4057971 44.3262628,11.607493 C45.0231655,13.5237618 42.78278,15.5377463 40.0375457,16.5373303 C38.877558,16.9594469 34.1748019,18.6496717 27.0517198,21.2059698 C24.1291904,22.2547914 21.0182097,23.3708196 17.9072311,24.4865645 C16.8183903,24.8770746 16.1443465,25.1187952 14.8999542,25.5650228 C13.966656,25.8996773 13.966656,25.8996773 13.7592428,25.9740419 C13.6284953,26.0209194 13.489416,26.0400452 13.3508682,26.0302006 L4.20671605,25.3804558 C3.92894141,25.3607183 3.67197786,25.2260475 3.49768279,25.008862 L3.0102795,24.4012786 L0.209724834,20.7848875 C-0.198071643,20.2582948 0.0132025053,19.487698 0.63254161,19.2427146 L2.3984414,18.5442019 C2.62458475,18.4547495 2.8755756,18.4507716 3.10444007,18.5330128 L9.17541653,20.7145827 L14.8018559,18.7103314 L9.28887094,12.4558339 C8.94672837,12.0676721 8.95719782,11.4826137 9.31300898,11.1069417 L11.0126954,9.31238097 C11.2926313,9.01681945 11.7237936,8.92045319 12.1029246,9.06871098 L26.1878344,14.5765631 C26.4374688,14.4857151 26.8097922,14.3502173 27.9393743,13.9391342 Z M14.2248779,23.6823991 C15.4692217,23.2361889 16.1432434,22.9944762 17.2320467,22.6039796 C20.3429085,21.4882766 23.4537682,20.3722918 26.3572232,19.3303154 C33.4935186,16.7692754 38.1979966,15.0784317 39.3534448,14.6579671 C41.1488375,14.0042358 42.5964772,12.7028866 42.4468239,12.2913857 C42.3260157,11.9595732 41.890107,11.7118796 41.0175005,11.7118796 C40.304676,11.7118796 39.4065141,11.8940055 38.3408549,12.2817453 C37.1618272,12.7109618 35.4177254,13.3457789 33.2580254,14.1318052 C31.7826801,14.6687595 30.7295672,15.0520267 28.6233444,15.818545 C26.938366,16.4317507 26.938366,16.4317507 26.5171189,16.5850493 C26.2885443,16.6682313 26.0374879,16.6652503 25.8109528,16.5766646 L12.0017017,11.1766078 L11.3934301,11.8188323 L17.2786218,18.4955995 C17.7463553,19.0262444 17.5303564,19.8614886 16.864011,20.0988542 L9.50951128,22.7186755 C9.29158465,22.7963054 9.05348363,22.7959757 8.83577282,22.7177426 L2.78320444,20.5427875 L2.60604258,20.612865 L4.58083226,23.1631092 L4.78413634,23.4164423 L13.2825167,24.0203013 C13.4144395,23.9729995 13.6301769,23.8956421 14.2248779,23.6823991 Z M39,26 L43,26 C44.1045695,26 45,26.8954305 45,28 L45,38 C45,39.1045695 44.1045695,40 43,40 L27,40 C25.8954305,40 25,39.1045695 25,38 L25,28 C25,26.8954305 25.8954305,26 27,26 L31,26 L31,25 C31,23.3431458 32.3431458,22 34,22 L36,22 C37.6568542,22 39,23.3431458 39,25 L39,26 Z M37,26 L37,25 C37,24.4477153 36.5522847,24 36,24 L34,24 C33.4477153,24 33,24.4477153 33,25 L33,26 L37,26 Z M27,28 L27,38 L43,38 L43,28 L27,28 Z" id="illu" fill="#191919"></path>
    </g>
</svg>