<?xml version="1.0" encoding="UTF-8"?>
<svg width="24px" height="34px" viewBox="0 0 24 34" version="1.1" xmlns="http://www.w3.org/2000/svg" xmlns:xlink="http://www.w3.org/1999/xlink">
        <g id="plant.jsx" transform="translate(1.000000, 1.000000)" fill="#00A8D6" fill-rule="nonzero" stroke="#FFFFFF" stroke-width="0.7">
            <path d="M11.869258,27.2131041 C11.9997987,28.368966 12.1875726,29.5951634 12.4337826,30.9082833 C12.5605504,31.5843785 12.1152326,32.2352276 11.4391374,32.3619955 C10.7630422,32.4887633 10.1121931,32.0434455 9.9854253,31.3673503 C9.785661,30.3019407 9.2522469,27.4184197 8.9193885,25.6263664 C7.1000054,23.8041691 6.9383448,23.6266745 6.0984353,22.6976909 C1.8247218,17.9707419 0,13.7253899 0,7.0579269 C0,6.45078113 0.4377738,5.93210063 1.0362925,5.83011323 C4.0268731,5.32051918 6.5535872,5.78267206 8.4832502,7.35951904 C10.7465931,3.33663724 14.5998882,0.405138081 19.4095802,0.00433041774 C19.954997,-0.0411209887 20.4661778,0.274806119 20.6694427,0.782968292 C21.8820427,3.8144683 22.322749,7.25748631 21.5658132,11.1367825 C20.5690821,16.2450291 17.559848,21.5502379 12.1495515,26.9771516 C12.0677888,27.0699757 11.9729665,27.1491302 11.869258,27.2131041 Z M9.3534347,20.1254924 C9.7813859,16.6735603 10.8940268,13.6346586 12.6339098,10.3595847 C12.5094552,10.5938522 13.9157501,7.99433737 14.2472897,7.33125823 C14.5549177,6.71600231 15.3030629,6.46662057 15.9183188,6.77424853 C16.5335747,7.08187649 16.7829565,7.8300217 16.4753285,8.44527763 C16.1226671,9.15060051 14.6907689,11.7974426 14.8337715,11.5282612 C12.6746648,15.592462 11.5741294,19.1878732 11.6475824,23.9059091 C15.9243772,19.288613 18.301203,14.8606597 19.1208974,10.6597258 C19.7055203,7.66353347 19.473011,4.99283057 18.6843339,2.60603977 C11.4430503,3.86200078 7.0760737,12.4405303 9.3534347,20.1254924 Z M7.348619,9.81764156 C6.0951779,8.51182441 4.4750868,8.01640993 2.5095826,8.15632877 C2.6719996,12.8265978 3.9104653,16.0609864 6.6197522,19.4689687 C6.3449776,18.1497549 6.2301457,16.8179566 6.2623536,15.5028918 C6.1254229,15.2460129 5.9794969,14.9953512 5.8223229,14.744958 C5.4585063,14.1653636 5.0171262,13.5586513 4.4246356,12.818038 C3.9949222,12.2808963 4.0820101,11.4971053 4.6191518,11.067392 C5.1562935,10.6376786 5.9400845,10.7247665 6.3697978,11.2619082 C6.5056792,11.43176 6.634847,11.5959367 6.7580176,11.7555265 C6.9183253,11.0956734 7.1158174,10.448292 7.348619,9.81764156 Z" id="category-icon-6"></path>
        </g>
</svg>
