<?xml version="1.0" encoding="UTF-8"?>
<svg width="18px" height="18px" viewBox="0 0 18 18" version="1.1" xmlns="http://www.w3.org/2000/svg" xmlns:xlink="http://www.w3.org/1999/xlink">
    <g id="Page-1" stroke="none" stroke-width="1" fill="none" fill-rule="evenodd">
      <path fill="#00A8D6" d="M10,8 L17,8 C17.5522847,8 18,8.44771525 18,9 C18,9.5522847 17.5522847,10 17,10 L10,10 L10,17 C10,17.5522847 9.5522847,18 9,18 C8.44771525,18 8,17.5522847 8,17 L8,10 L1,10 C0.44771525,10 0,9.5522847 0,9 C0,8.44771525 0.44771525,8 1,8 L8,8 L8,1 C8,0.44771525 8.44771525,0 9,0 C9.5522847,0 10,0.44771525 10,1 L10,8 Z" id="path-1"></path>
    </g>
</svg>
