<svg width="14px" height="18px" viewBox="0 0 14 18" version="1.1" xmlns="http://www.w3.org/2000/svg" xmlns:xlink="http://www.w3.org/1999/xlink">
    <g id="Page-1" stroke="none" stroke-width="1" fill="none" fill-rule="evenodd">
        <g id="privacy.jsx" fill="#191919" fill-rule="nonzero">
            <path d="M7,18 C4.46808511,18 0,12.6814363 0,7.98881119 L0,2.52170911 L7,0 L14,2.52170911 L14,7.98881119 C14,12.6814363 9.5319149,18 7,18 Z M7,7.55555556 C7.9818396,7.55555556 8.7777778,6.75961733 8.7777778,5.77777778 C8.7777778,4.79593822 7.9818396,4 7,4 C6.01816044,4 5.22222222,4.79593822 5.22222222,5.77777778 C5.22222222,6.75961733 6.01816044,7.55555556 7,7.55555556 Z M6.55555556,8.44444444 C4.59187645,8.44444444 3,10.0363209 3,12 L11,12 C11,10.0363209 9.4081236,8.44444444 7.4444444,8.44444444 L6.55555556,8.44444444 Z" id="path-1"></path>
        </g>
    </g>
</svg>
