<?xml version="1.0" encoding="UTF-8"?>
<svg width="24px" height="24px" viewBox="0 0 24 24" version="1.1" xmlns="http://www.w3.org/2000/svg" xmlns:xlink="http://www.w3.org/1999/xlink">
    <g id="qrcode" stroke="#191919" stroke-width="1" fill="none" fill-rule="evenodd" stroke-linecap="round" stroke-linejoin="round">
        <path d="M16.1666667,5.5 L17.8333333,5.5 C18.2015232,5.5 18.5,5.79847683 18.5,6.16666667 L18.5,7.83333333 C18.5,8.20152317 18.2015232,8.5 17.8333333,8.5 L16.1666667,8.5 C15.7984768,8.5 15.5,8.20152317 15.5,7.83333333 L15.5,6.16666667 C15.5,5.79847683 15.7984768,5.5 16.1666667,5.5 Z" id="Rectangle-13-Copy-4"></path>
        <path d="M6.16666667,5.5 L7.83333333,5.5 C8.20152317,5.5 8.5,5.79847683 8.5,6.16666667 L8.5,7.83333333 C8.5,8.20152317 8.20152317,8.5 7.83333333,8.5 L6.16666667,8.5 C5.79847683,8.5 5.5,8.20152317 5.5,7.83333333 L5.5,6.16666667 C5.5,5.79847683 5.79847683,5.5 6.16666667,5.5 Z" id="Rectangle-13-Copy-5"></path>
        <path d="M6.16666667,15.5 L7.83333333,15.5 C8.20152317,15.5 8.5,15.7984768 8.5,16.1666667 L8.5,17.8333333 C8.5,18.2015232 8.20152317,18.5 7.83333333,18.5 L6.16666667,18.5 C5.79847683,18.5 5.5,18.2015232 5.5,17.8333333 L5.5,16.1666667 C5.5,15.7984768 5.79847683,15.5 6.16666667,15.5 Z" id="Rectangle-13-Copy-6"></path>
        <polyline id="Path-902" points="10.5 5.5 13.5 5.5 13.5 7.5"></polyline>
        <path d="M10.5,7.5 L11.5,7.5" id="Path-903"></path>
        <path d="M5.5,13.5 L7.5,13.5" id="Path-903-Copy"></path>
        <path d="M12.5,9.5 L12.5,11.5" id="Path-904"></path>
        <polyline id="Path-905" points="13.5 13.5 13.5 15.5 10.5 15.5"></polyline>
        <path d="M12.5,13.5 L13.5,13.5" id="Path-906"></path>
        <path d="M9.5,13.5 L10.5,13.5" id="Path-906-Copy"></path>
        <polyline id="Path-907" points="10.5 18.5 10.5 17.5 12.5 17.5"></polyline>
        <polyline id="Path-908" points="9.5 11.5 8.5 11.5 8.5 10.5 7.5 10.5"></polyline>
        <path d="M5.5,10.5 L5.5,11.5" id="Path-910"></path>
        <path d="M13.5,9.5 L10.5,9.5" id="Path-911"></path>
        <path d="M18.5,11.5 L17.5,11.5" id="Path-912"></path>
        <path d="M18.5,10.5 L18.5,12.5" id="Path-913"></path>
        <path d="M15.5,10.5 L15.5,12.5" id="Path-914"></path>
        <polyline id="Path-916" points="18.5 14.5 17.5 14.5 17.5 15.5 15.5 15.5 15.5 14.5"></polyline>
        <path d="M13.5,11.5 L11.5,11.5" id="Path-920"></path>
        <polyline id="Path-921" points="18.5 17.5 18.5 18.5 14.5 18.5 14.5 17.5"></polyline>
        <path d="M2.5,6.5 L2.5,4.5 C2.5,3.3954305 3.3954305,2.5 4.5,2.5 L6.5,2.5" id="Path-419"></path>
        <path d="M17.5,2.5 L19.5,2.5 C20.6045695,2.5 21.5,3.3954305 21.5,4.5 L21.5,6.5" id="Path-420"></path>
        <path d="M6.5,21.5 L4.5,21.5 C3.3954305,21.5 2.5,20.6045695 2.5,19.5 L2.5,17.5 L2.5,17.5" id="Path-421"></path>
        <path d="M21.5,17.5 L21.5,19.5 C21.5,20.6045695 20.6045695,21.5 19.5,21.5 L17.5,21.5" id="Path-422"></path>
        <path d="M16.5,17.5 L16.5,18.5" id="Path-923"></path>
    </g>
</svg>
