<?xml version="1.0" encoding="UTF-8"?>
<svg width="42px" height="34px" viewBox="0 0 42 34" version="1.1" xmlns="http://www.w3.org/2000/svg" xmlns:xlink="http://www.w3.org/1999/xlink">
    <!-- Generator: Sketch 54.1 (76490) - https://sketchapp.com -->
    <title>weather/rain</title>
    <desc>Created with Sketch.</desc>
    <defs>
        <linearGradient x1="18.7228261%" y1="9.16168635%" x2="87.9347826%" y2="91.3007432%" id="linearGradient-1">
            <stop stop-color="#005AAB" offset="0%"></stop>
            <stop stop-color="#00BAE0" offset="100%"></stop>
        </linearGradient>
    </defs>
    <g id="Page-1" stroke="none" stroke-width="1" fill="none" fill-rule="evenodd" opacity="0.800000012">
        <g id="Tablet-Teaser-Finanzwetter" transform="translate(-773.000000, -204.000000)" fill="url(#linearGradient-1)">
            <g id="Group-11" transform="translate(763.000000, 189.000000)">
                <g id="weather/rain" transform="translate(10.000000, 10.000000)">
                    <path d="M32.6414118,9.75467736 C30.8675294,9.75467736 29.1496471,10.2512409 27.6623529,11.1762123 C25.8357647,7.42277587 22.0063529,5 17.6647059,5 C13.9374118,5 10.5444706,6.78665521 8.46423529,9.8130966 C3.66635294,10.2496182 0,14.1198931 0,18.8940435 C0,23.9327033 4.19835294,28.0334097 9.35858824,28.0334097 L32.6414118,28.0334097 C37.8016471,28.0334097 42,23.9327033 42,18.8940435 C42,13.8553837 37.8016471,9.75467736 32.6414118,9.75467736 Z M32.6414118,25.5992745 L9.35858824,25.5992745 C5.56047059,25.5992745 2.47058824,22.5906835 2.47058824,18.8940435 C2.47058824,15.2314815 5.42376471,12.2942917 9.19552941,12.2082856 L9.87905882,12.192058 L10.2282353,11.6143566 C11.8127059,8.99684994 14.5929412,7.43413517 17.6647059,7.43413517 C21.4974118,7.43413517 24.8178824,9.86177931 25.9263529,13.4756586 L26.4995294,15.3418289 L27.9489412,14.0176594 C29.2385882,12.8379152 30.9070588,12.1888125 32.6414118,12.1888125 C36.4395294,12.1888125 39.5294118,15.1974036 39.5294118,18.8940435 C39.5294118,22.5906835 36.4395294,25.5992745 32.6414118,25.5992745 Z M7.77082353,37.8397289 C7.57647059,38.2437953 7.75105882,38.7273769 8.16117647,38.9204849 C8.27647059,38.9740359 8.39670588,39 8.51364706,39 C8.82329412,39 9.11811765,38.8296105 9.25976471,38.5358916 L12.6922353,31.4330851 C12.8865882,31.0306415 12.712,30.5454372 12.3018824,30.3523291 C11.8884706,30.1624666 11.3992941,30.3328561 11.2032941,30.7369225 L7.77082353,37.8397289 Z M13.3214118,37.8397289 C13.1254118,38.2437953 13.3,38.7289996 13.7117647,38.9204849 C13.8254118,38.9740359 13.9456471,39 14.0642353,39 C14.3722353,39 14.6670588,38.8296105 14.8087059,38.5358916 L18.2395294,31.4330851 C18.4355294,31.0290187 18.2609412,30.5454372 17.8508235,30.3523291 C17.4423529,30.1624666 16.9482353,30.3312333 16.7538824,30.7369225 L13.3214118,37.8397289 Z M18.872,37.8397289 C18.676,38.2437953 18.8505882,38.7273769 19.2607059,38.9204849 C19.376,38.9740359 19.4962353,39 19.6148235,39 C19.9228235,39 20.2176471,38.8296105 20.3592941,38.5358916 L23.7901176,31.4330851 C23.9877647,31.0306415 23.8115294,30.5454372 23.4014118,30.3523291 C22.9912941,30.1624666 22.4971765,30.3312333 22.3044706,30.7369225 L18.872,37.8397289 Z M24.4225882,37.8397289 C24.2265882,38.2437953 24.4011765,38.7273769 24.8129412,38.9204849 C24.9265882,38.9740359 25.0468235,39 25.1654118,39 C25.4734118,39 25.7698824,38.8296105 25.9082353,38.5358916 L29.3423529,31.4330851 C29.5383529,31.0306415 29.3621176,30.5454372 28.952,30.3523291 C28.5435294,30.1624666 28.0494118,30.3312333 27.8550588,30.7369225 L24.4225882,37.8397289 Z" id="Fill-1-Copy-7"></path>
                </g>
            </g>
        </g>
    </g>
</svg>