<svg width="21px" height="21px" viewBox="0 0 21 21" version="1.1" xmlns="http://www.w3.org/2000/svg" xmlns:xlink="http://www.w3.org/1999/xlink">
    <g id="Page-1" stroke="none" stroke-width="1" fill="none" fill-rule="evenodd">
        <path fill="#191919" d="M1.29068957,16 L2.33416784,12 L5.46460262,15 L1.29068957,16 Z M6.50808088,14 L3.3776461,11 L11.7254722,3 L14.855907,6 L6.50808088,14 Z M15.8993852,5 L12.7689504,2 L14.855907,0 L17.9863417,3 L15.8993852,5 Z M0.52935912,19.3091508 C0.05831146,18.9909719 -0.05439857,18.3670882 0.27761421,17.9156675 C0.60962699,17.4642468 1.26063611,17.356233 1.73168376,17.6744119 L1.92801486,17.8070279 C3.47931176,18.8548836 5.58743789,18.7044404 6.95967828,17.447951 L7.18509924,17.2415448 C8.97077,15.6064986 11.8014379,15.6682885 13.507573,17.3795563 C13.6168769,17.4891891 13.7200323,17.604304 13.8166038,17.7244154 C14.3654654,18.4070652 15.2101978,18.7425362 16.0448906,18.6928304 C16.5461102,18.6629828 17.0437096,18.4942478 17.4714524,18.1783978 C17.5015955,18.1561398 17.5312263,18.1332517 17.5603234,18.1097501 C18.1969774,17.5955268 18.6744679,17.2098594 18.9927949,16.9527477 C20.0289655,16.1158363 21.3796007,17.6405285 20.3462753,18.4751419 C20.0260515,18.7337856 19.5457158,19.1217511 18.9052682,19.6390385 C18.8528692,19.681361 17.2158528,20.5870396 16.3841952,20.6722336 C14.814649,20.8330158 13.1974874,20.231194 12.1634592,18.9451156 C12.1119566,18.881059 12.0569429,18.8196671 11.99865,18.7611988 C11.0887515,17.848563 9.5791288,17.8156099 8.6268132,18.6875959 L8.4013922,18.8940022 C6.30806691,20.8107516 3.09216263,21.0402496 0.72569022,19.4417667 L0.52935912,19.3091508 Z" id="path-1"></path>
    </g>
</svg>
