<svg width="16px" height="16px" viewBox="0 0 16 16" version="1.1" xmlns="http://www.w3.org/2000/svg" xmlns:xlink="http://www.w3.org/1999/xlink">
    <g id="restzeit.jsx" transform="translate(-1.000000, -1.000000)" fill-rule="nonzero">
      <path fill="#191919" d="M1.88,12.221 L3.309,11.644 C3.58,12.13 3.917,12.578 4.311,12.976 L3.362,14.191 C2.76516211,13.6180238 2.2647258,12.9524638 1.88,12.22 L1.88,12.221 Z M1.586,11.596 L1.525,11.444 L1.586,11.596 Z M1.306,10.802 C1.07299013,10.0081719 0.970984974,9.18165993 1.004,8.355 L2.531,8.569 C2.52242995,9.1273667 2.59073733,9.68425689 2.734,10.224 L1.305,10.802 L1.306,10.802 Z M3.809,14.586 C3.899,14.66 3.989,14.731 4.082,14.8 L3.809,14.586 Z M4.569,15.134 L5.518,13.919 C7.90643613,15.34263 10.9541209,14.979116 12.940707,13.0336532 C14.927293,11.0881904 15.3544688,8.04877502 13.9811035,5.6310866 C12.6077381,3.21339817 9.7783241,2.02388512 7.09,2.734 L6.513,1.305 C9.89562243,0.320486092 13.5134841,1.7711067 15.2789482,4.81980132 C17.0444122,7.86849594 16.5018104,11.7283932 13.9642436,14.1721929 C11.4266768,16.6159926 7.54909378,17.0129474 4.569,15.134 L4.569,15.134 Z M1.058,7.71 C1.067,7.637 1.078,7.565 1.088,7.492 L1.058,7.71 Z M1.219,6.839 C1.4146002,6.0353868 1.73914036,5.2687831 2.18,4.569 L3.395,5.518 C3.115,5.987 2.895,6.501 2.745,7.053 L1.22,6.839 L1.219,6.839 Z M5.87,1.525 L5.718,1.586 L5.87,1.525 Z M5.093,1.88 L5.67,3.309 C5.18265364,3.58070789 4.7345434,3.91746341 4.338,4.31 L3.124,3.361 C3.69674958,2.76460436 4.3619621,2.26451312 5.094,1.88 L5.093,1.88 Z M2.514,4.082 C2.584,3.989 2.654,3.898 2.728,3.809 L2.514,4.082 Z M11.496,10.412 L10.413,11.496 L7.89,8.974 L7.89,4.063 L9.422,4.063 L9.422,8.34 L11.495,10.413 L11.496,10.412 Z" id="a"></path>
    </g>
</svg>
