<?xml version="1.0" encoding="UTF-8"?>
<svg width="18px" height="21px" viewBox="0 0 18 21" version="1.1" xmlns="http://www.w3.org/2000/svg" xmlns:xlink="http://www.w3.org/1999/xlink">
    <g id="Shop-+-Mehr" stroke="none" stroke-width="1" fill="none" fill-rule="evenodd">
        <g id="Settings---Profil" transform="translate(-179.000000, -214.000000)">
            <g id="Group-Copy-2" transform="translate(160.000000, 153.000000)">
                <path fill="#191919" d="M23.5017908,78.1003694 L31.8497665,78.1003694 C31.2421945,79.8193489 29.602811,81.05092 27.6757787,81.05092 C25.7487463,81.05092 24.1093629,79.8193489 23.5017908,78.1003694 Z M28.001888,61 C31.0552997,61 33.5305789,63.4752792 33.5305789,66.5286909 L33.5305789,70.0001944 C33.5305789,71.2458828 34.5576131,72.8434916 36.6964305,74.7244692 C37.3196418,75.2725508 36.9319942,76.3003306 36.102063,76.3003306 L19.901713,76.3003306 C19.0204032,76.3003306 18.6642723,75.1647638 19.3877447,74.6614799 C21.4798566,73.2061014 22.4731972,71.6609049 22.4731972,70.0001944 L22.4731972,66.5286909 C22.4731972,63.4752792 24.9484764,61 28.001888,61 Z" id="ringbell"></path>
            </g>
        </g>
    </g>
</svg>
