<?xml version="1.0" encoding="UTF-8"?>
<svg width="20px" height="20px" viewBox="0 0 20 20" version="1.1" xmlns="http://www.w3.org/2000/svg" xmlns:xlink="http://www.w3.org/1999/xlink">
    <g id="Page-1" stroke="none" stroke-width="1" fill="none" fill-rule="evenodd">
      <path fill="#00a8d6" d="M15.4176809,13.5792034 L18.9775721,17.1390946 C19.4852537,17.6467761 19.4852537,18.4698906 18.9775721,18.9775721 C18.4698906,19.4852537 17.6467761,19.4852537 17.1390946,18.9775721 L13.5792034,15.4176809 C12.1723793,16.4491865 10.4364933,17.0583333 8.55833334,17.0583333 C3.86391296,17.0583333 0.0583333373,13.2527537 0.0583333373,8.55833334 C0.0583333373,3.86391296 3.86391296,0.0583333373 8.55833334,0.0583333373 C13.2527537,0.0583333373 17.0583333,3.86391296 17.0583333,8.55833334 C17.0583333,10.4364933 16.4491865,12.1723793 15.4176809,13.5792034 Z M8.55833334,14.5583333 C11.8720418,14.5583333 14.5583333,11.8720418 14.5583333,8.55833334 C14.5583333,5.24462484 11.8720418,2.55833334 8.55833334,2.55833334 C5.24462484,2.55833334 2.55833334,5.24462484 2.55833334,8.55833334 C2.55833334,11.8720418 5.24462484,14.5583333 8.55833334,14.5583333 Z" id="path-1"></path>
    </g>
</svg>
