<?xml version="1.0" encoding="UTF-8"?>
<svg width="20px" height="20px" viewBox="0 0 20 20" version="1.1" xmlns="http://www.w3.org/2000/svg" xmlns:xlink="http://www.w3.org/1999/xlink">
    <g id="settings" stroke="none" stroke-width="1" fill="none" fill-rule="evenodd">
      <path fill="#00a8d6" d="M10.0918478,13.1999998 C10.0317717,13.4569343 10,13.7247568 10,14 C10,14.2752431 10.0317717,14.5430655 10.0918477,14.7999998 L0,14.7999998 L0,13.1999998 L10.0918478,13.1999998 Z M16.9081522,13.1999998 L20,13.1999998 L20,14.7999998 L16.9081523,14.7999998 C16.9682283,14.5430655 17,14.2752431 17,14 C17,13.7247568 16.9682283,13.4569343 16.9081522,13.1999998 Z M3.09184782,5.19999981 C3.03177174,5.45693426 3,5.72475678 3,6 C3,6.27524309 3.03177171,6.5430655 3.09184774,6.79999983 L0,6.79999983 L0,5.19999981 L3.09184782,5.19999981 Z M9.90815218,5.19999981 L20,5.19999981 L20,6.79999983 L9.90815226,6.79999983 C9.96822829,6.5430655 10,6.27524309 10,6 C10,5.72475678 9.96822826,5.45693426 9.90815218,5.19999981 Z M6.5,8.5 C5.11928813,8.5 4,7.38071187 4,6 C4,4.61928813 5.11928813,3.5 6.5,3.5 C7.88071187,3.5 9,4.61928813 9,6 C9,7.38071187 7.88071187,8.5 6.5,8.5 Z M13.5,16.5 C12.1192881,16.5 11,15.3807119 11,14 C11,12.6192881 12.1192881,11.5 13.5,11.5 C14.8807119,11.5 16,12.6192881 16,14 C16,15.3807119 14.8807119,16.5 13.5,16.5 Z" id="path-1"></path>
    </g>
</svg>
