<?xml version="1.0" encoding="UTF-8"?>
<svg width="21px" height="20px" viewBox="0 0 21 20" version="1.1" xmlns="http://www.w3.org/2000/svg" xmlns:xlink="http://www.w3.org/1999/xlink">
    <g id="Page-1" stroke="none" stroke-width="1" fill="none" fill-rule="evenodd">
                <path fill="#191919" d="M14.7,5.844 L6.994,9.697 C7.00547723,9.89642883 7.00012495,10.0964702 6.978,10.295 L14.581,14.096 C15.700403,12.7156091 17.6766316,12.393294 19.1766304,13.3464707 C20.6766291,14.2996474 21.2241424,16.2256784 20.4498477,17.825369 C19.6755531,19.4250596 17.8252922,20.1905014 16.1471496,19.6053693 C14.4690069,19.0202373 13.4957997,17.2703133 13.884,15.536 L6.433,11.811 C5.57819024,13.1227894 3.95613927,13.707269 2.46107427,13.2422188 C0.966009268,12.7771685 -0.0383106979,11.3757381 0.00179008174,9.81052787 C0.0418908614,8.24531765 1.11665561,6.8971535 2.63357281,6.5092704 C4.15049001,6.1213873 5.74048384,6.78815975 6.527,8.142 L13.928,4.442 C13.6346258,3.38760309 13.8509139,2.25668365 14.5126597,1.38495329 C15.1744055,0.513222929 16.2055501,0.000875312859 17.3,-1.77635684e-15 C18.9064167,0.000382818078 20.3063257,1.09426408 20.6951137,2.65292334 C21.0839017,4.2115826 20.3617361,5.83478875 18.9436895,6.58958597 C17.525643,7.3443832 15.7758403,7.03695534 14.7,5.844 Z" id="a"></path>
    </g>
</svg>
