<?xml version="1.0" encoding="UTF-8"?>
<svg width="24px" height="24px" viewBox="0 0 24 24" version="1.1" xmlns="http://www.w3.org/2000/svg" xmlns:xlink="http://www.w3.org/1999/xlink">
    <!-- Generator: Sketch 55.1 (78136) - https://sketchapp.com -->
    <title>ico/QR</title>
    <desc>Created with Sketch.</desc>
    <defs>
        <path d="M18.2857143,21.4285714 L18.2857143,23 L12,23 L12,21.4285714 L16.7142857,21.4285714 L16.7142857,19.8571429 L18.2857143,19.8571429 L18.2857143,21.4285714 Z M10.4285714,19.8571429 L10.4285714,18.2857143 L10.4285714,16.7142857 L12,16.7142857 L12,18.2857143 L13.5714286,18.2857143 L13.5714286,19.8571429 L12,19.8571429 L12,21.4285714 L10.4285714,21.4285714 L10.4285714,19.8571429 Z M19.8571429,18.2857143 L21.4285714,18.2857143 L21.4285714,19.8571429 L18.2857143,19.8571429 L18.2857143,18.2857143 L18.2857143,16.7142857 L15.1428571,16.7142857 L15.1428571,15.1428571 L19.8571429,15.1428571 L19.8571429,13.5714286 L19.8571429,12 L21.4285714,12 L21.4285714,10.4285714 L23,10.4285714 L23,12 L23,13.5714286 L21.4285714,13.5714286 L21.4285714,15.1428571 L21.4285714,16.7142857 L19.8571429,16.7142857 L19.8571429,18.2857143 Z M10.4285714,13.5714286 L5.71428571,13.5714286 L5.71428571,12 L4.14285714,12 L4.14285714,10.4285714 L7.28571429,10.4285714 L7.28571429,12 L12,12 L12,13.5714286 L12,15.1428571 L10.4285714,15.1428571 L10.4285714,13.5714286 Z M18.2857143,12 L18.2857143,13.5714286 L16.7142857,13.5714286 L16.7142857,12 L15.1428571,12 L15.1428571,10.4285714 L18.2857143,10.4285714 L18.2857143,12 Z M2.57142857,7.28571429 L7.28571429,7.28571429 L7.28571429,2.57142857 L2.57142857,2.57142857 L2.57142857,7.28571429 Z M8.85714286,1 L8.85714286,8.85714286 L1,8.85714286 L1,1 L8.85714286,1 Z M4.14285714,5.71428571 L4.14285714,4.14285714 L5.71428571,4.14285714 L5.71428571,5.71428571 L4.14285714,5.71428571 Z M4.14285714,4.14285714 L5.71428571,4.14285714 L5.71428571,5.71428571 L4.14285714,5.71428571 L4.14285714,4.14285714 Z M16.7142857,7.28571429 L21.4285714,7.28571429 L21.4285714,2.57142857 L16.7142857,2.57142857 L16.7142857,7.28571429 Z M23,1 L23,8.85714286 L15.1428571,8.85714286 L15.1428571,1 L23,1 Z M18.2857143,5.71428571 L18.2857143,4.14285714 L19.8571429,4.14285714 L19.8571429,5.71428571 L18.2857143,5.71428571 Z M18.2857143,4.14285714 L19.8571429,4.14285714 L19.8571429,5.71428571 L18.2857143,5.71428571 L18.2857143,4.14285714 Z M2.57142857,21.4285714 L7.28571429,21.4285714 L7.28571429,16.7142857 L2.57142857,16.7142857 L2.57142857,21.4285714 Z M8.85714286,15.1428571 L8.85714286,23 L1,23 L1,15.1428571 L8.85714286,15.1428571 Z M4.14285714,19.8571429 L4.14285714,18.2857143 L5.71428571,18.2857143 L5.71428571,19.8571429 L4.14285714,19.8571429 Z M4.14285714,18.2857143 L5.71428571,18.2857143 L5.71428571,19.8571429 L4.14285714,19.8571429 L4.14285714,18.2857143 Z M1,12 L1,10.4285714 L2.57142857,10.4285714 L2.57142857,12 L1,12 Z M12,12 L12,10.4285714 L13.5714286,10.4285714 L13.5714286,12 L12,12 Z M2.57142857,13.5714286 L2.57142857,12 L4.14285714,12 L4.14285714,13.5714286 L2.57142857,13.5714286 Z M13.5714286,15.1428571 L13.5714286,13.5714286 L15.1428571,13.5714286 L15.1428571,15.1428571 L13.5714286,15.1428571 Z M12,16.7142857 L12,15.1428571 L13.5714286,15.1428571 L13.5714286,16.7142857 L12,16.7142857 Z M13.5714286,18.2857143 L13.5714286,16.7142857 L15.1428571,16.7142857 L15.1428571,18.2857143 L13.5714286,18.2857143 Z M21.4285714,18.2857143 L21.4285714,16.7142857 L23,16.7142857 L23,18.2857143 L21.4285714,18.2857143 Z M15.1428571,19.8571429 L15.1428571,18.2857143 L16.7142857,18.2857143 L16.7142857,19.8571429 L15.1428571,19.8571429 Z M21.4285714,21.4285714 L21.4285714,19.8571429 L23,19.8571429 L23,21.4285714 L21.4285714,21.4285714 Z M19.8571429,23 L19.8571429,21.4285714 L21.4285714,21.4285714 L21.4285714,23 L19.8571429,23 Z M10.4285714,5.71428571 L10.4285714,1 L13.5714286,1 L13.5714286,2.57142857 L12,2.57142857 L12,4.14285714 L13.5714286,4.14285714 L13.5714286,8.85714286 L12,8.85714286 L12,10.4285714 L10.4285714,10.4285714 L10.4285714,7.28571429 L12,7.28571429 L12,5.71428571 L10.4285714,5.71428571 Z" id="path-1"></path>
    </defs>
    <g id="ico/QR" stroke="none" stroke-width="1" fill="none" fill-rule="evenodd">
        <mask id="mask-2" fill="white">
            <use xlink:href="#path-1"></use>
        </mask>
        <use id="Combined-Shape" fill="#000000" fill-rule="nonzero" xlink:href="#path-1"></use>
        <g id="color/blue" mask="url(#mask-2)" fill="#191919">
            <g transform="translate(12.000000, 12.000000) scale(-1, 1) translate(-12.000000, -12.000000) " id="Rectangle-3">
                <rect x="0" y="0" width="24" height="24"></rect>
            </g>
        </g>
    </g>
</svg>