<?xml version="1.0" encoding="UTF-8"?>
<svg width="24px" height="24px" viewBox="0 0 24 24" version="1.1" xmlns="http://www.w3.org/2000/svg" xmlns:xlink="http://www.w3.org/1999/xlink">
    <g id="sms" stroke="none" stroke-width="1" fill="none" fill-rule="evenodd">
        <path fill="#33A3DC" d="M20,2 C21.1,2 22,2.9 22,4 L22,16 C22,17.1 21.1,18 20,18 L6,18 L2,22 L2.01,4 C2.01,2.9 2.9,2 4,2 L20,2 Z M6.516,13.064 C7.532,13.064 8.292,12.536 8.292,11.568 C8.292,10.448 7.54,10.304 6.892,9.976 C6.388,9.784 6.108,9.68 6.108,9.344 C6.108,9.024 6.34,8.84 6.836,8.84 C7.292,8.84 7.748,8.984 8.004,9.104 L8.004,8.176 C7.748,8.08 7.292,7.952 6.756,7.952 C5.748,7.952 5.02,8.408 5.02,9.376 C5.02,10.208 5.508,10.568 6.02,10.8 C6.772,11.128 7.148,11.176 7.148,11.608 C7.148,11.976 6.868,12.168 6.316,12.168 C5.836,12.168 5.372,12 5.012,11.832 L5.012,12.784 C5.396,12.952 5.892,13.064 6.516,13.064 Z M9.036,13 L10.012,13 L10.324,10.344 C10.356,10.04 10.388,9.544 10.404,9.328 L10.42,9.328 C10.452,9.544 10.54,9.96 10.62,10.264 L11.348,13 L12.556,13 L13.3,10.256 C13.38,9.96 13.444,9.584 13.484,9.336 L13.5,9.336 C13.524,9.592 13.548,9.976 13.588,10.304 L13.916,13 L14.964,13 L14.3,8.016 L12.972,8.016 L12.212,10.96 C12.14,11.256 12.06,11.672 12.004,11.984 L11.996,11.984 C11.948,11.672 11.868,11.256 11.788,10.952 L11.02,8.016 L9.684,8.016 L9.036,13 Z M17.292,13.064 C18.308,13.064 19.068,12.536 19.068,11.568 C19.068,10.448 18.316,10.304 17.668,9.976 C17.164,9.784 16.884,9.68 16.884,9.344 C16.884,9.024 17.116,8.84 17.612,8.84 C18.068,8.84 18.524,8.984 18.78,9.104 L18.78,8.176 C18.524,8.08 18.068,7.952 17.532,7.952 C16.524,7.952 15.796,8.408 15.796,9.376 C15.796,10.208 16.284,10.568 16.796,10.8 C17.548,11.128 17.924,11.176 17.924,11.608 C17.924,11.976 17.644,12.168 17.092,12.168 C16.612,12.168 16.148,12 15.788,11.832 L15.788,12.784 C16.172,12.952 16.668,13.064 17.292,13.064 Z" id="path-1"></path>
    </g>
</svg>