
<svg width="20px" height="20px" viewBox="0 0 20 20" version="1.1" xmlns="http://www.w3.org/2000/svg" xmlns:xlink="http://www.w3.org/1999/xlink">
    <g id="Page-1" stroke="none" stroke-width="1" fill="none" fill-rule="evenodd">
        <path fill="#191919" fill-rule="nonzero" d="M4.49785068,18.4260598 L0.750177509,19.3629781 L1.74955702,15.6777661 L1.49971214,15.3029988 C0.56279385,13.7414683 0.000642873473,11.9300929 0.000642873473,10.0562564 C-0.0618183461,4.49720781 4.43538947,0 9.93197679,0 C12.6178092,0 15.116258,1.06184073 16.9900946,2.93567732 C18.8639312,4.80951391 19.9257719,7.37042391 19.9257719,9.99379514 C19.9257719,15.4903825 15.4285641,19.9875903 9.93197679,19.9875903 C8.18306264,19.9875903 6.43414849,19.5503617 4.872618,18.6134434 L4.49785068,18.4260598 Z M15.4910253,12.6171664 L14.8039519,12.3048603 C14.8039519,12.3048603 13.8045724,11.8676317 13.1799602,11.5553256 C13.117499,11.5553256 13.0550378,11.4928644 12.9925766,11.4928644 C12.8051929,11.4928644 12.6802705,11.5553256 12.555348,11.6177868 C12.555348,11.6177868 12.4928868,11.6802481 11.6184297,12.6796276 C11.5559685,12.80455 11.4310461,12.8670112 11.3061236,12.8670112 L11.2436624,12.8670112 C11.1812012,12.8670112 11.0562787,12.80455 10.9938175,12.7420888 L10.6815114,12.6171664 C9.99443801,12.3048603 9.36982581,11.9300929 8.87013606,11.4304032 C8.74521362,11.3054807 8.55782996,11.1805583 8.43290752,11.0556359 C7.99567898,10.6184073 7.55845045,10.1187176 7.24614435,9.5565666 L7.18368313,9.43164416 C7.12122191,9.36918294 7.12122191,9.30672172 7.05876069,9.18179928 C7.05876069,9.05687684 7.05876069,8.9319544 7.12122191,8.86949318 C7.12122191,8.86949318 7.37106679,8.55718709 7.55845045,8.36980343 C7.68337288,8.24488099 7.7458341,8.05749733 7.87075654,7.93257489 C7.99567898,7.74519123 8.0581402,7.49534635 7.99567898,7.30796269 C7.93321776,6.9956566 7.18368313,5.30920367 6.99629947,4.93443635 C6.87137703,4.74705269 6.74645459,4.68459147 6.55907093,4.62213025 L6.37168727,4.62213025 C6.24676483,4.62213025 6.05938118,4.62213025 5.87199752,4.62213025 C5.74707508,4.62213025 5.62215264,4.68459147 5.4972302,4.68459147 L5.43476898,4.74705269 C5.30984654,4.80951391 5.1849241,4.93443635 5.06000166,4.99689757 C4.93507922,5.12182001 4.872618,5.24674245 4.74769556,5.37166489 C4.31046703,5.93381586 4.06062215,6.62088928 4.06062215,7.30796269 C4.06062215,7.80765245 4.18554459,8.30734221 4.37292825,8.74457074 L4.43538947,8.9319544 C4.99754044,10.1187176 5.74707508,11.1805583 6.74645459,12.1174766 L6.99629947,12.3673215 C7.18368313,12.5547051 7.37106679,12.6796276 7.49598923,12.8670112 C8.80767484,13.9913132 10.3067441,14.803309 11.993197,15.2405376 C12.1805807,15.3029988 12.4304256,15.3029988 12.6178092,15.36546 C12.8051929,15.36546 13.0550378,15.36546 13.2424214,15.36546 C13.5547275,15.36546 13.9294948,15.2405376 14.1793397,15.1156151 C14.3667234,14.9906927 14.4916458,14.9906927 14.6165683,14.8657703 L14.7414907,14.7408478 C14.8664131,14.6159254 14.9913356,14.5534642 15.116258,14.4285417 C15.2411805,14.3036193 15.3661029,14.1786969 15.4285641,14.0537744 C15.5534866,13.8039295 15.6159478,13.4916234 15.678409,13.1793173 C15.678409,13.0543949 15.678409,12.8670112 15.678409,12.7420888 C15.678409,12.7420888 15.6159478,12.6796276 15.4910253,12.6171664 Z" id="path-1"></path>
    </g>
</svg>
