<?xml version="1.0" encoding="UTF-8"?>
<svg width="45px" height="25px" viewBox="0 0 45 25" version="1.1" xmlns="http://www.w3.org/2000/svg" xmlns:xlink="http://www.w3.org/1999/xlink">
    <g id="Page-1" stroke="none" stroke-width="1" fill="none" fill-rule="evenodd">
      <path fill="#191919" d="M39,6 L42,6 C43.6568542,6 45,7.34314575 45,9 L45,18 C45,20.209139 43.209139,22 41,22 L4,22 C1.790861,22 0,20.209139 0,18 L0,9 C0,7.34314575 1.34314575,6 3,6 L6,6 L6,3 C6,1.34314575 7.34314575,0 9,0 L36,0 C37.6568542,0 39,1.34314575 39,3 L39,6 Z M8,6 L9,6 C10.6568542,6 12,7.34314575 12,9 L12,12 L33,12 L33,9 C33,7.34314575 34.3431458,6 36,6 L37,6 L37,3 C37,2.44771525 36.5522847,2 36,2 L9,2 C8.44771525,2 8,2.44771525 8,3 L8,6 Z M6,23 L14,23 L14,24 C14,24.5522847 13.5522847,25 13,25 L7,25 C6.44771525,25 6,24.5522847 6,24 L6,23 Z M32,23 L40,23 L40,24 C40,24.5522847 39.5522847,25 39,25 L33,25 C32.4477153,25 32,24.5522847 32,24 L32,23 Z M4,20 L41,20 C42.1045695,20 43,19.1045695 43,18 L43,9 C43,8.44771525 42.5522847,8 42,8 L36,8 C35.4477153,8 35,8.44771525 35,9 L35,14 L10,14 L10,9 C10,8.44771525 9.55228475,8 9,8 L3,8 C2.44771525,8 2,8.44771525 2,9 L2,18 C2,19.1045695 2.8954305,20 4,20 Z" id="Combined-Shape"></path>
    </g>
</svg>
