<?xml version="1.0" encoding="UTF-8"?>
<svg width="48px" height="47px" viewBox="0 0 48 47" version="1.1" xmlns="http://www.w3.org/2000/svg" xmlns:xlink="http://www.w3.org/1999/xlink">
    <defs>
        <linearGradient x1="13.887881%" y1="-24.0360383%" x2="89.7360305%" y2="122.845262%" id="linearGradient-1">
            <stop stop-color="#191919" offset="0%"></stop>
            <stop stop-color="#191919" offset="100%"></stop>
        </linearGradient>
    </defs>
    <g id="Page-1" stroke="none" stroke-width="1" fill="none" fill-rule="evenodd">
        <g id="sun.jsx" transform="translate(-2.000000, -3.000000)" fill="url(#linearGradient-1)" fill-rule="nonzero">
            <path d="M42.1308617,26.5489634 C42.1308617,35.3622831 34.879011,42.5344285 25.9637436,42.5344285 C17.0484761,42.5344285 9.79662539,35.3622831 9.79662539,26.5489634 C9.79662539,17.7338674 17.0484761,10.5634983 25.9637436,10.5634983 C34.879011,10.5634983 42.1308617,17.7338674 42.1308617,26.5489634 Z M39.2290713,26.5489634 C39.2290713,19.3160641 33.2788348,13.4326843 25.9637436,13.4326843 C18.6486523,13.4326843 12.6984158,19.3160641 12.6984158,26.5489634 C12.6984158,33.7804052 18.6486523,39.6652424 25.9637436,39.6652424 C33.2788348,39.6652424 39.2290713,33.7804052 39.2290713,26.5489634 Z M12.1868639,38.4320573 L13.9456145,40.1710466 L9.25561287,44.8083516 L7.49686228,43.0693622 L12.1868639,38.4320573 Z M42.6718742,8.28957523 L44.4306248,10.0285646 L39.7406232,14.6658695 L37.9818726,12.9268802 L42.6718742,8.28957523 Z M13.9456145,12.9268802 L12.1868639,14.6658695 L7.49686228,10.0285646 L9.25561287,8.28957523 L13.9456145,12.9268802 Z M44.4306248,43.0693622 L42.6718742,44.8083516 L37.9818726,40.1710466 L39.7406232,38.4320573 L44.4306248,43.0693622 Z M7.72391794,25.3193122 L7.72391794,27.7786145 L2.74942005,27.7786145 L2.74942005,25.3193122 L7.72391794,25.3193122 Z M49.178067,25.3193122 L49.178067,27.7786145 L44.2035691,27.7786145 L44.2035691,25.3193122 L49.178067,25.3193122 Z M27.207368,8.5140797 L24.7201191,8.5140797 L24.7201191,3.59547505 L27.207368,3.59547505 L27.207368,8.5140797 Z M27.207368,49.5024517 L24.7201191,49.5024517 L24.7201191,44.5838471 L27.207368,44.5838471 L27.207368,49.5024517 Z" id="Combined-Shape" transform="translate(25.963744, 26.548963) rotate(7.000000) translate(-25.963744, -26.548963) "></path>
        </g>
    </g>
</svg>
