<?xml version="1.0" encoding="UTF-8"?>
<svg width="48px" height="48px" viewBox="0 0 48 48" version="1.1" xmlns="http://www.w3.org/2000/svg" xmlns:xlink="http://www.w3.org/1999/xlink">
    <!-- Generator: Sketch 55.2 (78181) - https://sketchapp.com -->
    <title>illu/kategorie/ausgehen-kultur</title>
    <desc>Created with Sketch.</desc>
    <g id="illu/kategorie/ausgehen-kultur" stroke="none" stroke-width="1" fill="none" fill-rule="evenodd">
        <path d="M24.8600662,12.0747705 C27.1017811,10.7959301 29.9801114,10.6605716 33.552654,11.6178315 C40.8110742,13.5627194 43.332666,17.9807535 41.3224752,25.4828878 C39.2327924,33.28169 32.3992181,39.3215148 26.5494677,37.7540789 C25.9754557,37.6002729 25.429864,37.3782958 24.9146163,37.0956388 C25.4593338,36.658836 25.9627636,36.1564736 26.4227188,35.5982881 C26.6329312,35.685587 26.8481846,35.7591017 27.0682222,35.8180606 C31.6290407,37.0401282 37.5366143,31.8187451 39.3741832,24.9608446 C41.0997436,18.5209654 39.2091579,15.2085054 33.0338995,13.5538499 C30.2515665,12.808326 28.0542413,12.7891636 26.3217583,13.5822002 C25.8723909,13.0111586 25.3851957,12.5087712 24.8600662,12.0747705 Z M29.6160223,27.7233889 C30.9655702,28.1693408 32.1606085,29.0908434 32.9250217,30.4148459 C33.2017597,30.8941701 33.0350677,31.5085019 32.5527047,31.7869943 C32.0703418,32.0654866 31.4549689,31.9026803 31.1782309,31.4233561 C30.7191395,30.6281863 30.0270604,30.0507871 29.2365757,29.7267642 C29.3966151,29.0760398 29.5234949,28.4064779 29.6160223,27.7233889 Z M33.5943713,25.1155263 C32.5183594,24.8272098 31.8783337,23.7266982 32.1648339,22.6574648 C32.4513341,21.5882314 33.5558685,20.9551732 34.6318804,21.2434897 C35.7078924,21.5318062 36.3479181,22.6323179 36.0614179,23.7015513 C35.7749176,24.7707847 34.6703833,25.4038429 33.5943713,25.1155263 Z M28.1087366,19.7404119 C30.1984194,27.5392141 27.3002828,36.186643 21.4505323,37.7540789 C15.6007819,39.3215148 8.76720758,33.28169 6.67752483,25.4828878 C4.667334,17.9807535 7.18892583,13.5627194 14.447346,11.6178315 C21.7057661,9.67294372 26.0985458,12.2382776 28.1087366,19.7404119 Z M8.62581681,24.9608446 C10.4633857,31.8187451 16.3709593,37.0401282 20.9317778,35.8180606 C25.4925963,34.5959929 27.9980136,27.1203558 26.1604446,20.2624552 C24.4348842,13.822576 21.1413589,11.8991944 14.9661005,13.5538499 C8.79084211,15.2085054 6.9002564,18.5209654 8.62581681,24.9608446 Z M15.1751532,30.8269301 C14.6927922,30.5501888 14.5275224,29.9372793 14.8060115,29.4579532 C15.0845072,28.9786309 15.7013023,28.8144023 16.1836653,29.0911402 C18.1131171,30.1980921 20.5802976,29.5411777 21.6942672,27.6238808 C21.9727595,27.1445566 22.5895547,26.980328 23.0719196,27.2570626 C23.5542806,27.5338039 23.7195503,28.1467134 23.4410613,28.6260396 C21.7701037,31.501983 18.0693329,32.4873546 15.1751532,30.8269301 Z M14.4056287,25.1155263 C13.3296167,25.4038429 12.2250824,24.7707847 11.9385821,23.7015513 C11.6520819,22.6323179 12.2921076,21.5318062 13.3681196,21.2434897 C14.4441315,20.9551732 15.5486659,21.5882314 15.8351661,22.6574648 C16.1216663,23.7266982 15.4816406,24.8272098 14.4056287,25.1155263 Z M21.2246506,23.2883749 C20.1486386,23.5766915 19.0441043,22.9436333 18.7576041,21.8743999 C18.4711038,20.8051665 19.1111296,19.7046548 20.1871415,19.4163383 C21.2631535,19.1280217 22.3676878,19.7610799 22.654188,20.8303133 C22.9406883,21.8995467 22.3006625,23.0000584 21.2246506,23.2883749 Z" id="illu" fill="#191919"></path>
    </g>
</svg>