<?xml version="1.0" encoding="UTF-8"?>
<svg width="48px" height="48px" viewBox="0 0 48 48" version="1.1" xmlns="http://www.w3.org/2000/svg" xmlns:xlink="http://www.w3.org/1999/xlink">
    <!-- Generator: Sketch 54.1 (76490) - https://sketchapp.com -->
    <title>threeCoins</title>
    <desc>Created with Sketch.</desc>
    <g id="threeCoins" stroke="none" stroke-width="1" fill="none" fill-rule="evenodd">
        <rect fill="#FFFFFF" opacity="0" x="0" y="0" width="48" height="48"></rect>
        <path d="M13.1166684,41.0868957 C13.6637769,41.7789477 14.3941041,42.3928432 15.2675209,42.917351 C16.236244,44.5798665 19.7296522,46 24,46 C28.2703478,46 31.763756,44.5798665 32.7324791,42.917351 C33.6058959,42.3928432 34.3362231,41.7789477 34.8833316,41.0868957 C34.9601642,41.3825468 35,41.6872694 35,42 C35,45.5021357 30.0042715,48 24,48 C17.9957285,48 13,45.5021357 13,42 C13,41.6872694 13.0398358,41.3825468 13.1166684,41.0868957 Z M13.1166684,37.0868957 C13.6637769,37.7789477 14.3941041,38.3928432 15.2675209,38.917351 C16.236244,40.5798665 19.7296522,42 24,42 C28.2703478,42 31.763756,40.5798665 32.7324791,38.917351 C33.6058959,38.3928432 34.3362231,37.7789477 34.8833316,37.0868957 C34.9601642,37.3825468 35,37.6872694 35,38 C35,41.5021357 30.0042715,44 24,44 C17.9957285,44 13,41.5021357 13,38 C13,37.6872694 13.0398358,37.3825468 13.1166684,37.0868957 Z M24,40 C17.9957285,40 13,37.5021357 13,34 C13,30.4978643 17.9957285,28 24,28 C30.0042715,28 35,30.4978643 35,34 C35,37.5021357 30.0042715,40 24,40 Z M24,38 C29.0414235,38 33,36.0207118 33,34 C33,31.9792882 29.0414235,30 24,30 C18.9585765,30 15,31.9792882 15,34 C15,36.0207118 18.9585765,38 24,38 Z" fill="#FFFFFF" fill-rule="nonzero"></path>
    </g>
</svg>