<?xml version="1.0" encoding="UTF-8"?>
<svg width="20px" height="16px" viewBox="0 0 20 16" version="1.1" xmlns="http://www.w3.org/2000/svg" xmlns:xlink="http://www.w3.org/1999/xlink">
    <g id="ico/sparen" transform="translate(0.000000, -2.000000)">
      <path fill="#191919" d="M4,8.5 L4,6.5 L8,10 L4,13.5 L4,11.5 L0,11.5 L0,8.5 L4,8.5 Z M7.67877779,12.0444537 L10.1527476,9.77664807 C11.0239326,9.92367484 11.9879315,10 13,10 C15.6789039,10 18.0210138,9.46523595 19.196518,8.5 C19.7092224,8.92099447 20,9.4238789 20,10 C20,11.897024 16.8473268,13 13,13 C10.8771166,13 8.96572934,12.6641849 7.67877779,12.0444537 Z M6.80348201,13.5 C7.97898618,14.4652359 10.3210961,15 13,15 C15.6789039,15 18.0210138,14.4652359 19.196518,13.5 C19.7092224,13.9209945 20,14.4238789 20,15 C20,16.897024 16.8473268,18 13,18 C9.1526732,18 6,16.897024 6,15 C6,14.4238789 6.29077756,13.9209945 6.80348201,13.5 Z M13,8 C9.1526732,8 6,6.89702395 6,5 C6,3.10297605 9.1526732,2 13,2 C16.8473268,2 20,3.10297605 20,5 C20,6.89702395 16.8473268,8 13,8 Z" id="path-1"></path>
    </g>
</svg>
