<svg height="20" viewBox="0 0 20 20" width="20" xmlns="http://www.w3.org/2000/svg" xmlns:xlink="http://www.w3.org/1999/xlink">
  <g fill="none" fill-rule="evenodd">
    <path fill="#00A8D6" d="m10.0918478 13.1999998c-.0600761.2569345-.0918478.524757-.0918478.8000002 0 .2752431.0317717.5430655.0918477.7999998h-10.0918477v-1.6zm6.8163044 0h3.0918478v1.6h-3.0918477c.060076-.2569343.0918477-.5247567.0918477-.7999998 0-.2752432-.0317717-.5430657-.0918478-.8000002zm-13.81630438-7.99999999c-.06007608.25693445-.09184782.52475697-.09184782.80000019 0 .27524309.03177171.5430655.09184774.79999983h-3.09184774v-1.60000002zm6.81630436 0h10.09184782v1.60000002h-10.09184774c.06007603-.25693433.09184774-.52475674.09184774-.79999983 0-.27524322-.03177174-.54306574-.09184782-.80000019zm-3.40815218 3.30000019c-1.38071187 0-2.5-1.11928813-2.5-2.5s1.11928813-2.5 2.5-2.5 2.5 1.11928813 2.5 2.5-1.11928813 2.5-2.5 2.5zm7 8c-1.3807119 0-2.5-1.1192881-2.5-2.5s1.1192881-2.5 2.5-2.5 2.5 1.1192881 2.5 2.5-1.1192881 2.5-2.5 2.5z"/>
  </g>
</svg>
