<svg width="18px" height="15px" viewBox="0 0 18 15" version="1.1" xmlns="http://www.w3.org/2000/svg" xmlns:xlink="http://www.w3.org/1999/xlink">
    <g id="Page-1" stroke="none" stroke-width="1" fill="none" fill-rule="evenodd">
        <g id="twitter.jsx" fill="#191919" fill-rule="nonzero">
            <path d="M18,1.73604061 C17.4974619,2.46700508 16.8692893,3.1180203 16.1497462,3.64340102 C16.1611675,3.80329949 16.1611675,3.96319797 16.1611675,4.12309645 C16.1611675,9 12.4492386,14.6192893 5.66497462,14.6192893 C3.5748731,14.6192893 1.63324873,14.0139594 0,12.963198 C0.29695431,12.9974619 0.58248731,13.0088832 0.89086294,13.0088832 C2.61548223,13.0088832 4.20304569,12.4263959 5.47081218,11.4327411 C3.84898477,11.3984772 2.48984772,10.3362944 2.0215736,8.8743655 C2.25,8.9086294 2.4784264,8.9314721 2.71827411,8.9314721 C3.04949239,8.9314721 3.38071066,8.8857868 3.68908629,8.8058376 C1.99873096,8.463198 0.73096447,6.9784264 0.73096447,5.18527919 C0.73096447,5.17385787 0.73096447,5.15101523 0.73096447,5.13959391 C1.22208122,5.41370558 1.79314721,5.58502538 2.39847716,5.60786802 C1.40482234,4.94543147 0.75380711,3.81472081 0.75380711,2.53553299 C0.75380711,1.85025381 0.93654822,1.22208122 1.25634518,0.67385787 C3.07233503,2.91243655 5.80203046,4.37436548 8.86294416,4.53426396 C8.80583756,4.26015228 8.7715736,3.97461929 8.7715736,3.68908629 C8.7715736,1.65609137 10.4162437,0 12.4606599,0 C13.5228426,0 14.4822335,0.44543147 15.1560914,1.16497462 C15.9898477,1.00507614 16.7893401,0.69670051 17.4974619,0.27411168 C17.2233503,1.13071066 16.6408629,1.85025381 15.8756345,2.3071066 C16.6180203,2.22715736 17.3375635,2.0215736 18,1.73604061 Z" id="path-1"></path>
        </g>
    </g>
</svg>
