<?xml version="1.0" encoding="UTF-8"?>
<svg width="20px" height="20px" viewBox="0 0 20 20" version="1.1" xmlns="http://www.w3.org/2000/svg" xmlns:xlink="http://www.w3.org/1999/xlink">
    <defs>
    </defs>
    <g id="vouchers" stroke="none" stroke-width="1" fill="none" fill-rule="evenodd">
      <path fill="#00A8D6" d="M17,14 L17,7 C17,5.8954305 16.1045695,5 15,5 L4,5 L4,3 C4,2.44771525 4.44771525,2 5,2 L19,2 C19.5522847,2 20,2.44771525 20,3 L20,13 C20,13.5522847 19.5522847,14 19,14 L17,14 Z M1,6 L15,6 C15.5522847,6 16,6.44771525 16,7 L16,17 C16,17.5522847 15.5522847,18 15,18 L1,18 C0.44771525,18 -1.02574388e-14,17.5522847 -1.03250741e-14,17 L-1.03250741e-14,7 C-1.03927095e-14,6.44771525 0.44771525,6 1,6 Z M4.7015083,9.89441931 C4.7015083,9.35143288 5.11176471,8.95324284 5.6306184,8.95324284 C6.16153846,8.95324284 6.55972851,9.35143288 6.55972851,9.89441931 C6.55972851,10.4494721 6.16153846,10.8476621 5.6306184,10.8476621 C5.11176471,10.8476621 4.7015083,10.4494721 4.7015083,9.89441931 Z M3.7,9.89441931 C3.7,10.9683258 4.59291101,11.800905 5.6306184,11.800905 C6.66832579,11.800905 7.57330317,10.9683258 7.57330317,9.89441931 C7.57330317,8.83257919 6.66832579,8 5.6306184,8 C4.59291101,8 3.7,8.83257919 3.7,9.89441931 Z M9.47978884,14.0935143 C9.47978884,13.5505279 9.89004525,13.1523379 10.4088989,13.1523379 C10.939819,13.1523379 11.338009,13.5505279 11.338009,14.0935143 C11.338009,14.6485671 10.939819,15.0467572 10.4088989,15.0467572 C9.89004525,15.0467572 9.47978884,14.6485671 9.47978884,14.0935143 Z M8.47828054,14.0935143 C8.47828054,15.1674208 9.37119155,16 10.4088989,16 C11.4466063,16 12.3515837,15.1674208 12.3515837,14.0935143 C12.3515837,13.0316742 11.4466063,12.199095 10.4088989,12.199095 C9.37119155,12.199095 8.47828054,13.0316742 8.47828054,14.0935143 Z M5.77541478,15.9034691 L11.3742081,8.08446456 L10.2882353,8.08446456 L4.6653092,15.9034691 L5.77541478,15.9034691 Z" id="path-1"></path>
    </g>
</svg>
