<?xml version="1.0" encoding="UTF-8"?>
<svg width="20px" height="20px" viewBox="0 0 20 20" version="1.1" xmlns="http://www.w3.org/2000/svg" xmlns:xlink="http://www.w3.org/1999/xlink">
    <g id="Artboard" stroke="none" stroke-width="1" fill="none" fill-rule="evenodd">
      <path fill="#191919" d="M13.857,16.857 L1,16.857 L1,4 L13.857,4 C13.857,4.47330803 14.240692,4.857 14.714,4.857 C15.187308,4.857 15.571,4.47330803 15.571,4 L18.957,4 L19,16.857 L15.571,16.857 C15.571,16.383692 15.187308,16 14.714,16 C14.240692,16 13.857,16.383692 13.857,16.857 Z M14.714,7.429 C15.1875842,7.429 15.5715,7.04508417 15.5715,6.5715 C15.5715,6.09791583 15.1875842,5.714 14.714,5.714 C14.2404158,5.714 13.8565,6.09791583 13.8565,6.5715 C13.8565,7.04508417 14.2404158,7.429 14.714,7.429 Z M14.714,10 C15.187308,10 15.571,9.61630803 15.571,9.143 C15.571,8.66969197 15.187308,8.286 14.714,8.286 C14.240692,8.286 13.857,8.66969197 13.857,9.143 C13.857,9.61630803 14.240692,10 14.714,10 Z M14.714,12.571 C15.187308,12.571 15.571,12.187308 15.571,11.714 C15.571,11.240692 15.187308,10.857 14.714,10.857 C14.240692,10.857 13.857,11.240692 13.857,11.714 C13.857,12.187308 14.240692,12.571 14.714,12.571 Z M14.714,15.143 C15.187308,15.143 15.571,14.759308 15.571,14.286 C15.571,13.812692 15.187308,13.429 14.714,13.429 C14.240692,13.429 13.857,13.812692 13.857,14.286 C13.857,14.759308 14.240692,15.143 14.714,15.143 Z M4.233,8.494 C4.233,7.977 4.623,7.598 5.117,7.598 C5.622,7.598 6.001,7.978 6.001,8.494 C6.001,9.022 5.622,9.401 5.117,9.401 C4.623,9.401 4.233,9.022 4.233,8.494 Z M3.28,8.494 C3.28,9.516 4.13,10.308 5.117,10.308 C6.104,10.308 6.965,9.516 6.965,8.494 C6.965,7.484 6.105,6.691 5.117,6.691 C4.13,6.691 3.28,7.484 3.28,8.494 Z M8.78,12.489 C8.78,11.973 9.17,11.594 9.664,11.594 C10.169,11.594 10.548,11.973 10.548,12.489 C10.548,13.018 10.168,13.396 9.664,13.396 C9.17,13.396 8.779,13.018 8.779,12.489 L8.78,12.489 Z M7.827,12.489 C7.827,13.511 8.677,14.303 9.664,14.303 C10.651,14.303 11.512,13.511 11.512,12.489 C11.512,11.479 10.651,10.687 9.664,10.687 C8.676,10.687 7.827,11.479 7.827,12.489 Z M5.255,14.212 L10.582,6.772 L9.549,6.772 L4.199,14.212 L5.255,14.212 Z" id="path-1"></path>
    </g>
</svg>
