<?xml version="1.0" encoding="UTF-8"?>
<svg width="22px" height="15px" viewBox="0 0 22 15" version="1.1" xmlns="http://www.w3.org/2000/svg" xmlns:xlink="http://www.w3.org/1999/xlink">
    <g id="CD_Mehr" transform="translate(-54.000000, -247.000000)">
        <path fill="#191919" d="M74,250.5 C71.790861,250.5 70,252.290861 70,254.5 C70,256.709139 71.790861,258.5 74,258.5 L74,260 C74,261.104569 73.1045695,262 72,262 L56,262 C54.8954305,262 54,261.104569 54,260 L54,249 C54,247.895431 54.8954305,247 56,247 L72,247 C73.1045695,247 74,247.895431 74,249 L74,250.5 Z M74,256.5 C72.8954305,256.5 72,255.604569 72,254.5 C72,253.395431 72.8954305,252.5 74,252.5 C75.1045695,252.5 76,253.395431 76,254.5 C76,255.604569 75.1045695,256.5 74,256.5 Z" id="Combined-Shape"></path>
    </g>
</svg>
