<?xml version="1.0" encoding="UTF-8"?>
<svg width="18px" height="17px" viewBox="0 0 18 17" version="1.1" xmlns="http://www.w3.org/2000/svg" xmlns:xlink="http://www.w3.org/1999/xlink">
  <g id="rund/wallet" transform="translate(-7.000000, -7.000000)">
    <path fill="#191919" d="M23.2536465,8.69648779 L9.19766482,10.1760648 C8.95739874,10.201356 8.775,10.4039623 8.775,10.6455558 C8.775,10.8802769 8.96527898,11.0705558 9.2,11.0705558 L22.5,11.0705558 C23.6045695,11.0705558 24.5,11.9659863 24.5,13.0705558 L24.5,21.8205558 C24.5,22.9251253 23.6045695,23.8205558 22.5,23.8205558 L11.5,23.8205558 C9.290861,23.8205558 7.5,22.0296948 7.5,19.8205558 L7.5,10.2708176 C7.5,9.75905899 7.8863685,9.32988548 8.39531522,9.27631214 L21.4406304,7.90312106 C22.1681095,7.82654432 22.8454809,8.15012218 23.2536446,8.69648799 Z M21.525,18.2955558 C22.2291631,18.2955558 22.8,17.7247189 22.8,17.0205558 C22.8,16.3163928 22.2291631,15.7455558 21.525,15.7455558 C20.8208369,15.7455558 20.25,16.3163928 20.25,17.0205558 C20.25,17.7247189 20.8208369,18.2955558 21.525,18.2955558 Z" id="path-1"></path>
  </g>
</svg>
