<?xml version="1.0" encoding="UTF-8"?>
<svg width="69px" height="24px" viewBox="0 0 69 24" version="1.1" xmlns="http://www.w3.org/2000/svg" xmlns:xlink="http://www.w3.org/1999/xlink">
    <!-- Generator: Sketch 55.2 (78181) - https://sketchapp.com -->
    <title>Group 3</title>
    <desc>Created with Sketch.</desc>
    <g id="Symbols" stroke="none" stroke-width="1" fill="none" fill-rule="evenodd">
        <g id="header/adac-Schlüsselnotdienst-360px-v2" transform="translate(-16.000000, -20.000000)" fill="#191919" fill-rule="nonzero">
            <g id="Group-3" transform="translate(16.000000, 20.000000)">
                <g id="Group-Copy">
                    <path d="M18.840868,23.689103 L25.7227259,23.689103 C32.6291517,23.689103 35.3071253,18.1448482 35.3071253,11.5925378 C35.3071253,4.78823623 32.0287769,0.504027644 25.0220078,0.504027644 L18.840868,0.504027644 L18.840868,23.689103 Z M24.5465441,4.53620105 L25.0220078,4.53620105 C28.8004004,4.53620105 29.175945,8.82041089 29.175945,11.3405453 C29.175945,14.364666 29.175945,19.4049361 25.1718987,19.4049361 L24.5465441,19.4049361 L24.5465441,4.53620105 L24.5465441,4.53620105 Z" id="path7390"></path>
                    <path d="M34.631387,23.689103 L39.3861108,23.689103 L40.3870226,18.9009097 L45.6671821,18.9009097 L46.5681624,23.689103 L52.3987373,23.689103 L47.5191022,0.504027644 L39.9864857,0.504027644 L34.631387,23.689103 Z M43.1395112,5.29226262 L43.2148747,5.29226262 L44.8665325,14.8686924 L41.1876597,14.8686924 L43.1395112,5.29226262 L43.1395112,5.29226262 Z" id="path7394"></path>
                    <path d="M63.5848351,8.56841843 C63.5848351,7.05633675 63.1842982,4.28420859 61.1325277,4.28420859 C58.7301797,4.28420859 58.3796148,7.81235686 58.3796148,12.0965654 C58.3796148,16.8848004 58.6048568,19.6569286 61.2574264,19.6569286 C63.3595807,19.6569286 63.8350568,17.8928557 63.959968,15.1207275 L68.8899743,15.6247539 C68.8899743,20.6649826 65.937211,23.9411375 61.0072047,23.9411375 C54.1003671,23.9411375 52.2234548,18.1448482 52.2234548,12.0965654 C52.2234548,6.30031665 54.0753749,0 61.0072047,0 C66.4626467,0 68.8899743,3.7801822 68.8899743,8.56841843 L63.5848351,8.56841843" id="path7398"></path>
                    <path d="M0.0971739602,23.689103 L4.70201935,23.689103 L5.67793888,18.9009097 L10.8077957,18.9009097 L11.6588165,23.689103 L17.3141089,23.689103 L12.6097687,0.504027644 L5.27741447,0.504027644 L0.0971739602,23.689103 Z M8.35548825,5.29226262 L8.40546022,5.29226262 L10.0321383,14.8686924 L6.4535962,14.8686924 L8.35548825,5.29226262 L8.35548825,5.29226262 Z" id="path7386"></path>
                </g>
            </g>
        </g>
    </g>
</svg>