<?xml version="1.0" encoding="UTF-8"?>
<svg width="150px" height="24px" viewBox="0 0 150 24" version="1.1" xmlns="http://www.w3.org/2000/svg" xmlns:xlink="http://www.w3.org/1999/xlink">
    <!-- Generator: Sketch 55.2 (78181) - https://sketchapp.com -->
    <title>Group 7</title>
    <desc>Created with Sketch.</desc>
    <g id="Symbols" stroke="none" stroke-width="1" fill="none" fill-rule="evenodd">
        <g id="header/adac-Schlüsselnotdienst-360px-v2" transform="translate(-101.000000, -20.000000)">
            <g id="Group-7" transform="translate(101.000000, 20.000000)">
                <g id="Padding-Group-2">
                    <rect id="Background" fill="#FFFFFF" x="0" y="0" width="150" height="24"></rect>
                    <path d="M11.904,17.16 C11.5839984,17.16 11.261335,17.1466668 10.936,17.12 C10.610665,17.0933332 10.2986682,17.0560002 10,17.008 C9.70133184,16.9599998 9.42666792,16.906667 9.176,16.848 C8.92533208,16.789333 8.71466752,16.722667 8.544,16.648 L8.544,13.992 L10.304,13.992 L10.304,15.416 C10.5386678,15.4693336 10.789332,15.5093332 11.056,15.536 C11.322668,15.5626668 11.5786654,15.576 11.824,15.576 C12.4106696,15.576 12.8719983,15.472001 13.208,15.264 C13.544,15.055999 13.712,14.7173357 13.712,14.248 C13.712,14.055999 13.6800003,13.8906674 13.616,13.752 C13.5519997,13.6133326 13.4373342,13.4880006 13.272,13.376 C13.1066658,13.2639994 12.8746682,13.1546672 12.576,13.048 C12.2773318,12.9413328 11.8880024,12.8186674 11.408,12.68 C10.9919979,12.5626661 10.6106684,12.4293341 10.264,12.28 C9.9173316,12.1306659 9.62133456,11.9440011 9.376,11.72 C9.13066544,11.4959989 8.93866736,11.2266682 8.8,10.912 C8.66133264,10.5973318 8.592,10.210669 8.592,9.752 C8.592,8.8453288 8.91466344,8.13600256 9.56,7.624 C10.2053366,7.11199744 11.1146608,6.856 12.288,6.856 C12.9813368,6.856 13.6106638,6.9093328 14.176,7.016 C14.7413362,7.1226672 15.1466654,7.24533264 15.392,7.384 L15.392,9.88 L13.632,9.88 L13.632,8.552 C13.2373314,8.46666624 12.8053357,8.424 12.336,8.424 C11.727997,8.424 11.2880014,8.5173324 11.016,8.704 C10.7439986,8.8906676 10.608,9.18133136 10.608,9.576 C10.608,9.76800096 10.6426663,9.930666 10.712,10.064 C10.7813337,10.197334 10.8959992,10.3146662 11.056,10.416 C11.2160008,10.5173338 11.4266654,10.6159995 11.688,10.712 C11.9493346,10.8080005 12.2719981,10.9093328 12.656,11.016 C13.1360024,11.1546674 13.5679981,11.3039992 13.952,11.464 C14.3360019,11.6240008 14.6639986,11.8159989 14.936,12.04 C15.2080014,12.2640011 15.4159993,12.5359984 15.56,12.856 C15.7040007,13.1760016 15.776,13.5706643 15.776,14.04 C15.776,15.0106715 15.4373367,15.7733306 14.76,16.328 C14.0826633,16.8826694 13.1306728,17.16 11.904,17.16 Z M23.104,16.776 C22.8586654,16.8826672 22.5440019,16.9679997 22.16,17.032 C21.7759981,17.0960003 21.3600022,17.128 20.912,17.128 C19.5893267,17.128 18.5760035,16.7813368 17.872,16.088 C17.1679965,15.3946632 16.816,14.4293395 16.816,13.192 C16.816,12.5733302 16.9013325,12.0080026 17.072,11.496 C17.2426675,10.9839974 17.498665,10.5440018 17.84,10.176 C18.181335,9.80799816 18.6079974,9.52266768 19.12,9.32 C19.6320026,9.11733232 20.2293299,9.016 20.912,9.016 C21.3600022,9.016 21.7679982,9.03733312 22.136,9.08 C22.5040018,9.12266688 22.7999989,9.18133296 23.024,9.256 L23.024,11.64 L21.344,11.64 L21.344,10.568 C21.2586662,10.5573333 21.178667,10.552 21.104,10.552 L20.896,10.552 C19.6266603,10.552 18.992,11.3786584 18.992,13.032 C18.992,13.8960043 19.191998,14.5226647 19.592,14.912 C19.992002,15.3013353 20.5173301,15.496 21.168,15.496 C21.5946688,15.496 21.9599985,15.466667 22.264,15.408 C22.5680015,15.349333 22.8479987,15.2506674 23.104,15.112 L23.104,16.776 Z M28.032,17 L23.936,17 L23.936,15.464 L24.976,15.464 L24.976,7.592 L23.872,7.592 L23.872,6.056 L27.168,6.056 L27.008,7.592 L27.008,9.864 C27.2213344,9.67199904 27.5066649,9.4826676 27.864,9.296 C28.2213351,9.1093324 28.6613307,9.016 29.184,9.016 C29.6640024,9.016 30.0639984,9.082666 30.384,9.216 C30.7040016,9.349334 30.9653323,9.53866544 31.168,9.784 C31.3706677,10.0293346 31.5146662,10.3199983 31.6,10.656 C31.6853338,10.9920017 31.728,11.3573314 31.728,11.752 L31.728,15.464 L32.72,15.464 L32.72,17 L29.632,17 L29.632,12.008 C29.632,11.5279976 29.5413342,11.1760011 29.36,10.952 C29.1786658,10.7279989 28.8533357,10.616 28.384,10.616 C28.1279987,10.616 27.8800012,10.6586662 27.64,10.744 C27.3999988,10.8293338 27.2053341,10.9306661 27.056,11.048 L27.056,15.464 L28.032,15.464 L28.032,17 Z M34.176,7.592 L33.072,7.592 L33.072,6.056 L36.416,6.056 L36.256,7.592 L36.256,14.664 C36.256,14.9733349 36.3119994,15.1893327 36.424,15.312 C36.5360006,15.4346673 36.7146654,15.496 36.96,15.496 C37.1626677,15.496 37.3386659,15.4693336 37.488,15.416 L37.488,16.984 C37.3386659,17.0373336 37.168001,17.0746666 36.976,17.096 C36.783999,17.1173334 36.592001,17.128 36.4,17.128 C35.6639963,17.128 35.1093352,16.9626683 34.736,16.632 C34.3626648,16.3013317 34.176,15.7520038 34.176,14.984 L34.176,7.592 Z M41.2,9.144 L41.04,10.696 L41.04,14.136 C41.04,14.6160024 41.1279991,14.9679989 41.304,15.192 C41.4800009,15.4160011 41.8026643,15.528 42.272,15.528 C42.5280013,15.528 42.7733322,15.4880004 43.008,15.408 C43.2426678,15.3279996 43.4346659,15.2293339 43.584,15.112 L43.584,10.68 L42.608,10.68 L42.608,9.144 L45.824,9.144 L45.664,10.696 L45.664,14.872 C45.664,15.0853344 45.7119995,15.2399995 45.808,15.336 C45.9040005,15.4320005 46.0639989,15.48 46.288,15.48 C46.4373341,15.48 46.5546662,15.4693334 46.64,15.448 L46.64,16.92 C46.5439995,16.9733336 46.3786678,17.0213331 46.144,17.064 C45.9093322,17.1066669 45.6373349,17.128 45.328,17.128 C44.453329,17.128 43.9146677,16.8346696 43.712,16.248 L43.664,16.248 C43.4613323,16.440001 43.1760018,16.6346657 42.808,16.832 C42.4399982,17.0293343 41.9946693,17.128 41.472,17.128 C40.9919976,17.128 40.5920016,17.061334 40.272,16.928 C39.9519984,16.794666 39.6933343,16.6080012 39.496,16.368 C39.2986657,16.1279988 39.1573338,15.8400017 39.072,15.504 C38.9866662,15.1679983 38.944,14.7973354 38.944,14.392 L38.944,10.68 L37.968,10.68 L37.968,9.144 L41.2,9.144 Z M43.712,5.912 C44.053335,5.912 44.3333322,6.02399888 44.552,6.248 C44.7706678,6.47200112 44.88,6.73866512 44.88,7.048 C44.88,7.35733488 44.7706678,7.62133224 44.552,7.84 C44.3333322,8.05866776 44.053335,8.168 43.712,8.168 C43.370665,8.168 43.0906678,8.05866776 42.872,7.84 C42.6533322,7.62133224 42.544,7.35733488 42.544,7.048 C42.544,6.73866512 42.6533322,6.47200112 42.872,6.248 C43.0906678,6.02399888 43.370665,5.912 43.712,5.912 Z M40.496,5.912 C40.837335,5.912 41.1173322,6.02399888 41.336,6.248 C41.5546678,6.47200112 41.664,6.73866512 41.664,7.048 C41.664,7.35733488 41.5546678,7.62133224 41.336,7.84 C41.1173322,8.05866776 40.837335,8.168 40.496,8.168 C40.154665,8.168 39.8746678,8.05866776 39.656,7.84 C39.4373322,7.62133224 39.328,7.35733488 39.328,7.048 C39.328,6.73866512 39.4373322,6.47200112 39.656,6.248 C39.8746678,6.02399888 40.154665,5.912 40.496,5.912 Z M50.24,17.16 C50.0053322,17.16 49.7573346,17.1466668 49.496,17.12 C49.2346654,17.0933332 48.9786679,17.0613335 48.728,17.024 C48.4773321,16.9866665 48.2400011,16.9413336 48.016,16.888 C47.7919989,16.8346664 47.6053341,16.7760003 47.456,16.712 L47.456,14.568 L49.136,14.568 L49.136,15.592 C49.3066675,15.6240002 49.4906657,15.6453333 49.688,15.656 C49.8853343,15.6666667 50.079999,15.672 50.272,15.672 C50.805336,15.672 51.175999,15.605334 51.384,15.472 C51.592001,15.338666 51.696,15.1173349 51.696,14.808 C51.696,14.6693326 51.6693336,14.5520005 51.616,14.456 C51.5626664,14.3599995 51.4720006,14.2773337 51.344,14.208 C51.2159994,14.1386663 51.0453344,14.0773336 50.832,14.024 C50.6186656,13.9706664 50.3520016,13.906667 50.032,13.832 C49.690665,13.757333 49.3680015,13.6613339 49.064,13.544 C48.7599985,13.4266661 48.4933345,13.2773342 48.264,13.096 C48.0346655,12.9146658 47.853334,12.6853347 47.72,12.408 C47.586666,12.1306653 47.52,11.7893354 47.52,11.384 C47.52,10.5626626 47.7919973,9.95733528 48.336,9.568 C48.8800027,9.17866472 49.6533283,8.984 50.656,8.984 C50.9333347,8.984 51.2079986,8.9973332 51.48,9.024 C51.7520014,9.0506668 52.0079988,9.08533312 52.248,9.128 C52.4880012,9.17066688 52.703999,9.21599976 52.896,9.264 C53.088001,9.31200024 53.2319995,9.35733312 53.328,9.4 L53.328,11.512 L51.648,11.512 L51.648,10.536 C51.4879992,10.5039998 51.3200009,10.4826667 51.144,10.472 C50.9679991,10.4613333 50.8160006,10.456 50.688,10.456 C50.1973309,10.456 49.8613342,10.5199994 49.68,10.648 C49.4986658,10.7760006 49.408,10.9679987 49.408,11.224 C49.408,11.5226682 49.541332,11.7306661 49.808,11.848 C50.074668,11.9653339 50.4693307,12.0826661 50.992,12.2 C51.3546685,12.2853338 51.698665,12.3813328 52.024,12.488 C52.349335,12.5946672 52.6319988,12.7333325 52.872,12.904 C53.1120012,13.0746675 53.3013326,13.293332 53.44,13.56 C53.5786674,13.826668 53.648,14.1679979 53.648,14.584 C53.648,15.4373376 53.344003,16.0799978 52.736,16.512 C52.127997,16.9440022 51.2960053,17.16 50.24,17.16 Z M57.36,17.16 C57.1253322,17.16 56.8773346,17.1466668 56.616,17.12 C56.3546654,17.0933332 56.0986679,17.0613335 55.848,17.024 C55.5973321,16.9866665 55.3600011,16.9413336 55.136,16.888 C54.9119989,16.8346664 54.7253341,16.7760003 54.576,16.712 L54.576,14.568 L56.256,14.568 L56.256,15.592 C56.4266675,15.6240002 56.6106657,15.6453333 56.808,15.656 C57.0053343,15.6666667 57.199999,15.672 57.392,15.672 C57.925336,15.672 58.295999,15.605334 58.504,15.472 C58.712001,15.338666 58.816,15.1173349 58.816,14.808 C58.816,14.6693326 58.7893336,14.5520005 58.736,14.456 C58.6826664,14.3599995 58.5920006,14.2773337 58.464,14.208 C58.3359994,14.1386663 58.1653344,14.0773336 57.952,14.024 C57.7386656,13.9706664 57.4720016,13.906667 57.152,13.832 C56.810665,13.757333 56.4880015,13.6613339 56.184,13.544 C55.8799985,13.4266661 55.6133345,13.2773342 55.384,13.096 C55.1546655,12.9146658 54.973334,12.6853347 54.84,12.408 C54.706666,12.1306653 54.64,11.7893354 54.64,11.384 C54.64,10.5626626 54.9119973,9.95733528 55.456,9.568 C56.0000027,9.17866472 56.7733283,8.984 57.776,8.984 C58.0533347,8.984 58.3279986,8.9973332 58.6,9.024 C58.8720014,9.0506668 59.1279988,9.08533312 59.368,9.128 C59.6080012,9.17066688 59.823999,9.21599976 60.016,9.264 C60.208001,9.31200024 60.3519995,9.35733312 60.448,9.4 L60.448,11.512 L58.768,11.512 L58.768,10.536 C58.6079992,10.5039998 58.4400009,10.4826667 58.264,10.472 C58.0879991,10.4613333 57.9360006,10.456 57.808,10.456 C57.3173309,10.456 56.9813342,10.5199994 56.8,10.648 C56.6186658,10.7760006 56.528,10.9679987 56.528,11.224 C56.528,11.5226682 56.661332,11.7306661 56.928,11.848 C57.194668,11.9653339 57.5893307,12.0826661 58.112,12.2 C58.4746685,12.2853338 58.818665,12.3813328 59.144,12.488 C59.469335,12.5946672 59.7519988,12.7333325 59.992,12.904 C60.2320012,13.0746675 60.4213326,13.293332 60.56,13.56 C60.6986674,13.826668 60.768,14.1679979 60.768,14.584 C60.768,15.4373376 60.464003,16.0799978 59.856,16.512 C59.247997,16.9440022 58.4160053,17.16 57.36,17.16 Z M65.792,17.128 C65.0773298,17.128 64.4613359,17.032001 63.944,16.84 C63.4266641,16.647999 63.0026683,16.3733351 62.672,16.016 C62.3413317,15.6586649 62.0960008,15.2320025 61.936,14.736 C61.7759992,14.2399975 61.696,13.688003 61.696,13.08 C61.696,12.5146638 61.7786658,11.9866691 61.944,11.496 C62.1093342,11.0053309 62.3493318,10.5760018 62.664,10.208 C62.9786682,9.83999816 63.365331,9.5493344 63.824,9.336 C64.282669,9.1226656 64.8106637,9.016 65.408,9.016 C66.0480032,9.016 66.5839978,9.11733232 67.016,9.32 C67.4480022,9.52266768 67.7946654,9.79466496 68.056,10.136 C68.3173346,10.477335 68.5039994,10.8719978 68.616,11.32 C68.7280006,11.7680022 68.784,12.2319976 68.784,12.712 C68.784,12.978668 68.7680002,13.2239989 68.736,13.448 L63.856,13.448 L63.856,13.48 C63.856,14.1093365 64.0213317,14.6106648 64.352,14.984 C64.6826683,15.3573352 65.2213296,15.544 65.968,15.544 C66.4480024,15.544 66.8826647,15.4986671 67.272,15.408 C67.6613353,15.3173329 67.9946653,15.2133339 68.272,15.096 L68.272,16.68 C67.9519984,16.8080006 67.5786688,16.9146662 67.152,17 C66.7253312,17.0853338 66.2720024,17.128 65.792,17.128 Z M65.36,10.472 C64.9546646,10.472 64.6053348,10.6239985 64.312,10.928 C64.0186652,11.2320015 63.8560002,11.6773304 63.824,12.264 L66.704,12.264 L66.704,12.104 C66.704,11.8799989 66.6773336,11.6693343 66.624,11.472 C66.5706664,11.2746657 66.4906672,11.1013341 66.384,10.952 C66.2773328,10.8026659 66.1386675,10.6853338 65.968,10.6 C65.7973325,10.5146662 65.5946678,10.472 65.36,10.472 Z M70.416,7.592 L69.312,7.592 L69.312,6.056 L72.656,6.056 L72.496,7.592 L72.496,14.664 C72.496,14.9733349 72.5519994,15.1893327 72.664,15.312 C72.7760006,15.4346673 72.9546654,15.496 73.2,15.496 C73.4026677,15.496 73.5786659,15.4693336 73.728,15.416 L73.728,16.984 C73.5786659,17.0373336 73.408001,17.0746666 73.216,17.096 C73.023999,17.1173334 72.832001,17.128 72.64,17.128 C71.9039963,17.128 71.3493352,16.9626683 70.976,16.632 C70.6026648,16.3013317 70.416,15.7520038 70.416,14.984 L70.416,7.592 Z M78.512,17 L74.416,17 L74.416,15.464 L75.456,15.464 L75.456,10.68 L74.416,10.68 L74.416,9.144 L77.472,9.144 L77.472,9.864 C77.6853344,9.67199904 77.9733315,9.4826676 78.336,9.296 C78.6986685,9.1093324 79.1413307,9.016 79.664,9.016 C80.1440024,9.016 80.5439984,9.082666 80.864,9.216 C81.1840016,9.349334 81.4453323,9.53866544 81.648,9.784 C81.8506677,10.0293346 81.9946662,10.3199983 82.08,10.656 C82.1653338,10.9920017 82.208,11.3573314 82.208,11.752 L82.208,15.464 L83.2,15.464 L83.2,17 L80.112,17 L80.112,12.008 C80.112,11.5279976 80.0213342,11.1760011 79.84,10.952 C79.6586658,10.7279989 79.3333357,10.616 78.864,10.616 C78.6079987,10.616 78.3600012,10.6586662 78.12,10.744 C77.8799988,10.8293338 77.6853341,10.9306661 77.536,11.048 L77.536,15.464 L78.512,15.464 L78.512,17 Z M87.792,17.128 C87.1519968,17.128 86.5920024,17.0266677 86.112,16.824 C85.6319976,16.6213323 85.2373349,16.3386685 84.928,15.976 C84.6186651,15.6133315 84.3866674,15.1840025 84.232,14.688 C84.0773326,14.1919975 84,13.6560029 84,13.08 C84,12.546664 84.0773326,12.0346691 84.232,11.544 C84.3866674,11.0533309 84.6186651,10.6213352 84.928,10.248 C85.2373349,9.8746648 85.6319976,9.57600112 86.112,9.352 C86.5920024,9.12799888 87.1519968,9.016 87.792,9.016 C88.4320032,9.016 88.989331,9.11999896 89.464,9.328 C89.938669,9.53600104 90.3333318,9.82133152 90.648,10.184 C90.9626682,10.5466685 91.1946659,10.9759975 91.344,11.472 C91.4933341,11.9680025 91.568,12.5039971 91.568,13.08 C91.568,13.613336 91.4906674,14.1253309 91.336,14.616 C91.1813326,15.1066691 90.9493349,15.5386648 90.64,15.912 C90.3306651,16.2853352 89.938669,16.5813322 89.464,16.8 C88.989331,17.0186678 88.4320032,17.128 87.792,17.128 Z M87.792,15.608 C88.3893363,15.608 88.8053322,15.3813356 89.04,14.928 C89.2746678,14.4746644 89.392,13.8586706 89.392,13.08 C89.392,12.3013294 89.2746678,11.682669 89.04,11.224 C88.8053322,10.765331 88.3893363,10.536 87.792,10.536 C87.183997,10.536 86.7626678,10.7626644 86.528,11.216 C86.2933322,11.6693356 86.176,12.2906627 86.176,13.08 C86.176,13.8586706 86.2933322,14.4746644 86.528,14.928 C86.7626678,15.3813356 87.183997,15.608 87.792,15.608 Z M95.808,17.128 C95.007996,17.128 94.3920022,16.957335 93.96,16.616 C93.5279978,16.274665 93.312,15.6773376 93.312,14.824 L93.312,10.68 L92.272,10.68 L92.272,9.144 L93.344,9.144 L93.344,7.064 L95.376,7.064 L95.376,9.144 L97.328,9.144 L97.328,10.68 L95.392,10.68 L95.392,14.44 C95.392,14.8453354 95.4746658,15.1253326 95.64,15.28 C95.8053342,15.4346674 96.058665,15.512 96.4,15.512 C96.6133344,15.512 96.8106658,15.4960002 96.992,15.464 C97.1733342,15.4319998 97.3226661,15.3946669 97.44,15.352 L97.44,16.888 C97.247999,16.9413336 97.018668,16.9946664 96.752,17.048 C96.485332,17.1013336 96.1706685,17.128 95.808,17.128 Z M103.424,16.216 C103.242666,16.4613346 102.984002,16.6746658 102.648,16.856 C102.311998,17.0373342 101.898669,17.128 101.408,17.128 C100.853331,17.128 100.376002,17.032001 99.976,16.84 C99.575998,16.647999 99.2453346,16.3760018 98.984,16.024 C98.7226654,15.6719982 98.5306673,15.2533358 98.408,14.768 C98.2853327,14.2826642 98.224,13.7520029 98.224,13.176 C98.224,12.5999971 98.3066658,12.0586692 98.472,11.552 C98.6373342,11.0453308 98.8746651,10.6026686 99.184,10.224 C99.4933349,9.84533144 99.8719978,9.5493344 100.32,9.336 C100.768002,9.1226656 101.274664,9.016 101.84,9.016 C102.213335,9.016 102.525332,9.05066632 102.776,9.12 C103.026668,9.18933368 103.210666,9.25599968 103.328,9.32 L103.328,7.576 L102.224,7.576 L102.224,6.056 L105.52,6.056 L105.36,7.592 L105.36,14.872 C105.36,15.0853344 105.408,15.2399995 105.504,15.336 C105.6,15.4320005 105.759999,15.48 105.984,15.48 C106.037334,15.48 106.101333,15.4773334 106.176,15.472 C106.250667,15.4666666 106.304,15.4586667 106.336,15.448 L106.336,16.92 C106.229333,16.9733336 106.066668,17.0213331 105.848,17.064 C105.629332,17.1066669 105.365335,17.128 105.056,17.128 C104.607998,17.128 104.258668,17.0506674 104.008,16.896 C103.757332,16.7413326 103.578667,16.5146682 103.472,16.216 L103.424,16.216 Z M102.096,15.576 C102.341335,15.576 102.562666,15.5360004 102.76,15.456 C102.957334,15.3759996 103.130666,15.2720006 103.28,15.144 L103.28,10.776 C103.162666,10.7119997 103.018668,10.6586669 102.848,10.616 C102.677332,10.5733331 102.485334,10.552 102.272,10.552 C101.631997,10.552 101.160002,10.7759978 100.856,11.224 C100.551998,11.6720022 100.4,12.2906627 100.4,13.08 C100.4,13.421335 100.429333,13.7439985 100.488,14.048 C100.546667,14.3520015 100.639999,14.6159989 100.768,14.84 C100.896001,15.0640011 101.069332,15.242666 101.288,15.376 C101.506668,15.509334 101.775998,15.576 102.096,15.576 Z M110.288,6.84 C110.288,7.18133504 110.170668,7.4719988 109.936,7.712 C109.701332,7.9520012 109.397335,8.072 109.024,8.072 C108.650665,8.072 108.346668,7.9520012 108.112,7.712 C107.877332,7.4719988 107.76,7.18133504 107.76,6.84 C107.76,6.49866496 107.877332,6.21066784 108.112,5.976 C108.346668,5.74133216 108.650665,5.624 109.024,5.624 C109.397335,5.624 109.701332,5.74133216 109.936,5.976 C110.170668,6.21066784 110.288,6.49866496 110.288,6.84 Z M107.056,9.144 L110.32,9.144 L110.176,10.696 L110.176,15.464 L111.152,15.464 L111.152,17 L107.056,17 L107.056,15.464 L108.096,15.464 L108.096,10.68 L107.056,10.68 L107.056,9.144 Z M116.048,17.128 C115.33333,17.128 114.717336,17.032001 114.2,16.84 C113.682664,16.647999 113.258668,16.3733351 112.928,16.016 C112.597332,15.6586649 112.352001,15.2320025 112.192,14.736 C112.031999,14.2399975 111.952,13.688003 111.952,13.08 C111.952,12.5146638 112.034666,11.9866691 112.2,11.496 C112.365334,11.0053309 112.605332,10.5760018 112.92,10.208 C113.234668,9.83999816 113.621331,9.5493344 114.08,9.336 C114.538669,9.1226656 115.066664,9.016 115.664,9.016 C116.304003,9.016 116.839998,9.11733232 117.272,9.32 C117.704002,9.52266768 118.050665,9.79466496 118.312,10.136 C118.573335,10.477335 118.759999,10.8719978 118.872,11.32 C118.984001,11.7680022 119.04,12.2319976 119.04,12.712 C119.04,12.978668 119.024,13.2239989 118.992,13.448 L114.112,13.448 L114.112,13.48 C114.112,14.1093365 114.277332,14.6106648 114.608,14.984 C114.938668,15.3573352 115.47733,15.544 116.224,15.544 C116.704002,15.544 117.138665,15.4986671 117.528,15.408 C117.917335,15.3173329 118.250665,15.2133339 118.528,15.096 L118.528,16.68 C118.207998,16.8080006 117.834669,16.9146662 117.408,17 C116.981331,17.0853338 116.528002,17.128 116.048,17.128 Z M115.616,10.472 C115.210665,10.472 114.861335,10.6239985 114.568,10.928 C114.274665,11.2320015 114.112,11.6773304 114.08,12.264 L116.96,12.264 L116.96,12.104 C116.96,11.8799989 116.933334,11.6693343 116.88,11.472 C116.826666,11.2746657 116.746667,11.1013341 116.64,10.952 C116.533333,10.8026659 116.394668,10.6853338 116.224,10.6 C116.053332,10.5146662 115.850668,10.472 115.616,10.472 Z M124.032,17 L119.936,17 L119.936,15.464 L120.976,15.464 L120.976,10.68 L119.936,10.68 L119.936,9.144 L122.992,9.144 L122.992,9.864 C123.205334,9.67199904 123.493332,9.4826676 123.856,9.296 C124.218668,9.1093324 124.661331,9.016 125.184,9.016 C125.664002,9.016 126.063998,9.082666 126.384,9.216 C126.704002,9.349334 126.965332,9.53866544 127.168,9.784 C127.370668,10.0293346 127.514666,10.3199983 127.6,10.656 C127.685334,10.9920017 127.728,11.3573314 127.728,11.752 L127.728,15.464 L128.72,15.464 L128.72,17 L125.632,17 L125.632,12.008 C125.632,11.5279976 125.541334,11.1760011 125.36,10.952 C125.178666,10.7279989 124.853336,10.616 124.384,10.616 C124.127999,10.616 123.880001,10.6586662 123.64,10.744 C123.399999,10.8293338 123.205334,10.9306661 123.056,11.048 L123.056,15.464 L124.032,15.464 L124.032,17 Z M132.304,17.16 C132.069332,17.16 131.821335,17.1466668 131.56,17.12 C131.298665,17.0933332 131.042668,17.0613335 130.792,17.024 C130.541332,16.9866665 130.304001,16.9413336 130.08,16.888 C129.855999,16.8346664 129.669334,16.7760003 129.52,16.712 L129.52,14.568 L131.2,14.568 L131.2,15.592 C131.370668,15.6240002 131.554666,15.6453333 131.752,15.656 C131.949334,15.6666667 132.143999,15.672 132.336,15.672 C132.869336,15.672 133.239999,15.605334 133.448,15.472 C133.656001,15.338666 133.76,15.1173349 133.76,14.808 C133.76,14.6693326 133.733334,14.5520005 133.68,14.456 C133.626666,14.3599995 133.536001,14.2773337 133.408,14.208 C133.279999,14.1386663 133.109334,14.0773336 132.896,14.024 C132.682666,13.9706664 132.416002,13.906667 132.096,13.832 C131.754665,13.757333 131.432002,13.6613339 131.128,13.544 C130.823998,13.4266661 130.557334,13.2773342 130.328,13.096 C130.098666,12.9146658 129.917334,12.6853347 129.784,12.408 C129.650666,12.1306653 129.584,11.7893354 129.584,11.384 C129.584,10.5626626 129.855997,9.95733528 130.4,9.568 C130.944003,9.17866472 131.717328,8.984 132.72,8.984 C132.997335,8.984 133.271999,8.9973332 133.544,9.024 C133.816001,9.0506668 134.071999,9.08533312 134.312,9.128 C134.552001,9.17066688 134.767999,9.21599976 134.96,9.264 C135.152001,9.31200024 135.296,9.35733312 135.392,9.4 L135.392,11.512 L133.712,11.512 L133.712,10.536 C133.551999,10.5039998 133.384001,10.4826667 133.208,10.472 C133.031999,10.4613333 132.880001,10.456 132.752,10.456 C132.261331,10.456 131.925334,10.5199994 131.744,10.648 C131.562666,10.7760006 131.472,10.9679987 131.472,11.224 C131.472,11.5226682 131.605332,11.7306661 131.872,11.848 C132.138668,11.9653339 132.533331,12.0826661 133.056,12.2 C133.418668,12.2853338 133.762665,12.3813328 134.088,12.488 C134.413335,12.5946672 134.695999,12.7333325 134.936,12.904 C135.176001,13.0746675 135.365333,13.293332 135.504,13.56 C135.642667,13.826668 135.712,14.1679979 135.712,14.584 C135.712,15.4373376 135.408003,16.0799978 134.8,16.512 C134.191997,16.9440022 133.360005,17.16 132.304,17.16 Z M139.888,17.128 C139.087996,17.128 138.472002,16.957335 138.04,16.616 C137.607998,16.274665 137.392,15.6773376 137.392,14.824 L137.392,10.68 L136.352,10.68 L136.352,9.144 L137.424,9.144 L137.424,7.064 L139.456,7.064 L139.456,9.144 L141.408,9.144 L141.408,10.68 L139.472,10.68 L139.472,14.44 C139.472,14.8453354 139.554666,15.1253326 139.72,15.28 C139.885334,15.4346674 140.138665,15.512 140.48,15.512 C140.693334,15.512 140.890666,15.4960002 141.072,15.464 C141.253334,15.4319998 141.402666,15.3946669 141.52,15.352 L141.52,16.888 C141.327999,16.9413336 141.098668,16.9946664 140.832,17.048 C140.565332,17.1013336 140.250668,17.128 139.888,17.128 Z" id="Schlüsselnotdienst" fill="#333333" fill-rule="nonzero"></path>
                </g>
            </g>
        </g>
    </g>
</svg>