<?xml version="1.0" encoding="UTF-8"?>
<svg width="323px" height="138px" viewBox="0 0 323 138" version="1.1" xmlns="http://www.w3.org/2000/svg" xmlns:xlink="http://www.w3.org/1999/xlink">
    <!-- Generator: Sketch 55.2 (78181) - https://sketchapp.com -->
    <title>Group 7</title>
    <desc>Created with Sketch.</desc>
    <defs>
        <path d="M12.5416667,10.3333333 C11.8583333,8.39166667 10.0083333,7 7.83333333,7 C5.075,7 2.83333333,9.24166667 2.83333333,12 C2.83333333,14.7583333 5.075,17 7.83333333,17 C10.0083333,17 11.8583333,15.6083333 12.5416667,13.6666667 L16.1666667,13.6666667 L16.1666667,17 L19.5,17 L19.5,13.6666667 L21.1666667,13.6666667 L21.1666667,10.3333333 L12.5416667,10.3333333 Z M7.83333333,13.6666667 C6.91666667,13.6666667 6.16666667,12.9166667 6.16666667,12 C6.16666667,11.0833333 6.91666667,10.3333333 7.83333333,10.3333333 C8.75,10.3333333 9.5,11.0833333 9.5,12 C9.5,12.9166667 8.75,13.6666667 7.83333333,13.6666667 Z" id="path-1"></path>
        <path d="M12.5416667,10.3333333 C11.8583333,8.39166667 10.0083333,7 7.83333333,7 C5.075,7 2.83333333,9.24166667 2.83333333,12 C2.83333333,14.7583333 5.075,17 7.83333333,17 C10.0083333,17 11.8583333,15.6083333 12.5416667,13.6666667 L16.1666667,13.6666667 L16.1666667,17 L19.5,17 L19.5,13.6666667 L21.1666667,13.6666667 L21.1666667,10.3333333 L12.5416667,10.3333333 Z M7.83333333,13.6666667 C6.91666667,13.6666667 6.16666667,12.9166667 6.16666667,12 C6.16666667,11.0833333 6.91666667,10.3333333 7.83333333,10.3333333 C8.75,10.3333333 9.5,11.0833333 9.5,12 C9.5,12.9166667 8.75,13.6666667 7.83333333,13.6666667 Z" id="path-3"></path>
        <path d="M12.5416667,10.3333333 C11.8583333,8.39166667 10.0083333,7 7.83333333,7 C5.075,7 2.83333333,9.24166667 2.83333333,12 C2.83333333,14.7583333 5.075,17 7.83333333,17 C10.0083333,17 11.8583333,15.6083333 12.5416667,13.6666667 L16.1666667,13.6666667 L16.1666667,17 L19.5,17 L19.5,13.6666667 L21.1666667,13.6666667 L21.1666667,10.3333333 L12.5416667,10.3333333 Z M7.83333333,13.6666667 C6.91666667,13.6666667 6.16666667,12.9166667 6.16666667,12 C6.16666667,11.0833333 6.91666667,10.3333333 7.83333333,10.3333333 C8.75,10.3333333 9.5,11.0833333 9.5,12 C9.5,12.9166667 8.75,13.6666667 7.83333333,13.6666667 Z" id="path-5"></path>
        <path d="M12.5416667,10.3333333 C11.8583333,8.39166667 10.0083333,7 7.83333333,7 C5.075,7 2.83333333,9.24166667 2.83333333,12 C2.83333333,14.7583333 5.075,17 7.83333333,17 C10.0083333,17 11.8583333,15.6083333 12.5416667,13.6666667 L16.1666667,13.6666667 L16.1666667,17 L19.5,17 L19.5,13.6666667 L21.1666667,13.6666667 L21.1666667,10.3333333 L12.5416667,10.3333333 Z M7.83333333,13.6666667 C6.91666667,13.6666667 6.16666667,12.9166667 6.16666667,12 C6.16666667,11.0833333 6.91666667,10.3333333 7.83333333,10.3333333 C8.75,10.3333333 9.5,11.0833333 9.5,12 C9.5,12.9166667 8.75,13.6666667 7.83333333,13.6666667 Z" id="path-7"></path>
    </defs>
    <g id="Process---360x800" stroke="none" stroke-width="1" fill="none" fill-rule="evenodd">
        <g id="01-Landing" transform="translate(-20.000000, -380.000000)">
            <g id="Group-7" transform="translate(16.000000, 376.000000)">
                <g id="Group">
                    <g id="Group-17" transform="translate(0.000000, 64.000000)">
                        <text id="Body-1-Copy-5" font-family="MiloADACOffc-Bold, Milo ADAC Offc" font-size="18" font-weight="bold" line-spacing="24" fill="#191919">
                            <tspan x="32" y="17">Festpreis</tspan>
                            <tspan x="102.326" y="17" font-family="MiloADACOffc, Milo ADAC Offc" font-weight="normal"> inklusive Anfahrtskosten</tspan>
                        </text>
                        <g id="Group-11-Copy-3">
                            <g id="Icon-/Key">
                                <polygon id="Path" transform="translate(12.000000, 12.000000) rotate(-45.000000) translate(-12.000000, -12.000000) " points="2 2 22 2 22 22 2 22"></polygon>
                                <mask id="mask-2" fill="white">
                                    <use xlink:href="#path-1"></use>
                                </mask>
                                <use id="Shape" fill="#000000" fill-rule="nonzero" transform="translate(12.000000, 12.000000) rotate(-45.000000) translate(-12.000000, -12.000000) " xlink:href="#path-1"></use>
                                <g id="Colors-/-Black" mask="url(#mask-2)"></g>
                            </g>
                        </g>
                    </g>
                    <g id="Group-14">
                        <text id="Body-1-Copy-5" font-family="MiloADACOffc-Bold, Milo ADAC Offc" font-size="18" font-weight="bold" line-spacing="24" fill="#191919">
                            <tspan x="32" y="17">Schnelle Hilfe </tspan>
                            <tspan x="142.7" y="17" font-family="MiloADACOffc, Milo ADAC Offc" font-weight="normal">– innerhalb 45 Minuten</tspan>
                        </text>
                        <g id="Icon-/Key">
                            <polygon id="Path" transform="translate(12.000000, 12.000000) rotate(-45.000000) translate(-12.000000, -12.000000) " points="2 2 22 2 22 22 2 22"></polygon>
                            <mask id="mask-4" fill="white">
                                <use xlink:href="#path-3"></use>
                            </mask>
                            <use id="Shape" fill="#000000" fill-rule="nonzero" transform="translate(12.000000, 12.000000) rotate(-45.000000) translate(-12.000000, -12.000000) " xlink:href="#path-3"></use>
                            <g id="Colors-/-Black" mask="url(#mask-4)"></g>
                        </g>
                    </g>
                    <g id="Group-8" transform="translate(0.000000, 32.000000)">
                        <text id="Body-1-Copy-5" font-family="MiloADACOffc-Bold, Milo ADAC Offc" font-size="18" font-weight="bold" line-spacing="24" letter-spacing="-0.05" fill="#191919">
                            <tspan x="32" y="17">Alle Haustüren </tspan>
                            <tspan x="150.986" y="17" font-family="MiloADACOffc, Milo ADAC Offc" font-weight="normal">können geöffnet werden</tspan>
                        </text>
                        <g id="Icon-/Key">
                            <polygon id="Path" transform="translate(12.000000, 12.000000) rotate(-45.000000) translate(-12.000000, -12.000000) " points="2 2 22 2 22 22 2 22"></polygon>
                            <mask id="mask-6" fill="white">
                                <use xlink:href="#path-5"></use>
                            </mask>
                            <use id="Shape" fill="#000000" fill-rule="nonzero" transform="translate(12.000000, 12.000000) rotate(-45.000000) translate(-12.000000, -12.000000) " xlink:href="#path-5"></use>
                            <g id="Colors-/-Black" mask="url(#mask-6)"></g>
                        </g>
                    </g>
                    <g id="Group-11-Copy-4" transform="translate(0.000000, 96.000000)">
                        <text id="Body-1-Copy-5" font-family="MiloADACOffc-Bold, Milo ADAC Offc" font-size="18" font-weight="bold" line-spacing="24" fill="#191919">
                            <tspan x="32" y="17">Bequeme Zahlung </tspan>
                            <tspan x="175.604" y="17" font-family="MiloADACOffc, Milo ADAC Offc" font-weight="normal">– elektronische </tspan>
                            <tspan x="32" y="41" font-family="MiloADACOffc, Milo ADAC Offc" font-weight="normal">Rechnung</tspan>
                        </text>
                        <g id="Icon-/Key">
                            <polygon id="Path" transform="translate(12.000000, 12.000000) rotate(-45.000000) translate(-12.000000, -12.000000) " points="2 2 22 2 22 22 2 22"></polygon>
                            <mask id="mask-8" fill="white">
                                <use xlink:href="#path-7"></use>
                            </mask>
                            <use id="Shape" fill="#000000" fill-rule="nonzero" transform="translate(12.000000, 12.000000) rotate(-45.000000) translate(-12.000000, -12.000000) " xlink:href="#path-7"></use>
                            <g id="Colors-/-Black" mask="url(#mask-8)"></g>
                        </g>
                    </g>
                </g>
            </g>
        </g>
    </g>
</svg>