<?xml version="1.0" encoding="UTF-8"?>
<svg width="296px" height="40px" viewBox="0 0 296 40" version="1.1" xmlns="http://www.w3.org/2000/svg" xmlns:xlink="http://www.w3.org/1999/xlink">
    <!-- Generator: Sketch 56.2 (81672) - https://sketch.com -->
    <title>rate-us-smileys</title>
    <desc>Created with Sketch.</desc>
    <g id="Page-1" stroke="none" stroke-width="1" fill="none" fill-rule="evenodd">
        <g id="rate-us-smileys" transform="translate(1.000000, 0.000000)" fill-rule="nonzero">
            <g id="Group-6" fill="#FFCC00">
                <g id="Group" transform="translate(0.000000, 1.000000)" stroke="#FFCC00" stroke-width="2">
                    <circle id="Oval" cx="19" cy="19" r="19"></circle>
                </g>
                <g id="Group-Copy-2" transform="translate(63.000000, 0.000000)">
                    <circle id="Oval" cx="20" cy="20" r="20"></circle>
                    <circle id="Oval-Copy-4" cx="20" cy="20" r="20"></circle>
                </g>
                <g id="Group-3" transform="translate(191.000000, 0.000000)">
                    <circle id="Oval-Copy-2" cx="20" cy="20" r="20"></circle>
                </g>
                <g id="Group-3-Copy" transform="translate(255.000000, 0.000000)">
                    <circle id="Oval-Copy-2" cx="20" cy="20" r="20"></circle>
                </g>
                <g id="Group-2" transform="translate(127.000000, 0.000000)">
                    <circle id="Oval-Copy" cx="20" cy="20" r="20"></circle>
                </g>
            </g>
            <path d="M10.1098494,25.3502506 C9.452572,24.4466772 10.546842,23.3093113 11.4751181,23.9312132 C13.1842454,25.0762492 15.6895829,25.6667629 18.9997491,25.6667629 C22.3099154,25.6667629 24.8152529,25.0762492 26.5243802,23.9312132 C27.4538558,23.3085076 28.5485758,24.449241 27.8881503,25.3523053 C25.1704001,29.0685502 22.2066903,30.9895713 19.0030327,31.0001766 C15.7951358,31.0106243 12.8285941,29.0877677 10.1098494,25.3502506 Z" id="Path" fill="#191919"></path>
            <path d="M10.4504332,18.5339236 C10.4359924,18.3899815 10.4285714,18.2436002 10.4285714,18.0952381 C10.4285714,15.9912962 11.9209556,14.2857143 13.7619048,14.2857143 C15.6028539,14.2857143 17.0952381,15.9912962 17.0952381,18.0952381 C17.0952381,18.2436002 17.0878171,18.3899815 17.0733763,18.5339236 C16.2873563,17.6845344 15.0957955,17.1428571 13.7619048,17.1428571 C12.428014,17.1428571 11.2364532,17.6845344 10.4504332,18.5339236 Z" id="Combined-Shape" fill="#191919"></path>
            <path d="M20.9266237,18.5339236 C20.9121829,18.3899815 20.9047619,18.2436002 20.9047619,18.0952381 C20.9047619,15.9912962 22.3971461,14.2857143 24.2380952,14.2857143 C26.0790444,14.2857143 27.5714286,15.9912962 27.5714286,18.0952381 C27.5714286,18.2436002 27.5640076,18.3899815 27.5495668,18.5339236 C26.7635468,17.6845344 25.571986,17.1428571 24.2380952,17.1428571 C22.9042045,17.1428571 21.7126437,17.6845344 20.9266237,18.5339236 Z" id="Combined-Shape-Copy" fill="#191919"></path>
            <path d="M74.2116729,26.4213925 C73.8211486,26.0308682 73.8211486,25.3977032 74.2116729,25.0071789 C74.6021972,24.6166546 75.2353621,24.6166546 75.6258864,25.0071789 C79.6984969,29.0797894 86.3015031,29.0797894 90.3741136,25.0071789 C90.7646379,24.6166546 91.3978028,24.6166546 91.7883271,25.0071789 C92.1788514,25.3977032 92.1788514,26.0308682 91.7883271,26.4213925 C86.9346681,31.2750515 79.0653319,31.2750515 74.2116729,26.4213925 Z M77.7619048,20.952381 C76.4469411,20.952381 75.3809524,19.246799 75.3809524,17.1428571 C75.3809524,15.0389152 76.4469411,13.3333333 77.7619048,13.3333333 C79.0768685,13.3333333 80.1428571,15.0389152 80.1428571,17.1428571 C80.1428571,19.246799 79.0768685,20.952381 77.7619048,20.952381 Z M88.2380952,20.952381 C86.9231315,20.952381 85.8571429,19.246799 85.8571429,17.1428571 C85.8571429,15.0389152 86.9231315,13.3333333 88.2380952,13.3333333 C89.5530589,13.3333333 90.6190476,15.0389152 90.6190476,17.1428571 C90.6190476,19.246799 89.5530589,20.952381 88.2380952,20.952381 Z" id="Combined-Shape" fill="#191919"></path>
            <path d="M205.761905,20.952381 C204.446941,20.952381 203.380952,19.246799 203.380952,17.1428571 C203.380952,15.0389152 204.446941,13.3333333 205.761905,13.3333333 C207.076868,13.3333333 208.142857,15.0389152 208.142857,17.1428571 C208.142857,19.246799 207.076868,20.952381 205.761905,20.952381 Z M216.238095,20.952381 C214.923132,20.952381 213.857143,19.246799 213.857143,17.1428571 C213.857143,15.0389152 214.923132,13.3333333 216.238095,13.3333333 C217.553059,13.3333333 218.619048,15.0389152 218.619048,17.1428571 C218.619048,19.246799 217.553059,20.952381 216.238095,20.952381 Z M204.190328,25.2352337 L218.202463,28.041812 C218.743992,28.1502783 219.095058,28.6772034 218.986592,29.2187323 C218.878126,29.7602611 218.351201,30.1113278 217.809672,30.0028616 L203.797537,27.1962832 C203.256008,27.087817 202.904942,26.5608919 203.013408,26.019363 C203.121874,25.4778341 203.648799,25.1267674 204.190328,25.2352337 Z" id="Combined-Shape" fill="#191919"></path>
            <path d="M266.467975,26.3489873 C272.090725,22.4118953 279.840508,23.7783912 283.777601,29.4011413 C284.094378,29.8535465 283.98443,30.4770923 283.532025,30.7938698 C283.07962,31.1106473 282.456074,31.0006994 282.139296,30.5482942 C278.835759,25.8303544 272.333068,24.6837544 267.615128,27.9872914 C267.162723,28.3040689 266.539177,28.194121 266.222399,27.7417158 C265.905622,27.2893106 266.01557,26.6657649 266.467975,26.3489873 Z M269.761905,21.4285714 C268.446941,21.4285714 267.380952,19.7229895 267.380952,17.6190476 C267.380952,15.5151057 268.446941,13.8095238 269.761905,13.8095238 C271.076868,13.8095238 272.142857,15.5151057 272.142857,17.6190476 C272.142857,19.7229895 271.076868,21.4285714 269.761905,21.4285714 Z M280.238095,21.4285714 C278.923132,21.4285714 277.857143,19.7229895 277.857143,17.6190476 C277.857143,15.5151057 278.923132,13.8095238 280.238095,13.8095238 C281.553059,13.8095238 282.619048,15.5151057 282.619048,17.6190476 C282.619048,19.7229895 281.553059,21.4285714 280.238095,21.4285714 Z" id="Combined-Shape" fill="#191919"></path>
            <path d="M141.761905,20.952381 C140.446941,20.952381 139.380952,19.246799 139.380952,17.1428571 C139.380952,15.0389152 140.446941,13.3333333 141.761905,13.3333333 C143.076868,13.3333333 144.142857,15.0389152 144.142857,17.1428571 C144.142857,19.246799 143.076868,20.952381 141.761905,20.952381 Z M152.238095,20.952381 C150.923132,20.952381 149.857143,19.246799 149.857143,17.1428571 C149.857143,15.0389152 150.923132,13.3333333 152.238095,13.3333333 C153.553059,13.3333333 154.619048,15.0389152 154.619048,17.1428571 C154.619048,19.246799 153.553059,20.952381 152.238095,20.952381 Z M139.380952,26.6666667 L154.619048,26.6666667 C155.145033,26.6666667 155.571429,27.0930621 155.571429,27.6190476 C155.571429,28.1450331 155.145033,28.5714286 154.619048,28.5714286 L139.380952,28.5714286 C138.854967,28.5714286 138.428571,28.1450331 138.428571,27.6190476 C138.428571,27.0930621 138.854967,26.6666667 139.380952,26.6666667 Z" id="Combined-Shape" fill="#191919"></path>
        </g>
    </g>
</svg>