<?xml version="1.0" encoding="UTF-8"?>

<svg width="360px" height="64px" viewBox="0 0 360 64" version="1.1" xmlns="http://www.w3.org/2000/svg" xmlns:xlink="http://www.w3.org/1999/xlink">
    <defs>
        <path d="M0,12 L18,12 L18,10 L0,10 L0,12 Z M0,7 L18,7 L18,5 L0,5 L0,7 Z M0,0 L0,2 L18,2 L18,0 L0,0 Z" id="navigation-landing-path-1"></path>
        <path d="M0,12 L18,12 L18,10 L0,10 L0,12 Z M0,7 L18,7 L18,5 L0,5 L0,7 Z M0,0 L0,2 L18,2 L18,0 L0,0 Z" id="navigation-landing-path-3"></path>
        <path d="M17,12.5 C15.75,12.5 14.55,12.3 13.43,11.93 C13.08,11.82 12.69,11.9 12.41,12.17 L10.21,14.37 C7.38,12.93 5.06,10.62 3.62,7.79 L5.82,5.58 C6.1,5.31 6.18,4.92 6.07,4.57 C5.7,3.45 5.5,2.25 5.5,1 C5.5,0.45 5.05,0 4.5,0 L1,0 C0.45,0 0,0.45 0,1 C0,10.39 7.61,18 17,18 C17.55,18 18,17.55 18,17 L18,13.5 C18,12.95 17.55,12.5 17,12.5 Z M9,0 L9,10 L12,7 L18,7 L18,0 L9,0 Z" id="navigation-landing-path-5"></path>
        <path d="M8,8 C10.21,8 12,6.21 12,4 C12,1.79 10.21,0 8,0 C5.79,0 4,1.79 4,4 C4,6.21 5.79,8 8,8 Z M8,10 C5.33,10 0,11.34 0,14 L0,16 L16,16 L16,14 C16,11.34 10.67,10 8,10 Z" id="navigation-landing-path-7"></path>
        <path d="M12.502,6.491 L11.708,6.491 L11.432,6.765 C12.407,7.902 13,9.376 13,10.991 C13,14.581 10.09,17.491 6.5,17.491 C2.91,17.491 0,14.581 0,10.991 C0,7.401 2.91,4.491 6.5,4.491 C8.115,4.491 9.588,5.083 10.725,6.057 L11.001,5.783 L11.001,4.991 L15.999,0 L17.49,1.491 L12.502,6.491 L12.502,6.491 Z M6.5,6.491 C4.014,6.491 2,8.505 2,10.991 C2,13.476 4.014,15.491 6.5,15.491 C8.985,15.491 11,13.476 11,10.991 C11,8.505 8.985,6.491 6.5,6.491 L6.5,6.491 Z" id="navigation-landing-path-9"></path>
        <path d="M12.502,6.491 L11.708,6.491 L11.432,6.765 C12.407,7.902 13,9.376 13,10.991 C13,14.581 10.09,17.491 6.5,17.491 C2.91,17.491 0,14.581 0,10.991 C0,7.401 2.91,4.491 6.5,4.491 C8.115,4.491 9.588,5.083 10.725,6.057 L11.001,5.783 L11.001,4.991 L15.999,0 L17.49,1.491 L12.502,6.491 L12.502,6.491 Z M6.5,6.491 C4.014,6.491 2,8.505 2,10.991 C2,13.476 4.014,15.491 6.5,15.491 C8.985,15.491 11,13.476 11,10.991 C11,8.505 8.985,6.491 6.5,6.491 L6.5,6.491 Z" id="navigation-landing-path-11"></path>
    </defs>
    <g id="Page-1" stroke="none" stroke-width="1" fill="none" fill-rule="evenodd">
        <g id="navigation-landing">
            <rect id="Rectangle" fill="#FFCC00" fill-rule="nonzero" x="0" y="0" width="360" height="64"></rect>
            <g id="Group" transform="translate(16.000000, 20.000000)" fill="#191919" fill-rule="nonzero">
                <path d="M18.840868,23.689103 L25.7227259,23.689103 C32.6291517,23.689103 35.3071253,18.1448482 35.3071253,11.5925378 C35.3071253,4.78823623 32.0287769,0.504027644 25.0220078,0.504027644 L18.840868,0.504027644 L18.840868,23.689103 Z M24.5465441,4.53620105 L25.0220078,4.53620105 C28.8004004,4.53620105 29.175945,8.82041089 29.175945,11.3405453 C29.175945,14.364666 29.175945,19.4049361 25.1718987,19.4049361 L24.5465441,19.4049361 L24.5465441,4.53620105 L24.5465441,4.53620105 Z" id="navigation-landing-path7390"></path>
                <path d="M34.631387,23.689103 L39.3861108,23.689103 L40.3870226,18.9009097 L45.6671821,18.9009097 L46.5681624,23.689103 L52.3987373,23.689103 L47.5191022,0.504027644 L39.9864857,0.504027644 L34.631387,23.689103 Z M43.1395112,5.29226262 L43.2148747,5.29226262 L44.8665325,14.8686924 L41.1876597,14.8686924 L43.1395112,5.29226262 L43.1395112,5.29226262 Z" id="navigation-landing-path7394"></path>
                <path d="M63.5848351,8.56841843 C63.5848351,7.05633675 63.1842982,4.28420859 61.1325277,4.28420859 C58.7301797,4.28420859 58.3796148,7.81235686 58.3796148,12.0965654 C58.3796148,16.8848004 58.6048568,19.6569286 61.2574264,19.6569286 C63.3595807,19.6569286 63.8350568,17.8928557 63.959968,15.1207275 L68.8899743,15.6247539 C68.8899743,20.6649826 65.937211,23.9411375 61.0072047,23.9411375 C54.1003671,23.9411375 52.2234548,18.1448482 52.2234548,12.0965654 C52.2234548,6.30031665 54.0753749,0 61.0072047,0 C66.4626467,0 68.8899743,3.7801822 68.8899743,8.56841843 L63.5848351,8.56841843" id="navigation-landing-path7398"></path>
                <path d="M0.0971739602,23.689103 L4.70201935,23.689103 L5.67793888,18.9009097 L10.8077957,18.9009097 L11.6588165,23.689103 L17.3141089,23.689103 L12.6097687,0.504027644 L5.27741447,0.504027644 L0.0971739602,23.689103 Z M8.35548825,5.29226262 L8.40546022,5.29226262 L10.0321383,14.8686924 L6.4535962,14.8686924 L8.35548825,5.29226262 L8.35548825,5.29226262 Z" id="navigation-landing-path7386"></path>
            </g>
            <g id="Group-2" transform="translate(304.000000, 18.000000)">
                <g id="Icon-/-Menu-/-Filled" transform="translate(11.000000, 0.000000)">
                    <g id="Mask" fill="#191919" fill-rule="nonzero">
                        <path d="M0,12 L18,12 L18,10 L0,10 L0,12 Z M0,7 L18,7 L18,5 L0,5 L0,7 Z M0,0 L0,2 L18,2 L18,0 L0,0 Z" id="navigation-landing-path-1"></path>
                    </g>
                    <g id="↳-Icon-Color-Clipped">
                        <mask id="mask-2" fill="white">
                            <use xlink:href="#path-1"></use>
                        </mask>
                        <g id="navigation-landing-path-1"></g>
                        <g id="↳-Icon-Color" mask="url(#mask-2)" fill="#191919">
                            <g transform="translate(-3.000000, -6.000000)" id="Rectangle">
                                <rect x="0" y="0" width="24" height="24"></rect>
                            </g>
                        </g>
                    </g>
                    <g id="Colors-/-Black-Clipped">
                        <mask id="mask-4" fill="white">
                            <use xlink:href="#path-3"></use>
                        </mask>
                        <g id="navigation-landing-path-1"></g>
                        <g id="Colors-/-Black" mask="url(#mask-4)" fill="#191919" fill-rule="nonzero">
                            <g transform="translate(-3.000000, -6.000000)" id="Rectangle">
                                <rect x="0" y="0" width="24" height="24"></rect>
                            </g>
                        </g>
                    </g>
                </g>
                <g id="Overline" transform="translate(0.000000, 17.000000)" fill="#191919" font-family="MiloADAC, Milo ADAC" font-size="12" font-weight="normal">
                    <text id="MENU">
                        <tspan x="0.646" y="11">MENU</tspan>
                    </text>
                </g>
            </g>
            <g id="Icon-/-baseline-perm_phone_msg-24px" transform="translate(267.000000, 23.000000)">
                <g id="Shape" fill="#191919" fill-rule="nonzero">
                    <path d="M17,12.5 C15.75,12.5 14.55,12.3 13.43,11.93 C13.08,11.82 12.69,11.9 12.41,12.17 L10.21,14.37 C7.38,12.93 5.06,10.62 3.62,7.79 L5.82,5.58 C6.1,5.31 6.18,4.92 6.07,4.57 C5.7,3.45 5.5,2.25 5.5,1 C5.5,0.45 5.05,0 4.5,0 L1,0 C0.45,0 0,0.45 0,1 C0,10.39 7.61,18 17,18 C17.55,18 18,17.55 18,17 L18,13.5 C18,12.95 17.55,12.5 17,12.5 Z M9,0 L9,10 L12,7 L18,7 L18,0 L9,0 Z" id="navigation-landing-path-3"></path>
                </g>
                <g id="Colors-/-Black-Clipped">
                    <mask id="mask-6" fill="white">
                        <use xlink:href="#path-5"></use>
                    </mask>
                    <g id="navigation-landing-path-3"></g>
                    <g id="Colors-/-Black" mask="url(#mask-6)" fill="#191919" fill-rule="nonzero">
                        <g transform="translate(-3.000000, -3.000000)" id="Rectangle">
                            <rect x="0" y="0" width="24" height="24"></rect>
                        </g>
                    </g>
                </g>
            </g>
            <g id="Icon-/-baseline-person-24px" transform="translate(228.000000, 24.000000)">
                <g id="Shape" fill="#191919" fill-rule="nonzero">
                    <path d="M8,8 C10.21,8 12,6.21 12,4 C12,1.79 10.21,0 8,0 C5.79,0 4,1.79 4,4 C4,6.21 5.79,8 8,8 Z M8,10 C5.33,10 0,11.34 0,14 L0,16 L16,16 L16,14 C16,11.34 10.67,10 8,10 Z" id="navigation-landing-path-5"></path>
                </g>
                <g id="Colors-/-Black-Clipped">
                    <mask id="mask-8" fill="white">
                        <use xlink:href="#path-7"></use>
                    </mask>
                    <g id="navigation-landing-path-5"></g>
                    <g id="Colors-/-Black" mask="url(#mask-8)" fill="#191919" fill-rule="nonzero">
                        <g transform="translate(-4.000000, -4.000000)" id="Rectangle">
                            <rect x="0" y="0" width="24" height="24"></rect>
                        </g>
                    </g>
                </g>
            </g>
            <g id="Icon-/-Search-/-Filled" transform="translate(196.000000, 32.000000) scale(-1, 1) rotate(180.000000) translate(-196.000000, -32.000000) translate(187.000000, 23.000000)">
                <g id="↳-Icon-Color-Clipped">
                    <mask id="mask-10" fill="white">
                        <use xlink:href="#path-9"></use>
                    </mask>
                    <g id="navigation-landing-path-7"></g>
                    <g id="↳-Icon-Color" mask="url(#mask-10)" fill="#191919">
                        <g transform="translate(-3.000000, -3.000000)" id="Rectangle">
                            <rect x="0" y="0" width="24" height="24"></rect>
                        </g>
                    </g>
                </g>
                <g id="Colors-/-Black-Clipped">
                    <mask id="mask-12" fill="white">
                        <use xlink:href="#path-11"></use>
                    </mask>
                    <g id="navigation-landing-path-7"></g>
                    <g id="Colors-/-Black" mask="url(#mask-12)" fill="#191919" fill-rule="nonzero">
                        <g transform="translate(-3.000000, -3.000000)" id="Rectangle">
                            <rect x="0" y="0" width="24" height="24"></rect>
                        </g>
                    </g>
                </g>
            </g>
        </g>
    </g>
</svg>